<svg width="1414" height="723" viewBox="0 0 1414 723" fill="none" xmlns="http://www.w3.org/2000/svg">
<path d="M979.611 2.07332C948.038 7.0376 910.905 23.3204 881.914 44.9647C873.375 51.5176 849.547 73.3605 828.697 93.6147C808.045 113.869 786.997 133.13 782.032 136.506C774.884 141.47 757.211 149.016 753.239 149.016C752.644 149.016 750.857 146.236 749.069 142.662C744.899 134.719 746.289 121.812 753.239 101.558C759.197 83.6862 759.395 76.5376 754.232 67.999C749.467 60.2547 730.602 50.7233 716.107 48.7376C706.972 47.3476 706.575 47.5462 703.199 53.5033C698.632 61.4462 696.448 61.2476 697.838 53.1062C700.419 40.199 710.348 31.0647 725.042 28.6819C729.014 27.8876 732.389 26.4976 732.389 25.3062C732.389 22.129 712.334 25.7033 701.214 31.0647C691.881 35.6319 674.804 51.7162 674.804 55.8862C674.804 56.879 674.009 57.6733 672.818 57.6733C668.648 57.6733 670.832 46.1562 675.995 40.9933C679.967 37.2205 680.562 35.8305 678.179 35.8305C672.619 35.8305 662.889 47.5462 661.698 55.8862C660.507 62.8362 659.514 63.829 652.564 66.0133C647.401 67.6019 645.614 68.9919 647.004 70.3819C647.997 71.3747 648.989 73.1619 648.989 73.9562C648.989 76.7362 630.522 87.459 625.757 87.459C619.998 87.459 616.622 94.0119 618.211 101.558C619.799 108.508 620.197 108.508 627.345 102.352C633.104 97.5862 646.011 93.8133 648.394 96.1962C650.379 98.1819 645.018 103.146 637.869 105.33C634.097 106.522 631.118 108.309 631.118 109.302C631.118 112.876 638.465 112.28 649.784 107.713C659.315 103.742 663.684 103.146 672.619 104.139C685.328 105.529 692.278 102.948 695.852 95.6005C699.029 89.4447 697.441 85.6719 691.484 84.2819C688.902 83.6862 686.718 82.2962 686.718 81.3033C686.718 78.1262 694.462 79.3176 698.235 83.0905C701.412 86.2676 702.008 86.2676 706.972 83.4876C717.099 77.9276 723.851 87.2605 717.695 98.7776C716.107 101.756 708.759 111.486 701.412 120.223C688.505 135.712 678.775 152.392 678.775 159.54C678.775 168.079 689.697 180.788 697.044 180.788C701.809 180.788 725.439 168.476 722.858 167.483C721.269 166.888 714.915 167.483 708.561 168.873C694.661 171.852 691.881 171.058 689.101 163.313C686.519 155.569 691.682 143.853 704.589 128.96C725.042 105.33 730.602 93.4162 725.638 83.6862C721.865 76.5376 718.489 75.1476 702.802 74.7505C692.477 74.3533 689.299 74.949 686.122 78.1262C683.342 80.9062 682.945 82.4947 684.534 84.0833C685.725 85.2747 686.718 88.2533 686.718 90.8347C686.718 95.2033 686.122 95.4019 671.825 95.4019C657.528 95.4019 647.004 92.0262 647.004 87.2605C647.004 83.8847 667.457 63.6305 671.031 63.6305C673.017 63.6305 677.981 60.6519 681.952 57.2762C686.321 53.3047 689.697 51.7162 690.094 53.1062C690.491 54.2976 692.675 57.4747 694.859 59.8576C698.831 64.4247 699.029 64.4247 704.788 61.049C712.929 56.4819 721.468 56.879 733.382 62.439C744.105 67.4033 750.261 74.5519 750.261 82.0976C750.261 84.679 747.878 93.4162 745.098 101.558C741.722 111.089 739.737 120.819 739.538 129.556C739.339 141.669 739.737 143.258 745.098 148.818C757.807 161.923 778.855 152.789 814.797 118.833C831.477 103.146 831.874 102.749 828.697 110.295C826.91 114.663 824.924 119.429 824.328 120.819C823.732 122.209 824.924 125.188 826.91 127.372C830.285 131.145 830.285 131.343 825.917 137.3C823.335 140.676 821.945 143.853 822.541 144.449C823.137 145.045 833.065 139.882 844.781 133.13C942.875 75.7433 1042.16 61.4462 1131.52 91.2319C1141.65 94.8062 1150.38 97.189 1150.78 96.5933C1151.97 95.6005 1124.17 84.8776 1106.7 79.9133C1061.42 66.609 1005.62 65.219 952.804 75.7433C913.09 83.6862 862.454 103.543 836.838 121.018C831.874 124.592 827.704 126.975 827.704 126.379C827.704 122.805 854.71 87.8562 868.212 73.9562C904.352 36.6247 947.641 14.1862 995.497 7.83188C1022.5 4.2576 1064.2 6.83902 1086.84 13.1933C1089.62 13.9876 1090.22 13.789 1088.83 12.399C1081.68 4.85332 1007.21 -2.09669 979.611 2.07332Z" fill="black"/>
<path d="M927.785 129.159C892.241 131.541 835.251 141.669 825.72 147.229C823.337 148.619 823.535 149.214 827.308 150.207C832.67 151.796 832.868 153.186 827.705 157.554C820.16 163.909 823.933 164.306 841.208 158.746C887.674 143.456 927.785 136.903 975.443 136.903C1019.92 136.903 1055.86 141.669 1083.27 151.2C1095.38 155.37 1100.54 155.966 1095.78 152.987C1090.02 149.214 1055.07 138.69 1035.41 134.917C1017.74 131.541 967.5 126.776 954.791 127.57C952.011 127.57 939.898 128.364 927.785 129.159Z" fill="black"/>
<path d="M1168.65 135.116C1167.86 138.293 1163.49 145.243 1158.92 150.208C1149.59 160.335 1124.57 178.802 1120.2 178.802C1118.81 178.802 1117.62 179.795 1117.62 180.986C1117.62 182.178 1119.01 182.773 1120.6 181.979C1122.19 181.383 1129.73 180.39 1137.08 179.795L1150.38 178.603L1136.88 185.752C1121.99 193.695 1093.19 202.035 1074.33 203.822C1063.41 205.013 1062.02 204.815 1063.21 201.836C1064.8 197.666 1063.01 197.865 1049.51 202.432L1038.39 206.403L1037.79 201.638L1037.2 197.07L1025.88 201.638L1014.36 206.403V200.446C1014.36 197.269 1014.16 194.688 1013.96 194.688C1013.57 194.688 1007.61 196.475 1000.46 198.659C993.313 200.843 986.76 202.63 985.767 202.63C984.973 202.63 984.576 199.453 984.973 195.68C985.37 191.709 984.973 188.73 983.583 188.73C982.59 188.73 975.64 191.312 968.293 194.489C960.747 197.666 954.393 199.652 953.797 198.659C953.201 197.865 954.988 193.099 957.768 187.936C960.35 182.972 962.336 178.802 962.137 178.802C961.939 179 952.01 181.979 940.096 185.553C928.181 189.128 916.863 191.709 914.877 191.312C911.7 190.319 912.296 189.128 918.848 180.986C929.373 168.476 932.947 160.732 932.947 150.605L932.749 142.066L929.571 148.023C925.004 156.76 920.834 160.93 912.693 165.1C901.573 170.66 889.659 171.852 878.936 168.278C866.029 163.71 851.533 162.122 838.626 163.909C821.35 165.895 825.917 169.668 847.76 171.058C858.086 171.852 871.589 174.036 877.744 175.823C887.077 178.802 891.048 179.199 900.183 177.412C910.111 175.625 911.104 175.823 909.913 178.603C906.934 185.95 906.736 189.326 909.118 193.496C911.303 197.666 910.508 199.652 903.36 210.97C898.793 218.119 895.219 225.268 895.219 227.055C895.219 230.828 903.757 236.983 913.686 240.16C919.841 242.345 926.791 249.096 924.607 251.28C924.21 251.678 916.863 251.082 908.126 250.288C884.694 247.706 856.497 236.189 840.016 222.09C831.874 215.14 827.108 215.14 802.883 222.289C779.451 229.239 775.083 232.813 778.458 241.749C780.246 246.515 780.246 249.295 778.458 253.068C775.48 259.819 773.097 259.62 770.118 252.472C765.551 241.352 755.027 233.012 742.716 230.828C729.014 228.445 724.844 229.835 717.1 239.565L710.944 247.11L703.796 241.749L696.647 236.189L701.611 229.636C707.37 222.09 707.568 219.112 703.597 213.75C698.236 206.8 700.221 202.035 712.731 189.723C719.284 183.17 725.638 176.22 726.631 174.235C728.617 170.859 728.22 170.859 724.05 173.043C714.717 177.809 700.42 189.326 695.456 195.879C689.498 203.425 690.094 209.978 696.846 216.729C701.611 221.495 700.618 223.282 690.094 228.643C683.144 232.218 679.57 232.813 667.457 231.82C659.514 231.225 652.961 231.622 652.961 232.416C652.961 234.6 644.82 242.345 642.636 242.345C641.643 242.345 641.444 241.352 642.04 240.359C645.614 234.6 606.297 245.72 600.34 252.273C596.17 256.84 598.156 257.238 605.304 253.266C608.084 251.678 612.056 250.486 614.24 250.288C617.417 250.288 616.623 251.479 610.666 256.443C602.326 263.195 597.361 271.535 597.361 278.485C597.361 282.456 597.758 282.258 600.936 276.698C604.113 270.542 617.02 259.422 618.807 261.01C619.204 261.408 618.608 263.592 617.417 265.776C614.24 271.932 614.836 277.095 619.204 282.258L623.374 287.023L622.183 280.868C620.594 272.329 623.97 264.982 631.317 261.209C637.274 258.032 640.65 258.032 652.763 261.408L657.528 262.798L652.961 256.642C647.203 248.898 648.791 245.125 658.323 242.543C676.591 237.38 689.697 240.359 705.583 253.068C709.356 256.245 712.93 258.429 713.128 258.032C713.526 257.635 717.1 252.472 721.468 246.713C727.426 238.175 729.808 236.388 733.184 237.182C735.567 237.778 739.936 238.373 743.113 238.373C750.063 238.373 764.161 251.678 764.161 258.032C764.161 260.415 765.948 264.783 768.133 267.762C772.898 274.315 775.083 285.236 773.296 294.569L772.104 301.32L755.424 302.313C742.914 303.108 736.56 304.696 730.206 308.072C720.476 313.632 716.703 319.39 725.837 315.022C728.816 313.433 733.581 311.646 736.163 310.852L740.73 309.462L736.163 315.618C730.603 323.362 732.39 325.546 738.943 318.993C741.723 316.412 747.084 313.433 751.254 312.639C759.197 311.249 780.841 312.44 786.401 314.823C791.564 316.809 790.968 311.845 785.011 303.902C781.04 298.54 780.047 294.768 780.047 285.038C780.047 270.939 784.217 255.053 789.976 247.706C795.138 241.352 794.94 240.756 788.983 239.962C786.203 239.565 783.621 238.572 783.423 237.579C783.026 235.792 821.946 222.686 828.3 222.686C830.286 222.488 834.257 225.268 837.037 228.445C842.2 234.6 870.198 249.295 887.871 255.053C893.034 256.84 901.176 258.23 905.743 258.23C928.38 258.23 949.627 268.358 963.924 285.633C978.817 303.902 978.42 305.093 958.364 304.299C949.428 303.902 938.507 304.1 933.94 304.696C925.6 306.086 911.7 313.235 913.884 315.22C914.48 315.816 916.267 315.22 918.054 313.83C919.643 312.44 927.586 311.05 935.529 310.653C943.273 310.256 948.038 310.455 945.854 311.05C941.287 312.44 934.933 317.603 934.933 319.986C934.933 320.78 937.911 320.383 941.486 318.795C954.194 313.433 970.676 313.036 987.157 317.603C1004.23 322.17 1008.4 322.766 1008.4 319.788C1008.4 318.596 1006.82 317.802 1004.83 317.802C1002.84 317.802 999.27 316.412 996.887 314.625C992.518 311.646 992.518 311.249 995.497 307.873C998.476 304.498 998.476 304.1 994.107 302.909C984.377 299.93 966.704 277.095 966.704 267.365C966.704 265.578 962.931 263.592 956.577 262.202C945.656 259.62 928.976 246.118 928.976 239.962C928.976 237.778 924.409 235.395 914.083 232.218C902.963 228.643 899.786 227.055 901.771 225.466C906.736 221.693 911.104 213.552 911.104 208.19C911.104 205.013 912.097 202.63 913.288 202.63C915.274 202.63 915.076 210.375 912.891 218.516C911.898 222.488 927.983 223.878 973.853 224.275C1041.17 224.672 1094.19 215.538 1130.53 197.07C1137.08 193.893 1144.62 188.73 1147.4 185.752L1152.37 180.39L1153.36 189.128L1154.35 197.666L1160.11 188.135C1169.45 172.448 1174.61 151.796 1173.42 133.528C1173.02 127.173 1170.04 128.166 1168.65 135.116ZM1159.52 171.256C1158.13 175.228 1156.54 176.22 1153.56 175.426C1147.8 174.036 1148.4 169.866 1154.95 165.299C1161.11 160.732 1162.69 162.916 1159.52 171.256ZM949.428 199.652L956.379 206.403L965.91 203.623C974.647 201.042 975.441 201.042 981.994 205.41C987.951 209.58 989.54 209.779 997.483 207.992C1004.83 206.403 1007.01 206.602 1011.78 209.58C1016.74 212.956 1016.94 213.353 1013.37 214.743C1008.4 216.53 954.79 216.928 936.323 215.14C923.614 213.949 922.82 213.75 919.643 207.198C918.054 203.623 916.863 200.248 917.26 199.85C917.657 199.453 923.416 197.865 929.969 196.276C936.521 194.489 941.883 193.099 942.081 192.9C942.081 192.9 945.457 195.879 949.428 199.652ZM1035.21 210.573C1036.6 212.758 1028.06 215.339 1022.9 213.949C1019.92 213.353 1020.12 212.956 1024.29 210.97C1030.64 208.19 1033.62 208.19 1035.21 210.573ZM636.083 249.89C634.891 250.883 631.714 252.472 628.736 253.862C624.168 255.649 623.176 255.649 623.176 253.266C623.176 250.883 626.948 249.295 635.09 248.5C636.678 248.5 637.076 248.898 636.083 249.89Z" fill="black"/>
<path d="M814.401 230.629C807.451 232.813 801.891 235.395 801.891 236.387C801.891 238.969 813.607 246.117 837.833 258.23C865.037 271.932 863.647 270.542 860.47 281.463C856.3 294.966 852.527 297.945 835.648 300.129C818.968 302.115 805.664 307.873 801.097 314.823C799.31 317.603 798.714 319.787 799.707 319.787C800.7 319.787 802.288 318.795 803.083 317.603C804.671 315.022 819.564 308.072 823.535 307.873C825.124 307.873 824.131 309.859 820.954 312.837C814.004 319.192 814.401 322.965 821.351 317.802C831.478 310.455 840.613 309.462 852.13 315.022C865.831 321.376 869.207 320.979 861.661 314.029C858.285 310.852 855.505 306.483 855.505 304.497C855.505 302.313 860.867 294.172 867.42 286.427C879.731 271.733 881.518 268.159 876.355 268.159C870.994 268.159 865.235 260.613 866.625 255.252C867.618 251.28 867.023 250.287 864.243 250.287C857.69 250.089 844.187 242.94 835.251 234.799L826.713 226.856L814.401 230.629ZM830.485 241.352C837.038 246.912 834.457 247.905 825.521 243.337C822.344 241.55 820.16 239.366 820.755 238.373C822.543 235.395 824.131 235.99 830.485 241.352Z" fill="black"/>
<path d="M7 555.624L7.5 554.472L8 553.319L8.5 552.165L9 551.009L9.5 549.853L10 548.695L10.5 547.537L11 546.377L11.5 545.217L12 544.056L12.5 542.894L13 541.731L13.5 540.567L14 539.403L14.5 538.238L15 537.073L15.5 535.906L16 534.74L16.5 533.573L17 532.405L17.5 531.237L18 530.069L18.5 528.9L19 527.731L19.5 526.562L20 525.392L20.5 524.223L21 523.053L21.5 521.884L22 520.714L22.5 519.544L23 518.375L23.5 517.205L24 516.036L24.5 514.867L25 513.698L25.5 512.529L26 511.361L26.5 510.193L27 509.026L27.5 507.859L28 506.692L28.5 505.526L29 504.361L29.5 503.196L30 502.032L30.5 500.868L31 499.706L31.5 498.544L32 497.383L32.5 496.223L33 495.064L33.5 493.905L34 492.748L34.5 491.592L35 490.437L35.5 489.283L36 488.13L36.5 486.979L37 485.829L37.5 484.68L38 483.532L38.5 482.386L39 481.241L39.5 480.098L40 478.956L40.5 477.816L41 476.677L41.5 475.54L42 474.405L42.5 473.272L43 472.14L43.5 471.01L44 469.882L44.5 468.756L45 467.631L45.5 466.509L46 465.389L46.5 464.271L47 463.154L47.5 462.04L48 460.929L48.5 459.819L49 458.712L49.5 457.607L50 456.504L50.5 455.404L51 454.306L51.5 453.211L52 452.118L52.5 451.028L53 449.94L53.5 448.855L54 447.772L54.5 446.693L55 445.616L55.5 444.541L56 443.47L56.5 442.401L57 441.336L57.5 440.273L58 439.214L58.5 438.157L59 437.103L59.5 436.053L60 435.005L60.5 433.961L61 432.92L61.5 431.883L62 430.848L62.5 429.817L63 428.789L63.5 427.765L64 426.744L64.5 425.727L65 424.713L65.5 423.702L66 422.696L66.5 421.693L67 420.693L67.5 419.697L68 418.705L68.5 417.717L69 416.733L69.5 415.752L70 414.775L70.5 413.803L71 412.834L71.5 411.869L72 410.908L72.5 409.951L73 408.999L73.5 408.05L74 407.106L74.5 406.166L75 405.23L75.5 404.298L76 403.371L76.5 402.448L77 401.529L77.5 400.615L78 399.705L78.5 398.8L79 397.899L79.5 397.003L80 396.111L80.5 395.224L81 394.341L81.5 393.463L82 392.59L82.5 391.722L83 390.858L83.5 390L84 389.146L84.5 388.296L85 387.452L85.5 386.613L86 385.779L86.5 384.949L87 384.125L87.5 383.305L88 382.491L88.5 381.682L89 380.878L89.5 380.079L90 379.286L90.5 378.497L91 377.714L91.5 376.936L92 376.164L92.5 375.396L93 374.634L93.5 373.878L94 373.127L94.5 372.381L95 371.641L95.5 370.907L96 370.177L96.5 369.454L97 368.736L97.5 368.024L98 367.317L98.5 366.616L99 365.92L99.5 365.231L100 364.547L100.5 363.869L101 363.196L101.5 362.53L102 361.869L102.5 361.214L103 360.565L103.5 359.922L104 359.285L104.5 358.654L105 358.029L105.5 357.409L106 356.796L106.5 356.189L107 355.588L107.5 354.993L108 354.404L108.5 353.822L109 353.245L109.5 352.675L110 352.111L110.5 351.553L111 351.001L111.5 350.455L112 349.916L112.5 349.383L113 348.857L113.5 348.337L114 347.823L114.5 347.315L115 346.814L115.5 346.32L116 345.831L116.5 345.35L117 344.874L117.5 344.406L118 343.943L118.5 343.488L119 343.038L119.5 342.596L120 342.159L120.5 341.73L121 341.307L121.5 340.891L122 340.481L122.5 340.078L123 339.681L123.5 339.292L124 338.909L124.5 338.532L125 338.163L125.5 337.8L126 337.444L126.5 337.095L127 336.752L127.5 336.416L128 336.087L128.5 335.765L129 335.45L129.5 335.141L130 334.839L130.5 334.545L131 334.257L131.5 333.975L132 333.701L132.5 333.434L133 333.174L133.5 332.92L134 332.673L134.5 332.434L135 332.201L135.5 331.975L136 331.757L136.5 331.545L137 331.34L137.5 331.142L138 330.951L138.5 330.767L139 330.591L139.5 330.421L140 330.258L140.5 330.102L141 329.953L141.5 329.812L142 329.677L142.5 329.549L143 329.429L143.5 329.315L144 329.209L144.5 329.109L145 329.017L145.5 328.931L146 328.853L146.5 328.782L147 328.718L147.5 328.661L148 328.611L148.5 328.568L149 328.532L149.5 328.504L150 328.482L150.5 328.468L151 328.46L151.5 328.46L152 328.467L152.5 328.481L153 328.502L153.5 328.53L154 328.565L154.5 328.607L155 328.656L155.5 328.713L156 328.776L156.5 328.847L157 328.924L157.5 329.009L158 329.101L158.5 329.199L159 329.305L159.5 329.418L160 329.538L160.5 329.665L161 329.799L161.5 329.941L162 330.089L162.5 330.244L163 330.406L163.5 330.575L164 330.752L164.5 330.935L165 331.125L165.5 331.322L166 331.526L166.5 331.738L167 331.956L167.5 332.181L168 332.413L168.5 332.652L169 332.898L169.5 333.151L170 333.411L170.5 333.677L171 333.951L171.5 334.231L172 334.519L172.5 334.813L173 335.114L173.5 335.422L174 335.737L174.5 336.058L175 336.387L175.5 336.722L176 337.064L176.5 337.413L177 337.768L177.5 338.131L178 338.5L178.5 338.875L179 339.258L179.5 339.647L180 340.043L180.5 340.445L181 340.854L181.5 341.27L182 341.692L182.5 342.121L183 342.557L183.5 342.999L184 343.448L184.5 343.903L185 344.364L185.5 344.833L186 345.307L186.5 345.789L187 346.276L187.5 346.77L188 347.271L188.5 347.778L189 348.291L189.5 348.811L190 349.337L190.5 349.869L191 350.408L191.5 350.952L192 351.504L192.5 352.061L193 352.625L193.5 353.194L194 353.77L194.5 354.353L195 354.941L195.5 355.535L196 356.136L196.5 356.742L197 357.355L197.5 357.974L198 358.598L198.5 359.229L199 359.866L199.5 360.508L200 361.157L200.5 361.811L201 362.471L201.5 363.137L202 363.809L202.5 364.487L203 365.17L203.5 365.859L204 366.554L204.5 367.255L205 367.961L205.5 368.673L206 369.39L206.5 370.113L207 370.842L207.5 371.576L208 372.316L208.5 373.061L209 373.811L209.5 374.567L210 375.329L210.5 376.096L211 376.868L211.5 377.645L212 378.428L212.5 379.216L213 380.009L213.5 380.807L214 381.611L214.5 382.42L215 383.233L215.5 384.052L216 384.876L216.5 385.705L217 386.539L217.5 387.378L218 388.222L218.5 389.07L219 389.924L219.5 390.782L220 391.645L220.5 392.513L221 393.386L221.5 394.263L222 395.146L222.5 396.032L223 396.924L223.5 397.819L224 398.72L224.5 399.625L225 400.534L225.5 401.448L226 402.366L226.5 403.289L227 404.216L227.5 405.147L228 406.083L228.5 407.023L229 407.967L229.5 408.915L230 409.867L230.5 410.823L231 411.784L231.5 412.748L232 413.717L232.5 414.689L233 415.666L233.5 416.646L234 417.63L234.5 418.618L235 419.61L235.5 420.605L236 421.604L236.5 422.607L237 423.613L237.5 424.623L238 425.637L238.5 426.654L239 427.675L239.5 428.699L240 429.726L240.5 430.757L241 431.791L241.5 432.828L242 433.869L242.5 434.913L243 435.96L243.5 437.01L244 438.064L244.5 439.12L245 440.179L245.5 441.242L246 442.307L246.5 443.375L247 444.447L247.5 445.521L248 446.597L248.5 447.677L249 448.759L249.5 449.844L250 450.931L250.5 452.021L251 453.114L251.5 454.209L252 455.307L252.5 456.407L253 457.509L253.5 458.614L254 459.721L254.5 460.831L255 461.942L255.5 463.056L256 464.172L256.5 465.29L257 466.41L257.5 467.532L258 468.656L258.5 469.782L259 470.91L259.5 472.04L260 473.171L260.5 474.305L261 475.44L261.5 476.577L262 477.715L262.5 478.855L263 479.997L263.5 481.14L264 482.285L264.5 483.431L265 484.578L265.5 485.727L266 486.877L266.5 488.028L267 489.181L267.5 490.335L268 491.49L268.5 492.646L269 493.803L269.5 494.961L270 496.12L270.5 497.28L271 498.441L271.5 499.603L272 500.766L272.5 501.929L273 503.093L273.5 504.258L274 505.423L274.5 506.589L275 507.755L275.5 508.922L276 510.09L276.5 511.258L277 512.426L277.5 513.595L278 514.763L278.5 515.932L279 517.102L279.5 518.271L280 519.441L280.5 520.611L281 521.78L281.5 522.95L282 524.12L282.5 525.289L283 526.458L283.5 527.628L284 528.797L284.5 529.965L285 531.134L285.5 532.302L286 533.469L286.5 534.637L287 535.803L287.5 536.97L288 538.135L288.5 539.3L289 540.465L289.5 541.628L290 542.791L290.5 543.953L291 545.115L291.5 546.275L292 547.434L292.5 548.593L293 549.751L293.5 550.907L294 552.063L294.5 553.217L295 554.37L295.5 555.522L296 556.673L296.5 557.822L297 558.97L297.5 560.117L298 561.262L298.5 562.406L299 563.548L299.5 564.689L300 565.828L300.5 566.966L301 568.102L301.5 569.236L302 570.368L302.5 571.499L303 572.628L303.5 573.755L304 574.88L304.5 576.003L305 577.124L305.5 578.242L306 579.359L306.5 580.474L307 581.587L307.5 582.697L308 583.805L308.5 584.911L309 586.015L309.5 587.116L310 588.214L310.5 589.311L311 590.404L311.5 591.496L312 592.584L312.5 593.67L313 594.754L313.5 595.835L314 596.913L314.5 597.988L315 599.06L315.5 600.13L316 601.196L316.5 602.26L317 603.321L317.5 604.379L318 605.433L318.5 606.485L319 607.533L319.5 608.579L320 609.621L320.5 610.66L321 611.695L321.5 612.728L322 613.757L322.5 614.782L323 615.804L323.5 616.823L324 617.838L324.5 618.85L325 619.858L325.5 620.862L326 621.863L326.5 622.86L327 623.854L327.5 624.843L328 625.829L328.5 626.811L329 627.789L329.5 628.763L330 629.734L330.5 630.7L331 631.662L331.5 632.621L332 633.575L332.5 634.525L333 635.471L333.5 636.412L334 637.35L334.5 638.283L335 639.212L335.5 640.136L336 641.057L336.5 641.973L337 642.884L337.5 643.791L338 644.693L338.5 645.591L339 646.485L339.5 647.373L340 648.258L340.5 649.137L341 650.012L341.5 650.882L342 651.747L342.5 652.608L343 653.464L343.5 654.315L344 655.161L344.5 656.002L345 656.838L345.5 657.669L346 658.495L346.5 659.316L347 660.132L347.5 660.943L348 661.749L348.5 662.55L349 663.345L349.5 664.136L350 664.921L350.5 665.701L351 666.475L351.5 667.244L352 668.008L352.5 668.767L353 669.52L353.5 670.267L354 671.009L354.5 671.746L355 672.477L355.5 673.203L356 673.923L356.5 674.637L357 675.346L357.5 676.049L358 676.746L358.5 677.438L359 678.124L359.5 678.804L360 679.479L360.5 680.148L361 680.81L361.5 681.467L362 682.118L362.5 682.764L363 683.403L363.5 684.036L364 684.664L364.5 685.285L365 685.9L365.5 686.51L366 687.113L366.5 687.71L367 688.301L367.5 688.886L368 689.465L368.5 690.038L369 690.604L369.5 691.164L370 691.718L370.5 692.266L371 692.807L371.5 693.342L372 693.871L372.5 694.394L373 694.91L373.5 695.42L374 695.923L374.5 696.42L375 696.911L375.5 697.395L376 697.872L376.5 698.344L377 698.808L377.5 699.266L378 699.718L378.5 700.163L379 700.602L379.5 701.034L380 701.459L380.5 701.878L381 702.29L381.5 702.695L382 703.094L382.5 703.486L383 703.871L383.5 704.25L384 704.622L384.5 704.988L385 705.346L385.5 705.698L386 706.043L386.5 706.381L387 706.713L387.5 707.037L388 707.355L388.5 707.666L389 707.97L389.5 708.268L390 708.558L390.5 708.842L391 709.118L391.5 709.388L392 709.651L392.5 709.907L393 710.156L393.5 710.398L394 710.634L394.5 710.862L395 711.083L395.5 711.298L396 711.505L396.5 711.705L397 711.899L397.5 712.085L398 712.265L398.5 712.437L399 712.602L399.5 712.761L400 712.912L400.5 713.056L401 713.194L401.5 713.324L402 713.447L402.5 713.563L403 713.672L403.5 713.774L404 713.869L404.5 713.957L405 714.038L405.5 714.111L406 714.178L406.5 714.238L407 714.29L407.5 714.336L408 714.374L408.5 714.405L409 714.429L409.5 714.446L410 714.456L410.5 714.459L411 714.455L411.5 714.444L412 714.425L412.5 714.4L413 714.367L413.5 714.328L414 714.281L414.5 714.227L415 714.166L415.5 714.098L416 714.023L416.5 713.941L417 713.852L417.5 713.756L418 713.652L418.5 713.542L419 713.425L419.5 713.3L420 713.169L420.5 713.03L421 712.884L421.5 712.732L422 712.572L422.5 712.405L423 712.232L423.5 712.051L424 711.863L424.5 711.669L425 711.467L425.5 711.258L426 711.043L426.5 710.82L427 710.59L427.5 710.354L428 710.11L428.5 709.86L429 709.603L429.5 709.339L430 709.068L430.5 708.79L431 708.505L431.5 708.213L432 707.914L432.5 707.609L433 707.297L433.5 706.977L434 706.652L434.5 706.319L435 705.979L435.5 705.633L436 705.28L436.5 704.92L437 704.554L437.5 704.18L438 703.8L438.5 703.414L439 703.02L439.5 702.62L440 702.214L440.5 701.8L441 701.38L441.5 700.954L442 700.52L442.5 700.081L443 699.634L443.5 699.182L444 698.722L444.5 698.256L445 697.784L445.5 697.305L446 696.82L446.5 696.328L447 695.83L447.5 695.325L448 694.814L448.5 694.297L449 693.773L449.5 693.243L450 692.707L450.5 692.164L451 691.616L451.5 691.06L452 690.499L452.5 689.931L453 689.358L453.5 688.778L454 688.192L454.5 687.599L455 687.001L455.5 686.397L456 685.786L456.5 685.17L457 684.547L457.5 683.919L458 683.285L458.5 682.644L459 681.998L459.5 681.346L460 680.688L460.5 680.024L461 679.354L461.5 678.678L462 677.997L462.5 677.31L463 676.617L463.5 675.919L464 675.214L464.5 674.505L465 673.789L465.5 673.068L466 672.342L466.5 671.609L467 670.872L467.5 670.129L468 669.38L468.5 668.626L469 667.866L469.5 667.102L470 666.331L470.5 665.556L471 664.775L471.5 663.989L472 663.198L472.5 662.401L473 661.6L473.5 660.793L474 659.981L474.5 659.164L475 658.342L475.5 657.515L476 656.683L476.5 655.846L477 655.004L477.5 654.157L478 653.305L478.5 652.448L479 651.587L479.5 650.721L480 649.85L480.5 648.974L481 648.093L481.5 647.208L482 646.319L482.5 645.425L483 644.526L483.5 643.622L484 642.715L484.5 641.802L485 640.886L485.5 639.965L486 639.039L486.5 638.11L487 637.176L487.5 636.237L488 635.295L488.5 634.348L489 633.397L489.5 632.443L490 631.484L490.5 630.521L491 629.553L491.5 628.582L492 627.608L492.5 626.629L493 625.646L493.5 624.659L494 623.669L494.5 622.675L495 621.677L495.5 620.676L496 619.671L496.5 618.662L497 617.65L497.5 616.634L498 615.615L498.5 614.592L499 613.566L499.5 612.536L500 611.503L500.5 610.467L501 609.427L501.5 608.385L502 607.339L502.5 606.289L503 605.237L503.5 604.182L504 603.124L504.5 602.062L505 600.998L505.5 599.931L506 598.861L506.5 597.788L507 596.712L507.5 595.634L508 594.552L508.5 593.469L509 592.382L509.5 591.293L510 590.201L510.5 589.107L511 588.01L511.5 586.911L512 585.809L512.5 584.705L513 583.599L513.5 582.491L514 581.38L514.5 580.267L515 579.152L515.5 578.034L516 576.915L516.5 575.794L517 574.67L517.5 573.545L518 572.418L518.5 571.289L519 570.158L519.5 569.025L520 567.891L520.5 566.754L521 565.616L521.5 564.477L522 563.336L522.5 562.193L523 561.049L523.5 559.904L524 558.757L524.5 557.608L525 556.459L525.5 555.308L526 554.156L526.5 553.002L527 551.848L527.5 550.692L528 549.535L528.5 548.378L529 547.219L529.5 546.059L530 544.899L530.5 543.737L531 542.575L531.5 541.412L532 540.248" stroke="black" stroke-width="13" stroke-miterlimit="10" stroke-linecap="round" stroke-linejoin="round"/>
<path d="M441.21 476.095H348.907C346.545 476.095 343.987 475.832 341.231 475.307C338.542 474.717 335.852 473.831 333.162 472.651C330.538 471.47 328.012 469.961 325.585 468.124C323.158 466.222 320.993 463.958 319.09 461.334C317.254 458.644 315.777 455.561 314.662 452.084C313.547 448.542 312.989 444.573 312.989 440.177V370.901C312.989 368.539 313.252 366.013 313.777 363.324C314.367 360.568 315.253 357.879 316.433 355.255C317.614 352.565 319.156 350.006 321.058 347.579C322.961 345.152 325.224 343.02 327.848 341.183C330.538 339.28 333.621 337.772 337.098 336.656C340.575 335.541 344.511 334.983 348.907 334.983H441.21V360.568H348.907C345.561 360.568 343.003 361.454 341.231 363.225C339.46 364.997 338.574 367.621 338.574 371.098V440.177C338.574 443.457 339.46 446.016 341.231 447.853C343.068 449.624 345.627 450.51 348.907 450.51H441.21V476.095ZM576.909 440.177C576.909 444.573 576.351 448.542 575.236 452.084C574.121 455.561 572.645 458.644 570.808 461.334C568.971 463.958 566.839 466.222 564.412 468.124C561.984 469.961 559.426 471.47 556.736 472.651C554.112 473.831 551.422 474.717 548.667 475.307C545.977 475.832 543.419 476.095 540.991 476.095H494.84C491.297 476.095 487.427 475.472 483.228 474.225C479.03 472.979 475.126 470.945 471.518 468.124C467.976 465.237 464.991 461.531 462.563 457.004C460.202 452.412 459.021 446.803 459.021 440.177V405.539C459.021 398.979 460.202 393.435 462.563 388.909C464.991 384.317 467.976 380.61 471.518 377.789C475.126 374.903 479.03 372.836 483.228 371.59C487.427 370.343 491.297 369.72 494.84 369.72H540.991C547.552 369.72 553.128 370.901 557.72 373.263C562.312 375.624 566.019 378.609 568.84 382.217C571.661 385.76 573.694 389.63 574.941 393.829C576.253 398.028 576.909 401.931 576.909 405.539V440.177ZM551.324 405.736C551.324 402.193 550.438 399.569 548.667 397.864C546.896 396.158 544.337 395.305 540.991 395.305H495.037C491.625 395.305 489.034 396.191 487.263 397.962C485.492 399.668 484.606 402.193 484.606 405.539V440.177C484.606 443.523 485.492 446.082 487.263 447.853C489.034 449.624 491.625 450.51 495.037 450.51H540.991C544.468 450.51 547.06 449.624 548.765 447.853C550.471 446.082 551.324 443.523 551.324 440.177V405.736ZM691.845 395.305H634.278C630.801 395.305 628.177 396.191 626.406 397.962C624.635 399.668 623.749 402.193 623.749 405.539V476.095H598.164V405.539C598.164 401.144 598.722 397.208 599.837 393.731C600.952 390.254 602.428 387.203 604.265 384.579C606.168 381.889 608.333 379.626 610.76 377.789C613.187 375.887 615.713 374.345 618.337 373.164C621.027 371.983 623.716 371.13 626.406 370.606C629.161 370.015 631.72 369.72 634.082 369.72H691.845V395.305ZM822.82 404.949C822.82 408.491 822.197 412.329 820.951 416.462C819.704 420.529 817.671 424.334 814.85 427.877C812.094 431.354 808.453 434.273 803.927 436.635C799.466 438.996 794.021 440.177 787.592 440.177H741.44V415.871H787.592C791.069 415.871 793.758 414.822 795.661 412.723C797.563 410.558 798.515 407.901 798.515 404.752C798.515 401.406 797.432 398.782 795.267 396.88C793.168 394.977 790.61 394.026 787.592 394.026H741.44C737.963 394.026 735.274 395.108 733.371 397.273C731.469 399.372 730.517 401.997 730.517 405.145V440.866C730.517 444.277 731.567 446.934 733.666 448.837C735.831 450.739 738.488 451.691 741.637 451.691H787.592V476.095H741.44C737.898 476.095 734.06 475.472 729.927 474.225C725.86 472.979 722.055 470.978 718.512 468.222C715.035 465.401 712.116 461.761 709.754 457.3C707.393 452.773 706.212 447.295 706.212 440.866V404.949C706.212 401.406 706.835 397.601 708.081 393.534C709.328 389.401 711.329 385.596 714.084 382.119C716.905 378.576 720.546 375.624 725.007 373.263C729.533 370.901 735.011 369.72 741.44 369.72H787.592C791.134 369.72 794.939 370.343 799.007 371.59C803.14 372.836 806.945 374.87 810.422 377.691C813.964 380.446 816.916 384.087 819.278 388.614C821.64 393.075 822.82 398.52 822.82 404.949ZM969.246 476.095H876.943C874.581 476.095 872.022 475.832 869.267 475.307C866.577 474.717 863.888 473.831 861.198 472.651C858.574 471.47 856.048 469.961 853.621 468.124C851.194 466.222 849.029 463.958 847.126 461.334C845.289 458.644 843.813 455.561 842.698 452.084C841.583 448.542 841.025 444.573 841.025 440.177V370.901C841.025 368.539 841.288 366.013 841.812 363.324C842.403 360.568 843.289 357.879 844.469 355.255C845.65 352.565 847.192 350.006 849.094 347.579C850.997 345.152 853.26 343.02 855.884 341.183C858.574 339.28 861.657 337.772 865.134 336.656C868.611 335.541 872.547 334.983 876.943 334.983H969.246V360.568H876.943C873.597 360.568 871.038 361.454 869.267 363.225C867.496 364.997 866.61 367.621 866.61 371.098V440.177C866.61 443.457 867.496 446.016 869.267 447.853C871.104 449.624 873.663 450.51 876.943 450.51H969.246V476.095ZM1099.83 440.866C1099.83 444.409 1099.2 448.246 1097.96 452.379C1096.71 456.447 1094.68 460.252 1091.86 463.794C1089.1 467.271 1085.46 470.19 1080.93 472.552C1076.47 474.914 1071.03 476.095 1064.6 476.095H1018.45C1014.91 476.095 1011.07 475.472 1006.93 474.225C1002.87 472.979 999.062 470.978 995.519 468.222C992.043 465.401 989.123 461.761 986.761 457.3C984.4 452.773 983.219 447.295 983.219 440.866C983.219 437.324 983.842 433.486 985.089 429.353C986.335 425.22 988.336 421.415 991.091 417.938C993.912 414.395 997.553 411.443 1002.01 409.082C1006.54 406.72 1012.02 405.539 1018.45 405.539H1064.6V429.943H1018.45C1014.97 429.943 1012.28 431.026 1010.38 433.191C1008.48 435.29 1007.52 437.914 1007.52 441.063C1007.52 444.409 1008.61 447.033 1010.77 448.935C1013 450.772 1015.63 451.691 1018.64 451.691H1064.6C1068.08 451.691 1070.77 450.641 1072.67 448.542C1074.57 446.442 1075.52 443.818 1075.52 440.669V404.949C1075.52 401.603 1074.47 398.946 1072.37 396.978C1070.34 395.01 1067.75 394.026 1064.6 394.026H1008.41V369.72H1064.6C1068.14 369.72 1071.95 370.343 1076.01 371.59C1080.15 372.836 1083.95 374.87 1087.43 377.691C1090.97 380.446 1093.92 384.087 1096.29 388.614C1098.65 393.075 1099.83 398.52 1099.83 404.949V440.866ZM1224.51 440.177C1224.51 444.573 1223.95 448.542 1222.83 452.084C1221.72 455.561 1220.24 458.644 1218.4 461.334C1216.57 463.958 1214.44 466.222 1212.01 468.124C1209.58 469.961 1207.02 471.47 1204.33 472.651C1201.71 473.831 1199.02 474.717 1196.26 475.307C1193.57 475.832 1191.02 476.095 1188.59 476.095H1119.31V450.51H1188.39C1191.87 450.51 1194.49 449.624 1196.26 447.853C1198.03 446.082 1198.92 443.523 1198.92 440.177C1198.59 433.355 1195.15 429.943 1188.59 429.943H1148.93C1143.29 429.943 1138.5 428.959 1134.56 426.991C1130.63 425.023 1127.41 422.563 1124.92 419.611C1122.49 416.659 1120.72 413.477 1119.61 410.066C1118.56 406.654 1118.03 403.473 1118.03 400.52C1118.03 394.813 1119.05 390.024 1121.08 386.153C1123.12 382.217 1125.68 379.036 1128.76 376.608C1131.84 374.181 1135.19 372.443 1138.8 371.393C1142.4 370.278 1145.78 369.72 1148.93 369.72H1211.81V395.305H1149.13C1147.82 395.305 1146.77 395.469 1145.98 395.797C1145.26 396.059 1144.7 396.453 1144.31 396.978C1143.98 397.437 1143.78 397.962 1143.72 398.552C1143.65 399.077 1143.62 399.602 1143.62 400.127C1143.68 401.176 1143.88 401.997 1144.21 402.587C1144.54 403.177 1144.93 403.604 1145.39 403.866C1145.91 404.129 1146.47 404.293 1147.06 404.358C1147.72 404.358 1148.34 404.358 1148.93 404.358H1188.59C1195.15 404.358 1200.72 405.539 1205.32 407.901C1209.91 410.262 1213.62 413.247 1216.44 416.856C1219.26 420.398 1221.29 424.269 1222.54 428.467C1223.85 432.666 1224.51 436.569 1224.51 440.177ZM1337.47 395.305H1292.8V476.095H1266.92V395.305H1233.66V369.72H1266.92V334.983H1292.8V369.72H1337.47V395.305Z" fill="black"/>
<rect x="61" y="436.959" width="4.5" height="112" fill="black"/>
<rect x="90.5" y="382.959" width="4.5" height="166" fill="black"/>
<rect x="120" y="347.959" width="4.5" height="201" fill="black"/>
<rect x="150.5" y="328.459" width="4.5" height="220.5" fill="black"/>
<rect x="180" y="347.959" width="4.5" height="201" fill="black"/>
<rect x="209.5" y="379.959" width="4.5" height="166" fill="black"/>
<rect x="235.5" y="424.959" width="4.5" height="124" fill="black"/>
<rect x="261.5" y="490.459" width="4.5" height="58.5" fill="black"/>
<rect x="500.5" y="605.959" width="4.5" height="60.5" transform="rotate(-180 500.5 605.959)" fill="black"/>
<rect x="471" y="659.959" width="4.5" height="114.5" transform="rotate(-180 471 659.959)" fill="black"/>
<rect x="441.5" y="694.959" width="4.5" height="149" transform="rotate(-180 441.5 694.959)" fill="black"/>
<rect x="411" y="714.459" width="4.5" height="168.5" transform="rotate(-180 411 714.459)" fill="black"/>
<rect x="381.5" y="694.959" width="4.5" height="149" transform="rotate(-180 381.5 694.959)" fill="black"/>
<rect x="352" y="662.959" width="4.5" height="117.5" transform="rotate(-180 352 662.959)" fill="black"/>
<rect x="326" y="617.959" width="4.5" height="72.5" transform="rotate(-180 326 617.959)" fill="black"/>
<path d="M6 543.459H532V554.959H6V543.459Z" fill="black"/>
<path d="M562.555 550.833V548.126H580.32V550.833H562.555ZM579.574 550.833V548.126H602.26V550.833H579.574ZM616.516 550.833H601.514V548.126H616.516V550.833ZM609.399 538.338L619.351 549.479L609.399 560.621L607.13 558.682L612.344 552.937C612.844 552.401 613.247 551.986 613.552 551.693C613.857 551.4 614.235 551.114 614.686 550.833V548.126C614.235 547.845 613.857 547.558 613.552 547.266C613.247 546.973 612.844 546.558 612.344 546.022L607.13 540.277L609.399 538.338ZM656.736 535.337C659.456 535.337 661.511 536.459 662.902 538.704C664.292 540.948 664.987 544.156 664.987 548.327C664.987 552.51 664.292 555.73 662.902 557.987C661.511 560.231 659.456 561.353 656.736 561.353C654.029 561.353 651.973 560.231 650.571 557.987C649.18 555.73 648.485 552.51 648.485 548.327C648.485 544.156 649.18 540.948 650.571 538.704C651.973 536.459 654.029 535.337 656.736 535.337ZM656.736 537.807C655.187 537.807 653.968 538.63 653.077 540.277C652.187 541.911 651.742 544.595 651.742 548.327C651.742 550.217 651.839 551.833 652.034 553.175C652.23 554.517 652.528 555.608 652.931 556.45C653.346 557.279 653.864 557.889 654.486 558.279C655.12 558.67 655.87 558.865 656.736 558.865C657.785 558.865 658.682 558.505 659.426 557.785C660.182 557.066 660.755 555.931 661.145 554.382C661.548 552.821 661.749 550.803 661.749 548.327C661.749 545.814 661.572 543.784 661.219 542.235C660.877 540.686 660.334 539.563 659.59 538.868C658.858 538.161 657.907 537.807 656.736 537.807ZM660.45 538.704L661.255 541.393L653.242 557.621L652.108 555.48L660.45 538.704ZM681.365 535.74V560.2H678.292V539.07L672.511 542.582L671.175 540.387L678.676 535.74H681.365ZM686.634 558.426V560.932H672.09V558.426H686.634ZM703.305 535.74V560.2H700.232V539.07L694.45 542.582L693.115 540.387L700.616 535.74H703.305ZM708.574 558.426V560.932H694.03V558.426H708.574ZM722.556 535.337C725.276 535.337 727.331 536.459 728.721 538.704C730.112 540.948 730.807 544.156 730.807 548.327C730.807 552.51 730.112 555.73 728.721 557.987C727.331 560.231 725.276 561.353 722.556 561.353C719.848 561.353 717.793 560.231 716.39 557.987C715 555.73 714.305 552.51 714.305 548.327C714.305 544.156 715 540.948 716.39 538.704C717.793 536.459 719.848 535.337 722.556 535.337ZM722.556 537.807C721.007 537.807 719.787 538.63 718.897 540.277C718.006 541.911 717.561 544.595 717.561 548.327C717.561 550.217 717.659 551.833 717.854 553.175C718.049 554.517 718.348 555.608 718.75 556.45C719.165 557.279 719.683 557.889 720.305 558.279C720.94 558.67 721.69 558.865 722.556 558.865C723.605 558.865 724.501 558.505 725.245 557.785C726.001 557.066 726.574 555.931 726.965 554.382C727.367 552.821 727.569 550.803 727.569 548.327C727.569 545.814 727.392 543.784 727.038 542.235C726.696 540.686 726.154 539.563 725.41 538.868C724.678 538.161 723.727 537.807 722.556 537.807ZM726.27 538.704L727.075 541.393L719.061 557.621L717.927 555.48L726.27 538.704ZM747.185 535.74V560.2H744.111V539.07L738.33 542.582L736.994 540.387L744.495 535.74H747.185ZM752.454 558.426V560.932H737.909V558.426H752.454ZM766.435 535.337C769.155 535.337 771.21 536.459 772.601 538.704C773.991 540.948 774.686 544.156 774.686 548.327C774.686 552.51 773.991 555.73 772.601 557.987C771.21 560.231 769.155 561.353 766.435 561.353C763.728 561.353 761.672 560.231 760.27 557.987C758.879 555.73 758.184 552.51 758.184 548.327C758.184 544.156 758.879 540.948 760.27 538.704C761.672 536.459 763.728 535.337 766.435 535.337ZM766.435 537.807C764.886 537.807 763.667 538.63 762.776 540.277C761.886 541.911 761.441 544.595 761.441 548.327C761.441 550.217 761.538 551.833 761.733 553.175C761.929 554.517 762.227 555.608 762.63 556.45C763.045 557.279 763.563 557.889 764.185 558.279C764.819 558.67 765.569 558.865 766.435 558.865C767.484 558.865 768.381 558.505 769.125 557.785C769.881 557.066 770.454 555.931 770.844 554.382C771.247 552.821 771.448 550.803 771.448 548.327C771.448 545.814 771.271 543.784 770.918 542.235C770.576 540.686 770.033 539.563 769.289 538.868C768.558 538.161 767.606 537.807 766.435 537.807ZM770.149 538.704L770.954 541.393L762.941 557.621L761.807 555.48L770.149 538.704ZM791.064 535.74V560.2H787.991V539.07L782.21 542.582L780.874 540.387L788.375 535.74H791.064ZM796.333 558.426V560.932H781.789V558.426H796.333ZM813.004 535.74V560.2H809.931V539.07L804.149 542.582L802.814 540.387L810.315 535.74H813.004ZM818.273 558.426V560.932H803.729V558.426H818.273ZM856.884 535.74V560.2H853.81V539.07L848.029 542.582L846.694 540.387L854.195 535.74H856.884ZM862.153 558.426V560.932H847.608V558.426H862.153ZM876.134 535.337C878.854 535.337 880.909 536.459 882.3 538.704C883.69 540.948 884.385 544.156 884.385 548.327C884.385 552.51 883.69 555.73 882.3 557.987C880.909 560.231 878.854 561.353 876.134 561.353C873.427 561.353 871.371 560.231 869.969 557.987C868.578 555.73 867.883 552.51 867.883 548.327C867.883 544.156 868.578 540.948 869.969 538.704C871.371 536.459 873.427 535.337 876.134 535.337ZM876.134 537.807C874.585 537.807 873.366 538.63 872.475 540.277C871.585 541.911 871.14 544.595 871.14 548.327C871.14 550.217 871.237 551.833 871.432 553.175C871.628 554.517 871.926 555.608 872.329 556.45C872.744 557.279 873.262 557.889 873.884 558.279C874.518 558.67 875.268 558.865 876.134 558.865C877.183 558.865 878.08 558.505 878.824 557.785C879.58 557.066 880.153 555.931 880.543 554.382C880.946 552.821 881.147 550.803 881.147 548.327C881.147 545.814 880.97 543.784 880.617 542.235C880.275 540.686 879.732 539.563 878.988 538.868C878.257 538.161 877.305 537.807 876.134 537.807ZM879.848 538.704L880.653 541.393L872.64 557.621L871.506 555.48L879.848 538.704ZM900.763 535.74V560.2H897.69V539.07L891.909 542.582L890.573 540.387L898.074 535.74H900.763ZM906.032 558.426V560.932H891.488V558.426H906.032ZM922.703 535.74V560.2H919.63V539.07L913.848 542.582L912.513 540.387L920.014 535.74H922.703ZM927.972 558.426V560.932H913.428V558.426H927.972ZM941.954 535.337C944.674 535.337 946.729 536.459 948.119 538.704C949.51 540.948 950.205 544.156 950.205 548.327C950.205 552.51 949.51 555.73 948.119 557.987C946.729 560.231 944.674 561.353 941.954 561.353C939.246 561.353 937.191 560.231 935.788 557.987C934.398 555.73 933.703 552.51 933.703 548.327C933.703 544.156 934.398 540.948 935.788 538.704C937.191 536.459 939.246 535.337 941.954 535.337ZM941.954 537.807C940.405 537.807 939.185 538.63 938.295 540.277C937.404 541.911 936.959 544.595 936.959 548.327C936.959 550.217 937.057 551.833 937.252 553.175C937.447 554.517 937.746 555.608 938.148 556.45C938.563 557.279 939.081 557.889 939.703 558.279C940.338 558.67 941.088 558.865 941.954 558.865C943.003 558.865 943.899 558.505 944.643 557.785C945.399 557.066 945.973 555.931 946.363 554.382C946.765 552.821 946.967 550.803 946.967 548.327C946.967 545.814 946.79 543.784 946.436 542.235C946.095 540.686 945.552 539.563 944.808 538.868C944.076 538.161 943.125 537.807 941.954 537.807ZM945.668 538.704L946.473 541.393L938.459 557.621L937.325 555.48L945.668 538.704ZM966.583 535.74V560.2H963.509V539.07L957.728 542.582L956.393 540.387L963.894 535.74H966.583ZM971.852 558.426V560.932H957.307V558.426H971.852ZM985.833 535.337C988.553 535.337 990.608 536.459 991.999 538.704C993.389 540.948 994.084 544.156 994.084 548.327C994.084 552.51 993.389 555.73 991.999 557.987C990.608 560.231 988.553 561.353 985.833 561.353C983.126 561.353 981.07 560.231 979.668 557.987C978.277 555.73 977.582 552.51 977.582 548.327C977.582 544.156 978.277 540.948 979.668 538.704C981.07 536.459 983.126 535.337 985.833 535.337ZM985.833 537.807C984.284 537.807 983.065 538.63 982.174 540.277C981.284 541.911 980.839 544.595 980.839 548.327C980.839 550.217 980.936 551.833 981.131 553.175C981.327 554.517 981.625 555.608 982.028 556.45C982.443 557.279 982.961 557.889 983.583 558.279C984.217 558.67 984.967 558.865 985.833 558.865C986.882 558.865 987.779 558.505 988.523 557.785C989.279 557.066 989.852 555.931 990.242 554.382C990.645 552.821 990.846 550.803 990.846 548.327C990.846 545.814 990.669 543.784 990.316 542.235C989.974 540.686 989.431 539.563 988.687 538.868C987.956 538.161 987.004 537.807 985.833 537.807ZM989.547 538.704L990.352 541.393L982.339 557.621L981.205 555.48L989.547 538.704ZM1007.77 535.337C1010.49 535.337 1012.55 536.459 1013.94 538.704C1015.33 540.948 1016.02 544.156 1016.02 548.327C1016.02 552.51 1015.33 555.73 1013.94 557.987C1012.55 560.231 1010.49 561.353 1007.77 561.353C1005.07 561.353 1003.01 560.231 1001.61 557.987C1000.22 555.73 999.522 552.51 999.522 548.327C999.522 544.156 1000.22 540.948 1001.61 538.704C1003.01 536.459 1005.07 535.337 1007.77 535.337ZM1007.77 537.807C1006.22 537.807 1005 538.63 1004.11 540.277C1003.22 541.911 1002.78 544.595 1002.78 548.327C1002.78 550.217 1002.88 551.833 1003.07 553.175C1003.27 554.517 1003.57 555.608 1003.97 556.45C1004.38 557.279 1004.9 557.889 1005.52 558.279C1006.16 558.67 1006.91 558.865 1007.77 558.865C1008.82 558.865 1009.72 558.505 1010.46 557.785C1011.22 557.066 1011.79 555.931 1012.18 554.382C1012.58 552.821 1012.79 550.803 1012.79 548.327C1012.79 545.814 1012.61 543.784 1012.26 542.235C1011.91 540.686 1011.37 539.563 1010.63 538.868C1009.9 538.161 1008.94 537.807 1007.77 537.807ZM1011.49 538.704L1012.29 541.393L1004.28 557.621L1003.14 555.48L1011.49 538.704ZM1054.34 535.74V560.2H1051.27V539.07L1045.49 542.582L1044.15 540.387L1051.65 535.74H1054.34ZM1059.61 558.426V560.932H1045.07V558.426H1059.61ZM1076.28 535.74V560.2H1073.21V539.07L1067.43 542.582L1066.09 540.387L1073.59 535.74H1076.28ZM1081.55 558.426V560.932H1067.01V558.426H1081.55ZM1095.53 535.337C1098.25 535.337 1100.31 536.459 1101.7 538.704C1103.09 540.948 1103.78 544.156 1103.78 548.327C1103.78 552.51 1103.09 555.73 1101.7 557.987C1100.31 560.231 1098.25 561.353 1095.53 561.353C1092.82 561.353 1090.77 560.231 1089.37 557.987C1087.98 555.73 1087.28 552.51 1087.28 548.327C1087.28 544.156 1087.98 540.948 1089.37 538.704C1090.77 536.459 1092.82 535.337 1095.53 535.337ZM1095.53 537.807C1093.98 537.807 1092.76 538.63 1091.87 540.277C1090.98 541.911 1090.54 544.595 1090.54 548.327C1090.54 550.217 1090.64 551.833 1090.83 553.175C1091.03 554.517 1091.32 555.608 1091.73 556.45C1092.14 557.279 1092.66 557.889 1093.28 558.279C1093.92 558.67 1094.67 558.865 1095.53 558.865C1096.58 558.865 1097.48 558.505 1098.22 557.785C1098.98 557.066 1099.55 555.931 1099.94 554.382C1100.34 552.821 1100.55 550.803 1100.55 548.327C1100.55 545.814 1100.37 543.784 1100.01 542.235C1099.67 540.686 1099.13 539.563 1098.39 538.868C1097.65 538.161 1096.7 537.807 1095.53 537.807ZM1099.25 538.704L1100.05 541.393L1092.04 557.621L1090.9 555.48L1099.25 538.704ZM1117.47 535.337C1120.19 535.337 1122.25 536.459 1123.64 538.704C1125.03 540.948 1125.72 544.156 1125.72 548.327C1125.72 552.51 1125.03 555.73 1123.64 557.987C1122.25 560.231 1120.19 561.353 1117.47 561.353C1114.76 561.353 1112.71 560.231 1111.31 557.987C1109.92 555.73 1109.22 552.51 1109.22 548.327C1109.22 544.156 1109.92 540.948 1111.31 538.704C1112.71 536.459 1114.76 535.337 1117.47 535.337ZM1117.47 537.807C1115.92 537.807 1114.7 538.63 1113.81 540.277C1112.92 541.911 1112.48 544.595 1112.48 548.327C1112.48 550.217 1112.58 551.833 1112.77 553.175C1112.97 554.517 1113.26 555.608 1113.67 556.45C1114.08 557.279 1114.6 557.889 1115.22 558.279C1115.86 558.67 1116.61 558.865 1117.47 558.865C1118.52 558.865 1119.42 558.505 1120.16 557.785C1120.92 557.066 1121.49 555.931 1121.88 554.382C1122.28 552.821 1122.49 550.803 1122.49 548.327C1122.49 545.814 1122.31 543.784 1121.95 542.235C1121.61 540.686 1121.07 539.563 1120.33 538.868C1119.59 538.161 1118.64 537.807 1117.47 537.807ZM1121.19 538.704L1121.99 541.393L1113.98 557.621L1112.84 555.48L1121.19 538.704ZM1139.41 535.337C1142.13 535.337 1144.19 536.459 1145.58 538.704C1146.97 540.948 1147.66 544.156 1147.66 548.327C1147.66 552.51 1146.97 555.73 1145.58 557.987C1144.19 560.231 1142.13 561.353 1139.41 561.353C1136.7 561.353 1134.65 560.231 1133.25 557.987C1131.86 555.73 1131.16 552.51 1131.16 548.327C1131.16 544.156 1131.86 540.948 1133.25 538.704C1134.65 536.459 1136.7 535.337 1139.41 535.337ZM1139.41 537.807C1137.86 537.807 1136.64 538.63 1135.75 540.277C1134.86 541.911 1134.42 544.595 1134.42 548.327C1134.42 550.217 1134.52 551.833 1134.71 553.175C1134.91 554.517 1135.2 555.608 1135.61 556.45C1136.02 557.279 1136.54 557.889 1137.16 558.279C1137.8 558.67 1138.55 558.865 1139.41 558.865C1140.46 558.865 1141.36 558.505 1142.1 557.785C1142.86 557.066 1143.43 555.931 1143.82 554.382C1144.22 552.821 1144.42 550.803 1144.42 548.327C1144.42 545.814 1144.25 543.784 1143.89 542.235C1143.55 540.686 1143.01 539.563 1142.27 538.868C1141.53 538.161 1140.58 537.807 1139.41 537.807ZM1143.13 538.704L1143.93 541.393L1135.92 557.621L1134.78 555.48L1143.13 538.704ZM1161.35 535.337C1164.07 535.337 1166.13 536.459 1167.52 538.704C1168.91 540.948 1169.6 544.156 1169.6 548.327C1169.6 552.51 1168.91 555.73 1167.52 557.987C1166.13 560.231 1164.07 561.353 1161.35 561.353C1158.64 561.353 1156.59 560.231 1155.19 557.987C1153.8 555.73 1153.1 552.51 1153.1 548.327C1153.1 544.156 1153.8 540.948 1155.19 538.704C1156.59 536.459 1158.64 535.337 1161.35 535.337ZM1161.35 537.807C1159.8 537.807 1158.58 538.63 1157.69 540.277C1156.8 541.911 1156.36 544.595 1156.36 548.327C1156.36 550.217 1156.45 551.833 1156.65 553.175C1156.85 554.517 1157.14 555.608 1157.55 556.45C1157.96 557.279 1158.48 557.889 1159.1 558.279C1159.74 558.67 1160.49 558.865 1161.35 558.865C1162.4 558.865 1163.3 558.505 1164.04 557.785C1164.8 557.066 1165.37 555.931 1165.76 554.382C1166.16 552.821 1166.36 550.803 1166.36 548.327C1166.36 545.814 1166.19 543.784 1165.83 542.235C1165.49 540.686 1164.95 539.563 1164.21 538.868C1163.47 538.161 1162.52 537.807 1161.35 537.807ZM1165.07 538.704L1165.87 541.393L1157.86 557.621L1156.72 555.48L1165.07 538.704ZM1185.98 535.74V560.2H1182.91V539.07L1177.13 542.582L1175.79 540.387L1183.29 535.74H1185.98ZM1191.25 558.426V560.932H1176.71V558.426H1191.25ZM1207.92 535.74V560.2H1204.85V539.07L1199.07 542.582L1197.73 540.387L1205.23 535.74H1207.92ZM1213.19 558.426V560.932H1198.65V558.426H1213.19ZM1249.11 535.337C1251.83 535.337 1253.89 536.459 1255.28 538.704C1256.67 540.948 1257.36 544.156 1257.36 548.327C1257.36 552.51 1256.67 555.73 1255.28 557.987C1253.89 560.231 1251.83 561.353 1249.11 561.353C1246.4 561.353 1244.35 560.231 1242.95 557.987C1241.56 555.73 1240.86 552.51 1240.86 548.327C1240.86 544.156 1241.56 540.948 1242.95 538.704C1244.35 536.459 1246.4 535.337 1249.11 535.337ZM1249.11 537.807C1247.56 537.807 1246.34 538.63 1245.45 540.277C1244.56 541.911 1244.12 544.595 1244.12 548.327C1244.12 550.217 1244.21 551.833 1244.41 553.175C1244.6 554.517 1244.9 555.608 1245.31 556.45C1245.72 557.279 1246.24 557.889 1246.86 558.279C1247.49 558.67 1248.24 558.865 1249.11 558.865C1250.16 558.865 1251.06 558.505 1251.8 557.785C1252.56 557.066 1253.13 555.931 1253.52 554.382C1253.92 552.821 1254.12 550.803 1254.12 548.327C1254.12 545.814 1253.95 543.784 1253.59 542.235C1253.25 540.686 1252.71 539.563 1251.96 538.868C1251.23 538.161 1250.28 537.807 1249.11 537.807ZM1252.82 538.704L1253.63 541.393L1245.62 557.621L1244.48 555.48L1252.82 538.704ZM1271.05 535.337C1273.77 535.337 1275.83 536.459 1277.22 538.704C1278.61 540.948 1279.3 544.156 1279.3 548.327C1279.3 552.51 1278.61 555.73 1277.22 557.987C1275.83 560.231 1273.77 561.353 1271.05 561.353C1268.34 561.353 1266.29 560.231 1264.89 557.987C1263.49 555.73 1262.8 552.51 1262.8 548.327C1262.8 544.156 1263.49 540.948 1264.89 538.704C1266.29 536.459 1268.34 535.337 1271.05 535.337ZM1271.05 537.807C1269.5 537.807 1268.28 538.63 1267.39 540.277C1266.5 541.911 1266.06 544.595 1266.06 548.327C1266.06 550.217 1266.15 551.833 1266.35 553.175C1266.54 554.517 1266.84 555.608 1267.25 556.45C1267.66 557.279 1268.18 557.889 1268.8 558.279C1269.43 558.67 1270.18 558.865 1271.05 558.865C1272.1 558.865 1273 558.505 1273.74 557.785C1274.5 557.066 1275.07 555.931 1275.46 554.382C1275.86 552.821 1276.06 550.803 1276.06 548.327C1276.06 545.814 1275.89 543.784 1275.53 542.235C1275.19 540.686 1274.65 539.563 1273.9 538.868C1273.17 538.161 1272.22 537.807 1271.05 537.807ZM1274.76 538.704L1275.57 541.393L1267.56 557.621L1266.42 555.48L1274.76 538.704ZM1292.99 535.337C1295.71 535.337 1297.77 536.459 1299.16 538.704C1300.55 540.948 1301.24 544.156 1301.24 548.327C1301.24 552.51 1300.55 555.73 1299.16 557.987C1297.77 560.231 1295.71 561.353 1292.99 561.353C1290.28 561.353 1288.23 560.231 1286.83 557.987C1285.43 555.73 1284.74 552.51 1284.74 548.327C1284.74 544.156 1285.43 540.948 1286.83 538.704C1288.23 536.459 1290.28 535.337 1292.99 535.337ZM1292.99 537.807C1291.44 537.807 1290.22 538.63 1289.33 540.277C1288.44 541.911 1288 544.595 1288 548.327C1288 550.217 1288.09 551.833 1288.29 553.175C1288.48 554.517 1288.78 555.608 1289.19 556.45C1289.6 557.279 1290.12 557.889 1290.74 558.279C1291.37 558.67 1292.12 558.865 1292.99 558.865C1294.04 558.865 1294.94 558.505 1295.68 557.785C1296.44 557.066 1297.01 555.931 1297.4 554.382C1297.8 552.821 1298 550.803 1298 548.327C1298 545.814 1297.83 543.784 1297.47 542.235C1297.13 540.686 1296.59 539.563 1295.84 538.868C1295.11 538.161 1294.16 537.807 1292.99 537.807ZM1296.7 538.704L1297.51 541.393L1289.5 557.621L1288.36 555.48L1296.7 538.704ZM1317.62 535.74V560.2H1314.55V539.07L1308.76 542.582L1307.43 540.387L1314.93 535.74H1317.62ZM1322.89 558.426V560.932H1308.34V558.426H1322.89ZM1339.56 535.74V560.2H1336.49V539.07L1330.7 542.582L1329.37 540.387L1336.87 535.74H1339.56ZM1344.83 558.426V560.932H1330.28V558.426H1344.83ZM1358.81 535.337C1361.53 535.337 1363.59 536.459 1364.98 538.704C1366.37 540.948 1367.06 544.156 1367.06 548.327C1367.06 552.51 1366.37 555.73 1364.98 557.987C1363.59 560.231 1361.53 561.353 1358.81 561.353C1356.1 561.353 1354.05 560.231 1352.64 557.987C1351.25 555.73 1350.56 552.51 1350.56 548.327C1350.56 544.156 1351.25 540.948 1352.64 538.704C1354.05 536.459 1356.1 535.337 1358.81 535.337ZM1358.81 537.807C1357.26 537.807 1356.04 538.63 1355.15 540.277C1354.26 541.911 1353.82 544.595 1353.82 548.327C1353.82 550.217 1353.91 551.833 1354.11 553.175C1354.3 554.517 1354.6 555.608 1355 556.45C1355.42 557.279 1355.94 557.889 1356.56 558.279C1357.19 558.67 1357.94 558.865 1358.81 558.865C1359.86 558.865 1360.76 558.505 1361.5 557.785C1362.26 557.066 1362.83 555.931 1363.22 554.382C1363.62 552.821 1363.82 550.803 1363.82 548.327C1363.82 545.814 1363.65 543.784 1363.29 542.235C1362.95 540.686 1362.41 539.563 1361.66 538.868C1360.93 538.161 1359.98 537.807 1358.81 537.807ZM1362.52 538.704L1363.33 541.393L1355.32 557.621L1354.18 555.48L1362.52 538.704ZM1383.44 535.74V560.2H1380.37V539.07L1374.58 542.582L1373.25 540.387L1380.75 535.74H1383.44ZM1388.71 558.426V560.932H1374.16V558.426H1388.71ZM1402.69 535.337C1405.41 535.337 1407.46 536.459 1408.86 538.704C1410.25 540.948 1410.94 544.156 1410.94 548.327C1410.94 552.51 1410.25 555.73 1408.86 557.987C1407.46 560.231 1405.41 561.353 1402.69 561.353C1399.98 561.353 1397.93 560.231 1396.52 557.987C1395.13 555.73 1394.44 552.51 1394.44 548.327C1394.44 544.156 1395.13 540.948 1396.52 538.704C1397.93 536.459 1399.98 535.337 1402.69 535.337ZM1402.69 537.807C1401.14 537.807 1399.92 538.63 1399.03 540.277C1398.14 541.911 1397.7 544.595 1397.7 548.327C1397.7 550.217 1397.79 551.833 1397.99 553.175C1398.18 554.517 1398.48 555.608 1398.88 556.45C1399.3 557.279 1399.82 557.889 1400.44 558.279C1401.07 558.67 1401.82 558.865 1402.69 558.865C1403.74 558.865 1404.63 558.505 1405.38 557.785C1406.14 557.066 1406.71 555.931 1407.1 554.382C1407.5 552.821 1407.7 550.803 1407.7 548.327C1407.7 545.814 1407.53 543.784 1407.17 542.235C1406.83 540.686 1406.29 539.563 1405.54 538.868C1404.81 538.161 1403.86 537.807 1402.69 537.807ZM1406.4 538.704L1407.21 541.393L1399.2 557.621L1398.06 555.48L1406.4 538.704Z" fill="black"/>
</svg>
