<svg width="2857" height="1444" viewBox="0 0 2857 1444" fill="none" xmlns="http://www.w3.org/2000/svg">
<path d="M2039.22 3.22841C1976.07 13.157 1901.81 45.7227 1843.83 89.0113C1826.75 102.117 1779.09 145.803 1737.39 186.311C1696.09 226.82 1653.99 265.343 1644.06 272.094C1629.77 282.023 1594.42 297.114 1586.48 297.114C1585.29 297.114 1581.71 291.554 1578.14 284.406C1569.8 268.52 1572.58 242.706 1586.48 202.197C1598.39 166.454 1598.79 152.157 1588.46 135.08C1578.93 119.591 1541.2 100.528 1512.21 96.557C1493.94 93.777 1493.15 94.1741 1486.4 106.088C1477.26 121.974 1472.89 121.577 1475.67 105.294C1480.84 79.4798 1500.69 61.2113 1530.08 56.4456C1538.03 54.857 1544.78 52.077 1544.78 49.6941C1544.78 43.3398 1504.67 50.4884 1482.43 61.2113C1463.76 70.3456 1429.61 102.514 1429.61 110.854C1429.61 112.84 1428.02 114.428 1425.63 114.428C1417.29 114.428 1421.66 91.3941 1431.99 81.0684C1439.93 73.5227 1441.12 70.7427 1436.36 70.7427C1425.24 70.7427 1405.78 94.1741 1403.39 110.854C1401.01 124.754 1399.03 126.74 1385.13 131.108C1374.8 134.286 1371.23 137.066 1374.01 139.846C1375.99 141.831 1377.98 145.406 1377.98 146.994C1377.98 152.554 1341.04 174 1331.51 174C1319.99 174 1313.24 187.106 1316.42 202.197C1319.6 216.097 1320.39 216.097 1334.69 203.786C1346.21 194.254 1372.02 186.708 1376.79 191.474C1380.76 195.446 1370.03 205.374 1355.74 209.743C1348.19 212.126 1342.23 215.7 1342.23 217.686C1342.23 224.834 1356.93 223.643 1379.57 214.508C1398.63 206.566 1407.37 205.374 1425.24 207.36C1450.65 210.14 1464.55 204.977 1471.7 190.283C1478.06 177.971 1474.88 170.426 1462.97 167.646C1457.8 166.454 1453.43 163.674 1453.43 161.688C1453.43 155.334 1468.92 157.717 1476.47 165.263C1482.82 171.617 1484.01 171.617 1493.94 166.057C1514.2 154.937 1527.7 173.603 1515.39 196.637C1512.21 202.594 1497.52 222.054 1482.82 239.528C1457.01 270.506 1437.55 303.866 1437.55 318.163C1437.55 335.24 1459.39 360.657 1474.09 360.657C1483.62 360.657 1530.88 336.034 1525.71 334.048C1522.54 332.857 1509.83 334.048 1497.12 336.828C1469.32 342.786 1463.76 341.197 1458.2 325.708C1453.04 310.22 1463.36 286.788 1489.18 257.003C1530.08 209.743 1541.2 185.914 1531.27 166.454C1523.73 152.157 1516.98 149.377 1485.6 148.583C1464.95 147.788 1458.6 148.98 1452.24 155.334C1446.68 160.894 1445.89 164.071 1449.07 167.248C1451.45 169.631 1453.43 175.588 1453.43 180.751C1453.43 189.488 1452.24 189.886 1423.65 189.886C1395.05 189.886 1374.01 183.134 1374.01 173.603C1374.01 166.851 1414.91 126.343 1422.06 126.343C1426.03 126.343 1435.96 120.386 1443.9 113.634C1452.64 105.691 1459.39 102.514 1460.19 105.294C1460.98 107.677 1465.35 114.031 1469.72 118.797C1477.66 127.931 1478.06 127.931 1489.57 121.18C1505.86 112.046 1522.93 112.84 1546.76 123.96C1568.21 133.888 1580.52 148.186 1580.52 163.277C1580.52 168.44 1575.75 185.914 1570.19 202.197C1563.44 221.26 1559.47 240.72 1559.07 258.194C1558.68 282.42 1559.47 285.597 1570.19 296.717C1595.61 322.928 1637.71 304.66 1709.59 236.748C1742.95 205.374 1743.75 204.58 1737.39 219.671C1733.82 228.408 1729.85 237.94 1728.65 240.72C1727.46 243.5 1729.85 249.457 1733.82 253.826C1740.57 261.371 1740.57 261.768 1731.83 273.683C1726.67 280.434 1723.89 286.788 1725.08 287.98C1726.27 289.171 1746.13 278.846 1769.56 265.343C1965.75 150.568 2164.32 121.974 2343.03 181.546C2363.29 188.694 2380.76 193.46 2381.56 192.268C2383.94 190.283 2328.34 168.837 2293.39 158.908C2202.84 132.3 2091.25 129.52 1985.61 150.568C1906.18 166.454 1804.91 206.168 1753.67 241.117C1743.75 248.266 1735.41 253.031 1735.41 251.84C1735.41 244.691 1789.42 174.794 1816.42 146.994C1888.7 72.3313 1975.28 27.4541 2070.99 14.7456C2125 7.59698 2208.4 12.7598 2253.68 25.4684C2259.24 27.057 2260.43 26.6598 2257.65 23.8798C2243.35 8.78841 2094.42 -5.11159 2039.22 3.22841Z" fill="#D01232"/>
<path d="M1935.57 257.4C1864.48 262.165 1750.5 282.42 1731.44 293.54C1726.67 296.32 1727.07 297.511 1734.61 299.497C1745.34 302.674 1745.73 305.454 1735.41 314.191C1720.32 326.9 1727.86 327.694 1762.41 316.574C1855.34 285.994 1935.57 272.888 2030.88 272.888C2119.84 272.888 2191.72 282.42 2246.53 301.482C2270.76 309.822 2281.08 311.014 2271.55 305.057C2260.03 297.511 2190.14 276.462 2150.82 268.917C2115.47 262.165 2015 252.634 1989.58 254.222C1984.02 254.222 1959.79 255.811 1935.57 257.4Z" fill="#D01232"/>
<path d="M2417.3 269.314C2415.71 275.669 2406.98 289.569 2397.84 299.497C2379.18 319.751 2329.14 356.686 2320.4 356.686C2317.62 356.686 2315.24 358.671 2315.24 361.054C2315.24 363.437 2318.02 364.629 2321.19 363.04C2324.37 361.849 2339.46 359.863 2354.16 358.671L2380.76 356.289L2353.76 370.586C2323.97 386.471 2266.39 403.151 2228.66 406.726C2206.82 409.109 2204.04 408.711 2206.42 402.754C2209.6 394.414 2206.02 394.811 2179.02 403.946L2156.78 411.889L2155.58 402.357L2154.39 393.223L2131.76 402.357L2108.72 411.889V399.974C2108.72 393.62 2108.32 388.457 2107.93 388.457C2107.13 388.457 2095.22 392.031 2080.92 396.4C2066.62 400.769 2053.52 404.343 2051.53 404.343C2049.94 404.343 2049.15 397.989 2049.94 390.443C2050.74 382.5 2049.94 376.543 2047.16 376.543C2045.18 376.543 2031.28 381.706 2016.58 388.06C2001.49 394.414 1988.78 398.386 1987.59 396.4C1986.4 394.811 1989.98 385.28 1995.54 374.954C2000.7 365.026 2004.67 356.686 2004.27 356.686C2003.88 357.083 1984.02 363.04 1960.19 370.189C1936.36 377.337 1913.72 382.5 1909.75 381.706C1903.4 379.72 1904.59 377.337 1917.7 361.054C1938.74 336.034 1945.89 320.546 1945.89 300.291L1945.5 283.214L1939.14 295.129C1930.01 312.603 1921.67 320.943 1905.38 329.283C1883.14 340.403 1859.32 342.786 1837.87 335.637C1812.06 326.503 1783.06 323.326 1757.25 326.9C1722.7 330.871 1731.83 338.417 1775.52 341.197C1796.17 342.786 1823.18 347.154 1835.49 350.729C1854.15 356.686 1862.1 357.48 1880.36 353.906C1900.22 350.331 1902.21 350.729 1899.82 356.289C1893.87 370.983 1893.47 377.734 1898.24 386.074C1902.6 394.414 1901.02 398.386 1886.72 421.023C1877.58 435.32 1870.44 449.617 1870.44 453.191C1870.44 460.737 1887.51 473.049 1907.37 479.403C1919.68 483.771 1933.58 497.274 1929.21 501.643C1928.42 502.437 1913.72 501.246 1896.25 499.657C1849.39 494.494 1792.99 471.46 1760.03 443.263C1743.75 429.363 1734.22 429.363 1685.76 443.66C1638.9 457.56 1630.16 464.709 1636.92 482.58C1640.49 492.111 1640.49 497.671 1636.92 505.217C1630.96 518.72 1626.19 518.323 1620.24 504.026C1611.1 481.786 1590.05 465.106 1565.43 460.737C1538.03 455.971 1529.69 458.751 1514.2 478.211L1501.89 493.303L1487.59 482.58L1473.29 471.46L1483.22 458.354C1494.74 443.263 1495.14 437.306 1487.19 426.583C1476.47 412.683 1480.44 403.151 1505.46 378.529C1518.57 365.423 1531.28 351.523 1533.26 347.551C1537.23 340.8 1536.44 340.8 1528.1 345.169C1509.43 354.7 1480.84 377.734 1470.91 390.84C1459 405.931 1460.19 419.037 1473.69 432.54C1483.22 442.071 1481.24 445.646 1460.19 456.369C1446.29 463.517 1439.14 464.709 1414.91 462.723C1399.03 461.531 1385.92 462.326 1385.92 463.914C1385.92 468.283 1369.64 483.771 1365.27 483.771C1363.28 483.771 1362.89 481.786 1364.08 479.8C1371.23 468.283 1292.59 490.523 1280.68 503.629C1272.34 512.763 1276.31 513.557 1290.61 505.614C1296.17 502.437 1304.11 500.054 1308.48 499.657C1314.83 499.657 1313.24 502.04 1301.33 511.969C1284.65 525.471 1274.72 542.151 1274.72 556.051C1274.72 563.994 1275.51 563.597 1281.87 552.477C1288.22 540.166 1314.04 517.926 1317.61 521.103C1318.41 521.897 1317.21 526.266 1314.83 530.634C1308.48 542.946 1309.67 553.271 1318.41 563.597L1326.75 573.129L1324.36 560.817C1321.19 543.74 1327.94 529.046 1342.63 521.5C1354.55 515.146 1361.3 515.146 1385.52 521.897L1395.05 524.677L1385.92 512.366C1374.4 496.877 1377.58 489.331 1396.64 484.169C1433.18 473.843 1459.39 479.8 1491.16 505.217C1498.71 511.571 1505.86 515.94 1506.26 515.146C1507.05 514.351 1514.2 504.026 1522.94 492.509C1534.85 475.431 1539.62 471.857 1546.37 473.446C1551.13 474.637 1559.87 475.829 1566.22 475.829C1580.12 475.829 1608.32 502.437 1608.32 515.146C1608.32 519.911 1611.9 528.649 1616.26 534.606C1625.8 547.711 1630.16 569.554 1626.59 588.22L1624.21 601.723L1590.85 603.709C1565.83 605.297 1553.12 608.474 1540.41 615.226C1520.95 626.346 1513.4 637.863 1531.67 629.126C1537.63 625.949 1547.16 622.374 1552.32 620.786L1561.46 618.006L1552.32 630.317C1541.2 645.806 1544.78 650.174 1557.88 637.069C1563.44 631.906 1574.17 625.949 1582.51 624.36C1598.39 621.58 1641.68 623.963 1652.8 628.729C1663.13 632.7 1661.94 622.771 1650.02 606.886C1642.08 596.163 1640.09 588.617 1640.09 569.157C1640.09 540.96 1648.43 509.189 1659.95 494.494C1670.28 481.786 1669.88 480.594 1657.96 479.006C1652.4 478.211 1647.24 476.226 1646.84 474.24C1646.05 470.666 1723.89 444.454 1736.6 444.454C1740.57 444.057 1748.51 449.617 1754.07 455.971C1764.4 468.283 1820.4 497.671 1855.74 509.189C1866.07 512.763 1882.35 515.543 1891.48 515.543C1936.76 515.543 1979.25 535.797 2007.85 570.349C2037.63 606.886 2036.84 609.269 1996.73 607.68C1978.86 606.886 1957.01 607.283 1947.88 608.474C1931.2 611.254 1903.4 625.551 1907.77 629.523C1908.96 630.714 1912.53 629.523 1916.11 626.743C1919.28 623.963 1935.17 621.183 1951.06 620.389C1966.54 619.594 1976.08 619.991 1971.71 621.183C1962.57 623.963 1949.86 634.289 1949.86 639.054C1949.86 640.643 1955.82 639.849 1962.97 636.671C1988.39 625.949 2021.35 625.154 2054.31 634.289C2088.47 643.423 2096.81 644.614 2096.81 638.657C2096.81 636.274 2093.63 634.686 2089.66 634.686C2085.69 634.686 2078.54 631.906 2073.77 628.331C2065.04 622.374 2065.04 621.58 2070.99 614.829C2076.95 608.077 2076.95 607.283 2068.21 604.9C2048.75 598.943 2013.41 553.271 2013.41 533.811C2013.41 530.237 2005.86 526.266 1993.15 523.486C1971.31 518.323 1937.95 491.317 1937.95 479.006C1937.95 474.637 1928.82 469.871 1908.16 463.517C1885.92 456.369 1879.57 453.191 1883.54 450.014C1893.47 442.469 1902.21 426.186 1902.21 415.463C1902.21 409.109 1904.19 404.343 1906.58 404.343C1910.55 404.343 1910.15 419.831 1905.78 436.114C1903.8 444.057 1935.96 446.837 2027.7 447.631C2162.34 448.426 2268.37 430.157 2341.05 393.223C2354.16 386.869 2369.25 376.543 2374.81 370.586L2384.74 359.863L2386.72 377.337L2388.71 394.414L2400.22 375.351C2418.89 343.977 2429.22 302.674 2426.83 266.137C2426.04 253.429 2420.08 255.414 2417.3 269.314ZM2399.03 341.594C2396.25 349.537 2393.08 351.523 2387.12 349.934C2375.6 347.154 2376.79 338.814 2389.9 329.68C2402.21 320.546 2405.39 324.914 2399.03 341.594ZM1978.86 398.386L1992.76 411.889L2011.82 406.329C2029.29 401.166 2030.88 401.166 2043.99 409.903C2055.9 418.243 2059.08 418.64 2074.96 415.066C2089.66 411.889 2094.03 412.286 2103.56 418.243C2113.49 424.994 2113.88 425.789 2106.74 428.569C2096.81 432.143 1989.58 432.937 1952.64 429.363C1927.23 426.98 1925.64 426.583 1919.28 413.477C1916.11 406.329 1913.72 399.577 1914.52 398.783C1915.31 397.989 1926.83 394.811 1939.94 391.634C1953.04 388.06 1963.76 385.28 1964.16 384.883C1964.16 384.883 1970.91 390.84 1978.86 398.386ZM2150.42 420.229C2153.2 424.597 2136.12 429.76 2125.8 426.98C2119.84 425.789 2120.24 424.994 2128.58 421.023C2141.29 415.463 2147.24 415.463 2150.42 420.229ZM1352.16 498.863C1349.78 500.849 1343.43 504.026 1337.47 506.806C1328.33 510.38 1326.35 510.38 1326.35 505.614C1326.35 500.849 1333.89 497.671 1350.18 496.083C1353.35 496.083 1354.15 496.877 1352.16 498.863Z" fill="#D01232"/>
<path d="M1708.8 460.34C1694.9 464.708 1683.78 469.871 1683.78 471.857C1683.78 477.02 1707.21 491.317 1755.66 515.543C1810.07 542.945 1807.29 540.165 1800.94 562.008C1792.6 589.014 1785.05 594.971 1751.29 599.34C1717.93 603.311 1691.32 614.828 1682.19 628.728C1678.62 634.288 1677.42 638.657 1679.41 638.657C1681.4 638.657 1684.57 636.671 1686.16 634.288C1689.34 629.125 1719.12 615.225 1727.07 614.828C1730.24 614.828 1728.26 618.8 1721.9 624.757C1708 637.465 1708.8 645.011 1722.7 634.685C1742.95 619.991 1761.22 618.005 1784.26 629.125C1811.66 641.834 1818.41 641.04 1803.32 627.14C1796.57 620.785 1791.01 612.048 1791.01 608.077C1791.01 603.708 1801.73 587.425 1814.84 571.937C1839.46 542.548 1843.03 535.4 1832.71 535.4C1821.98 535.4 1810.47 520.308 1813.25 509.585C1815.23 501.643 1814.04 499.657 1808.48 499.657C1795.38 499.26 1768.37 484.963 1750.5 468.68L1733.42 452.794L1708.8 460.34ZM1740.97 481.785C1754.07 492.905 1748.91 494.891 1731.04 485.757C1724.68 482.183 1720.32 477.814 1721.51 475.828C1725.08 469.871 1728.26 471.063 1740.97 481.785Z" fill="#D01232"/>
<path d="M962.419 952.271H777.814C773.09 952.271 767.973 951.747 762.463 950.697C757.083 949.516 751.704 947.745 746.324 945.383C741.076 943.022 736.025 940.004 731.17 936.33C726.315 932.525 721.986 927.998 718.181 922.75C714.507 917.371 711.555 911.204 709.324 904.25C707.094 897.165 705.979 889.227 705.979 880.437V741.884C705.979 737.16 706.503 732.109 707.553 726.73C708.734 721.219 710.505 715.839 712.867 710.591C715.229 705.212 718.312 700.095 722.117 695.24C725.922 690.386 730.448 686.121 735.697 682.448C741.076 678.643 747.243 675.625 754.197 673.395C761.15 671.164 769.023 670.049 777.814 670.049H962.419V721.219H777.814C771.122 721.219 766.005 722.99 762.463 726.533C758.92 730.075 757.149 735.323 757.149 742.277V880.437C757.149 886.997 758.92 892.114 762.463 895.788C766.136 899.33 771.253 901.101 777.814 901.101H962.419V952.271ZM1233.82 880.437C1233.82 889.227 1232.7 897.165 1230.47 904.25C1228.24 911.204 1225.29 917.371 1221.62 922.75C1217.94 927.998 1213.68 932.525 1208.82 936.33C1203.97 940.004 1198.85 943.022 1193.47 945.383C1188.22 947.745 1182.84 949.516 1177.33 950.697C1171.95 951.747 1166.84 952.271 1161.98 952.271H1069.68C1062.59 952.271 1054.85 951.025 1046.46 948.532C1038.06 946.039 1030.25 941.972 1023.04 936.33C1015.95 930.557 1009.98 923.144 1005.13 914.091C1000.4 904.906 998.042 893.688 998.042 880.437V811.16C998.042 798.04 1000.4 786.953 1005.13 777.9C1009.98 768.715 1015.95 761.302 1023.04 755.66C1030.25 749.887 1038.06 745.754 1046.46 743.261C1054.85 740.768 1062.59 739.522 1069.68 739.522H1161.98C1175.1 739.522 1186.26 741.884 1195.44 746.607C1204.62 751.331 1212.04 757.3 1217.68 764.517C1223.32 771.602 1227.39 779.343 1229.88 787.74C1232.51 796.137 1233.82 803.944 1233.82 811.16V880.437ZM1182.65 811.554C1182.65 804.469 1180.88 799.22 1177.33 795.809C1173.79 792.398 1168.67 790.692 1161.98 790.692H1070.07C1063.25 790.692 1058.07 792.463 1054.53 796.006C1050.98 799.417 1049.21 804.469 1049.21 811.16V880.437C1049.21 887.128 1050.98 892.245 1054.53 895.788C1058.07 899.33 1063.25 901.101 1070.07 901.101H1161.98C1168.94 901.101 1174.12 899.33 1177.53 895.788C1180.94 892.245 1182.65 887.128 1182.65 880.437V811.554ZM1463.69 790.692H1348.56C1341.6 790.692 1336.35 792.463 1332.81 796.006C1329.27 799.417 1327.5 804.469 1327.5 811.16V952.271H1276.33V811.16C1276.33 802.369 1277.44 794.497 1279.67 787.543C1281.9 780.589 1284.86 774.488 1288.53 769.24C1292.34 763.861 1296.67 759.334 1301.52 755.66C1306.37 751.855 1311.43 748.772 1316.67 746.41C1322.05 744.049 1327.43 742.343 1332.81 741.293C1338.32 740.112 1343.44 739.522 1348.16 739.522H1463.69V790.692ZM1725.64 809.979C1725.64 817.064 1724.39 824.74 1721.9 833.006C1719.41 841.141 1715.34 848.75 1709.7 855.836C1704.19 862.789 1696.91 868.628 1687.85 873.351C1678.93 878.075 1668.04 880.437 1655.18 880.437H1562.88V831.825H1655.18C1662.14 831.825 1667.52 829.726 1671.32 825.527C1675.13 821.197 1677.03 815.884 1677.03 809.586C1677.03 802.894 1674.86 797.646 1670.53 793.841C1666.34 790.036 1661.22 788.134 1655.18 788.134H1562.88C1555.93 788.134 1550.55 790.299 1546.74 794.628C1542.94 798.827 1541.03 804.075 1541.03 810.373V881.814C1541.03 888.637 1543.13 893.951 1547.33 897.756C1551.66 901.561 1556.98 903.463 1563.27 903.463H1655.18V952.271H1562.88C1555.8 952.271 1548.12 951.025 1539.85 948.532C1531.72 946.039 1524.11 942.037 1517.02 936.527C1510.07 930.885 1504.23 923.603 1499.51 914.681C1494.79 905.628 1492.42 894.672 1492.42 881.814V809.979C1492.42 802.894 1493.67 795.284 1496.16 787.15C1498.66 778.884 1502.66 771.274 1508.17 764.32C1513.81 757.235 1521.09 751.331 1530.01 746.607C1539.07 741.884 1550.02 739.522 1562.88 739.522H1655.18C1662.27 739.522 1669.88 740.768 1678.01 743.261C1686.28 745.754 1693.89 749.822 1700.84 755.463C1707.93 760.974 1713.83 768.256 1718.56 777.309C1723.28 786.231 1725.64 797.121 1725.64 809.979ZM2018.49 952.271H1833.89C1829.16 952.271 1824.04 951.747 1818.53 950.697C1813.15 949.516 1807.78 947.745 1802.4 945.383C1797.15 943.022 1792.1 940.004 1787.24 936.33C1782.39 932.525 1778.06 927.998 1774.25 922.75C1770.58 917.371 1767.63 911.204 1765.4 904.25C1763.17 897.165 1762.05 889.227 1762.05 880.437V741.884C1762.05 737.16 1762.58 732.109 1763.62 726.73C1764.81 721.219 1766.58 715.839 1768.94 710.591C1771.3 705.212 1774.38 700.095 1778.19 695.24C1781.99 690.386 1786.52 686.121 1791.77 682.448C1797.15 678.643 1803.31 675.625 1810.27 673.395C1817.22 671.164 1825.09 670.049 1833.89 670.049H2018.49V721.219H1833.89C1827.19 721.219 1822.08 722.99 1818.53 726.533C1814.99 730.075 1813.22 735.323 1813.22 742.277V880.437C1813.22 886.997 1814.99 892.114 1818.53 895.788C1822.21 899.33 1827.33 901.101 1833.89 901.101H2018.49V952.271ZM2279.66 881.814C2279.66 888.899 2278.41 896.575 2275.92 904.841C2273.42 912.975 2269.36 920.585 2263.71 927.67C2258.2 934.624 2250.92 940.463 2241.87 945.186C2232.95 949.91 2222.06 952.271 2209.2 952.271H2116.9C2109.81 952.271 2102.13 951.025 2093.87 948.532C2085.73 946.039 2078.12 942.037 2071.04 936.527C2064.09 930.885 2058.25 923.603 2053.52 914.681C2048.8 905.628 2046.44 894.672 2046.44 881.814C2046.44 874.729 2047.68 867.054 2050.18 858.788C2052.67 850.522 2056.67 842.912 2062.18 835.958C2067.82 828.873 2075.11 822.969 2084.03 818.245C2093.08 813.522 2104.04 811.16 2116.9 811.16H2209.2V859.969H2116.9C2109.94 859.969 2104.56 862.133 2100.76 866.463C2096.95 870.662 2095.05 875.91 2095.05 882.208C2095.05 888.899 2097.21 894.148 2101.54 897.952C2106.01 901.626 2111.25 903.463 2117.29 903.463H2209.2C2216.15 903.463 2221.53 901.364 2225.34 897.165C2229.14 892.967 2231.04 887.718 2231.04 881.421V809.979C2231.04 803.288 2228.94 797.974 2224.75 794.038C2220.68 790.102 2215.5 788.134 2209.2 788.134H2096.82V739.522H2209.2C2216.28 739.522 2223.89 740.768 2232.03 743.261C2240.29 745.754 2247.9 749.822 2254.86 755.463C2261.94 760.974 2267.85 768.256 2272.57 777.309C2277.29 786.231 2279.66 797.121 2279.66 809.979V881.814ZM2529.01 880.437C2529.01 889.227 2527.9 897.165 2525.67 904.25C2523.43 911.204 2520.48 917.371 2516.81 922.75C2513.14 927.998 2508.87 932.525 2504.02 936.33C2499.16 940.004 2494.04 943.022 2488.67 945.383C2483.42 947.745 2478.04 949.516 2472.53 950.697C2467.15 951.747 2462.03 952.271 2457.18 952.271H2318.62V901.101H2456.78C2463.74 901.101 2468.98 899.33 2472.53 895.788C2476.07 892.245 2477.84 887.128 2477.84 880.437C2477.19 866.791 2470.3 859.969 2457.18 859.969H2377.86C2366.58 859.969 2357 858 2349.13 854.064C2341.26 850.128 2334.83 845.208 2329.84 839.304C2324.99 833.399 2321.44 827.036 2319.21 820.213C2317.11 813.391 2316.06 807.027 2316.06 801.123C2316.06 789.708 2318.1 780.13 2322.17 772.389C2326.23 764.517 2331.35 758.153 2337.52 753.299C2343.68 748.444 2350.38 744.967 2357.59 742.868C2364.81 740.637 2371.56 739.522 2377.86 739.522H2503.62V790.692H2378.26C2375.63 790.692 2373.53 791.02 2371.96 791.676C2370.52 792.201 2369.4 792.988 2368.61 794.038C2367.96 794.956 2367.56 796.006 2367.43 797.187C2367.3 798.236 2367.23 799.286 2367.23 800.336C2367.37 802.435 2367.76 804.075 2368.42 805.256C2369.07 806.437 2369.86 807.29 2370.78 807.814C2371.83 808.339 2372.94 808.667 2374.12 808.798C2375.44 808.798 2376.68 808.798 2377.86 808.798H2457.18C2470.3 808.798 2481.45 811.16 2490.63 815.884C2499.82 820.607 2507.23 826.577 2512.87 833.793C2518.51 840.878 2522.58 848.619 2525.07 857.016C2527.7 865.414 2529.01 873.22 2529.01 880.437ZM2754.95 790.692H2665.6V952.271H2613.84V790.692H2547.31V739.522H2613.84V670.049H2665.6V739.522H2754.95V790.692Z" fill="white"/>
<path d="M1154.11 1097.8V1092.39H1189.64V1097.8H1154.11ZM1188.15 1097.8V1092.39H1233.52V1097.8H1188.15ZM1262.03 1097.8H1232.03V1092.39H1262.03V1097.8ZM1247.8 1072.81L1267.7 1095.09L1247.8 1117.38L1243.26 1113.5L1253.69 1102.01C1254.69 1100.94 1255.49 1100.11 1256.1 1099.52C1256.71 1098.94 1257.47 1098.36 1258.37 1097.8V1092.39C1257.47 1091.83 1256.71 1091.25 1256.1 1090.67C1255.49 1090.08 1254.69 1089.25 1253.69 1088.18L1243.26 1076.69L1247.8 1072.81ZM1342.47 1066.81C1347.91 1066.81 1352.02 1069.05 1354.8 1073.54C1357.58 1078.03 1358.97 1084.45 1358.97 1092.79C1358.97 1101.16 1357.58 1107.6 1354.8 1112.11C1352.02 1116.6 1347.91 1118.84 1342.47 1118.84C1337.06 1118.84 1332.95 1116.6 1330.14 1112.11C1327.36 1107.6 1325.97 1101.16 1325.97 1092.79C1325.97 1084.45 1327.36 1078.03 1330.14 1073.54C1332.95 1069.05 1337.06 1066.81 1342.47 1066.81ZM1342.47 1071.75C1339.37 1071.75 1336.94 1073.4 1335.15 1076.69C1333.37 1079.96 1332.48 1085.32 1332.48 1092.79C1332.48 1096.57 1332.68 1099.8 1333.07 1102.49C1333.46 1105.17 1334.06 1107.35 1334.86 1109.04C1335.69 1110.69 1336.73 1111.91 1337.97 1112.69C1339.24 1113.48 1340.74 1113.87 1342.47 1113.87C1344.57 1113.87 1346.36 1113.15 1347.85 1111.71C1349.36 1110.27 1350.51 1108 1351.29 1104.9C1352.1 1101.78 1352.5 1097.74 1352.5 1092.79C1352.5 1087.76 1352.14 1083.7 1351.44 1080.6C1350.75 1077.51 1349.67 1075.26 1348.18 1073.87C1346.72 1072.46 1344.81 1071.75 1342.47 1071.75ZM1349.9 1073.54L1351.51 1078.92L1335.48 1111.38L1333.22 1107.1L1349.9 1073.54ZM1391.73 1067.62V1116.54H1385.58V1074.27L1374.02 1081.3L1371.35 1076.91L1386.35 1067.62H1391.73ZM1402.27 1112.99V1118H1373.18V1112.99H1402.27ZM1435.61 1067.62V1116.54H1429.46V1074.27L1417.9 1081.3L1415.23 1076.91L1430.23 1067.62H1435.61ZM1446.15 1112.99V1118H1417.06V1112.99H1446.15ZM1474.11 1066.81C1479.55 1066.81 1483.66 1069.05 1486.44 1073.54C1489.22 1078.03 1490.61 1084.45 1490.61 1092.79C1490.61 1101.16 1489.22 1107.6 1486.44 1112.11C1483.66 1116.6 1479.55 1118.84 1474.11 1118.84C1468.7 1118.84 1464.59 1116.6 1461.78 1112.11C1459 1107.6 1457.61 1101.16 1457.61 1092.79C1457.61 1084.45 1459 1078.03 1461.78 1073.54C1464.59 1069.05 1468.7 1066.81 1474.11 1066.81ZM1474.11 1071.75C1471.01 1071.75 1468.57 1073.4 1466.79 1076.69C1465.01 1079.96 1464.12 1085.32 1464.12 1092.79C1464.12 1096.57 1464.32 1099.8 1464.71 1102.49C1465.1 1105.17 1465.7 1107.35 1466.5 1109.04C1467.33 1110.69 1468.37 1111.91 1469.61 1112.69C1470.88 1113.48 1472.38 1113.87 1474.11 1113.87C1476.21 1113.87 1478 1113.15 1479.49 1111.71C1481 1110.27 1482.15 1108 1482.93 1104.9C1483.73 1101.78 1484.14 1097.74 1484.14 1092.79C1484.14 1087.76 1483.78 1083.7 1483.08 1080.6C1482.39 1077.51 1481.31 1075.26 1479.82 1073.87C1478.36 1072.46 1476.45 1071.75 1474.11 1071.75ZM1481.54 1073.54L1483.15 1078.92L1467.12 1111.38L1464.85 1107.1L1481.54 1073.54ZM1523.37 1067.62V1116.54H1517.22V1074.27L1505.66 1081.3L1502.99 1076.91L1517.99 1067.62H1523.37ZM1533.91 1112.99V1118H1504.82V1112.99H1533.91ZM1561.87 1066.81C1567.31 1066.81 1571.42 1069.05 1574.2 1073.54C1576.98 1078.03 1578.37 1084.45 1578.37 1092.79C1578.37 1101.16 1576.98 1107.6 1574.2 1112.11C1571.42 1116.6 1567.31 1118.84 1561.87 1118.84C1556.46 1118.84 1552.34 1116.6 1549.54 1112.11C1546.76 1107.6 1545.37 1101.16 1545.37 1092.79C1545.37 1084.45 1546.76 1078.03 1549.54 1073.54C1552.34 1069.05 1556.46 1066.81 1561.87 1066.81ZM1561.87 1071.75C1558.77 1071.75 1556.33 1073.4 1554.55 1076.69C1552.77 1079.96 1551.88 1085.32 1551.88 1092.79C1551.88 1096.57 1552.08 1099.8 1552.47 1102.49C1552.86 1105.17 1553.45 1107.35 1554.26 1109.04C1555.09 1110.69 1556.13 1111.91 1557.37 1112.69C1558.64 1113.48 1560.14 1113.87 1561.87 1113.87C1563.97 1113.87 1565.76 1113.15 1567.25 1111.71C1568.76 1110.27 1569.91 1108 1570.69 1104.9C1571.49 1101.78 1571.9 1097.74 1571.9 1092.79C1571.9 1087.76 1571.54 1083.7 1570.84 1080.6C1570.15 1077.51 1569.07 1075.26 1567.58 1073.87C1566.12 1072.46 1564.21 1071.75 1561.87 1071.75ZM1569.3 1073.54L1570.91 1078.92L1554.88 1111.38L1552.61 1107.1L1569.3 1073.54ZM1611.13 1067.62V1116.54H1604.98V1074.27L1593.42 1081.3L1590.75 1076.91L1605.75 1067.62H1611.13ZM1621.67 1112.99V1118H1592.58V1112.99H1621.67ZM1655.01 1067.62V1116.54H1648.86V1074.27L1637.3 1081.3L1634.63 1076.91L1649.63 1067.62H1655.01ZM1665.55 1112.99V1118H1636.46V1112.99H1665.55ZM1742.77 1067.62V1116.54H1736.62V1074.27L1725.06 1081.3L1722.39 1076.91L1737.39 1067.62H1742.77ZM1753.31 1112.99V1118H1724.22V1112.99H1753.31ZM1781.27 1066.81C1786.71 1066.81 1790.82 1069.05 1793.6 1073.54C1796.38 1078.03 1797.77 1084.45 1797.77 1092.79C1797.77 1101.16 1796.38 1107.6 1793.6 1112.11C1790.82 1116.6 1786.71 1118.84 1781.27 1118.84C1775.85 1118.84 1771.74 1116.6 1768.94 1112.11C1766.16 1107.6 1764.77 1101.16 1764.77 1092.79C1764.77 1084.45 1766.16 1078.03 1768.94 1073.54C1771.74 1069.05 1775.85 1066.81 1781.27 1066.81ZM1781.27 1071.75C1778.17 1071.75 1775.73 1073.4 1773.95 1076.69C1772.17 1079.96 1771.28 1085.32 1771.28 1092.79C1771.28 1096.57 1771.47 1099.8 1771.86 1102.49C1772.26 1105.17 1772.85 1107.35 1773.66 1109.04C1774.49 1110.69 1775.52 1111.91 1776.77 1112.69C1778.04 1113.48 1779.54 1113.87 1781.27 1113.87C1783.37 1113.87 1785.16 1113.15 1786.65 1111.71C1788.16 1110.27 1789.31 1108 1790.09 1104.9C1790.89 1101.78 1791.29 1097.74 1791.29 1092.79C1791.29 1087.76 1790.94 1083.7 1790.23 1080.6C1789.55 1077.51 1788.46 1075.26 1786.98 1073.87C1785.51 1072.46 1783.61 1071.75 1781.27 1071.75ZM1788.7 1073.54L1790.31 1078.92L1774.28 1111.38L1772.01 1107.1L1788.7 1073.54ZM1830.53 1067.62V1116.54H1824.38V1074.27L1812.82 1081.3L1810.15 1076.91L1825.15 1067.62H1830.53ZM1841.06 1112.99V1118H1811.98V1112.99H1841.06ZM1874.41 1067.62V1116.54H1868.26V1074.27L1856.7 1081.3L1854.03 1076.91L1869.03 1067.62H1874.41ZM1884.94 1112.99V1118H1855.86V1112.99H1884.94ZM1912.91 1066.81C1918.35 1066.81 1922.46 1069.05 1925.24 1073.54C1928.02 1078.03 1929.41 1084.45 1929.41 1092.79C1929.41 1101.16 1928.02 1107.6 1925.24 1112.11C1922.46 1116.6 1918.35 1118.84 1912.91 1118.84C1907.49 1118.84 1903.38 1116.6 1900.58 1112.11C1897.8 1107.6 1896.41 1101.16 1896.41 1092.79C1896.41 1084.45 1897.8 1078.03 1900.58 1073.54C1903.38 1069.05 1907.49 1066.81 1912.91 1066.81ZM1912.91 1071.75C1909.81 1071.75 1907.37 1073.4 1905.59 1076.69C1903.81 1079.96 1902.92 1085.32 1902.92 1092.79C1902.92 1096.57 1903.11 1099.8 1903.5 1102.49C1903.89 1105.17 1904.49 1107.35 1905.3 1109.04C1906.13 1110.69 1907.16 1111.91 1908.41 1112.69C1909.68 1113.48 1911.18 1113.87 1912.91 1113.87C1915.01 1113.87 1916.8 1113.15 1918.29 1111.71C1919.8 1110.27 1920.95 1108 1921.73 1104.9C1922.53 1101.78 1922.93 1097.74 1922.93 1092.79C1922.93 1087.76 1922.58 1083.7 1921.87 1080.6C1921.19 1077.51 1920.1 1075.26 1918.62 1073.87C1917.15 1072.46 1915.25 1071.75 1912.91 1071.75ZM1920.34 1073.54L1921.95 1078.92L1905.92 1111.38L1903.65 1107.1L1920.34 1073.54ZM1962.17 1067.62V1116.54H1956.02V1074.27L1944.46 1081.3L1941.79 1076.91L1956.79 1067.62H1962.17ZM1972.7 1112.99V1118H1943.61V1112.99H1972.7ZM2000.67 1066.81C2006.11 1066.81 2010.22 1069.05 2013 1073.54C2015.78 1078.03 2017.17 1084.45 2017.17 1092.79C2017.17 1101.16 2015.78 1107.6 2013 1112.11C2010.22 1116.6 2006.11 1118.84 2000.67 1118.84C1995.25 1118.84 1991.14 1116.6 1988.34 1112.11C1985.55 1107.6 1984.16 1101.16 1984.16 1092.79C1984.16 1084.45 1985.55 1078.03 1988.34 1073.54C1991.14 1069.05 1995.25 1066.81 2000.67 1066.81ZM2000.67 1071.75C1997.57 1071.75 1995.13 1073.4 1993.35 1076.69C1991.57 1079.96 1990.68 1085.32 1990.68 1092.79C1990.68 1096.57 1990.87 1099.8 1991.26 1102.49C1991.65 1105.17 1992.25 1107.35 1993.06 1109.04C1993.89 1110.69 1994.92 1111.91 1996.17 1112.69C1997.43 1113.48 1998.93 1113.87 2000.67 1113.87C2002.76 1113.87 2004.56 1113.15 2006.05 1111.71C2007.56 1110.27 2008.7 1108 2009.48 1104.9C2010.29 1101.78 2010.69 1097.74 2010.69 1092.79C2010.69 1087.76 2010.34 1083.7 2009.63 1080.6C2008.95 1077.51 2007.86 1075.26 2006.37 1073.87C2004.91 1072.46 2003.01 1071.75 2000.67 1071.75ZM2008.09 1073.54L2009.7 1078.92L1993.68 1111.38L1991.41 1107.1L2008.09 1073.54ZM2044.55 1066.81C2049.99 1066.81 2054.1 1069.05 2056.88 1073.54C2059.66 1078.03 2061.05 1084.45 2061.05 1092.79C2061.05 1101.16 2059.66 1107.6 2056.88 1112.11C2054.1 1116.6 2049.99 1118.84 2044.55 1118.84C2039.13 1118.84 2035.02 1116.6 2032.22 1112.11C2029.43 1107.6 2028.04 1101.16 2028.04 1092.79C2028.04 1084.45 2029.43 1078.03 2032.22 1073.54C2035.02 1069.05 2039.13 1066.81 2044.55 1066.81ZM2044.55 1071.75C2041.45 1071.75 2039.01 1073.4 2037.23 1076.69C2035.45 1079.96 2034.56 1085.32 2034.56 1092.79C2034.56 1096.57 2034.75 1099.8 2035.14 1102.49C2035.53 1105.17 2036.13 1107.35 2036.94 1109.04C2037.76 1110.69 2038.8 1111.91 2040.05 1112.69C2041.31 1113.48 2042.81 1113.87 2044.55 1113.87C2046.64 1113.87 2048.44 1113.15 2049.93 1111.71C2051.44 1110.27 2052.58 1108 2053.36 1104.9C2054.17 1101.78 2054.57 1097.74 2054.57 1092.79C2054.57 1087.76 2054.22 1083.7 2053.51 1080.6C2052.83 1077.51 2051.74 1075.26 2050.25 1073.87C2048.79 1072.46 2046.89 1071.75 2044.55 1071.75ZM2051.97 1073.54L2053.58 1078.92L2037.56 1111.38L2035.29 1107.1L2051.97 1073.54ZM2137.68 1067.62V1116.54H2131.54V1074.27L2119.97 1081.3L2117.3 1076.91L2132.31 1067.62H2137.68ZM2148.22 1112.99V1118H2119.13V1112.99H2148.22ZM2181.56 1067.62V1116.54H2175.42V1074.27L2163.85 1081.3L2161.18 1076.91L2176.19 1067.62H2181.56ZM2192.1 1112.99V1118H2163.01V1112.99H2192.1ZM2220.06 1066.81C2225.5 1066.81 2229.61 1069.05 2232.4 1073.54C2235.18 1078.03 2236.57 1084.45 2236.57 1092.79C2236.57 1101.16 2235.18 1107.6 2232.4 1112.11C2229.61 1116.6 2225.5 1118.84 2220.06 1118.84C2214.65 1118.84 2210.54 1116.6 2207.73 1112.11C2204.95 1107.6 2203.56 1101.16 2203.56 1092.79C2203.56 1084.45 2204.95 1078.03 2207.73 1073.54C2210.54 1069.05 2214.65 1066.81 2220.06 1066.81ZM2220.06 1071.75C2216.97 1071.75 2214.53 1073.4 2212.75 1076.69C2210.97 1079.96 2210.08 1085.32 2210.08 1092.79C2210.08 1096.57 2210.27 1099.8 2210.66 1102.49C2211.05 1105.17 2211.65 1107.35 2212.45 1109.04C2213.28 1110.69 2214.32 1111.91 2215.56 1112.69C2216.83 1113.48 2218.33 1113.87 2220.06 1113.87C2222.16 1113.87 2223.96 1113.15 2225.44 1111.71C2226.96 1110.27 2228.1 1108 2228.88 1104.9C2229.69 1101.78 2230.09 1097.74 2230.09 1092.79C2230.09 1087.76 2229.74 1083.7 2229.03 1080.6C2228.35 1077.51 2227.26 1075.26 2225.77 1073.87C2224.31 1072.46 2222.41 1071.75 2220.06 1071.75ZM2227.49 1073.54L2229.1 1078.92L2213.08 1111.38L2210.81 1107.1L2227.49 1073.54ZM2263.94 1066.81C2269.38 1066.81 2273.49 1069.05 2276.28 1073.54C2279.06 1078.03 2280.45 1084.45 2280.45 1092.79C2280.45 1101.16 2279.06 1107.6 2276.28 1112.11C2273.49 1116.6 2269.38 1118.84 2263.94 1118.84C2258.53 1118.84 2254.42 1116.6 2251.61 1112.11C2248.83 1107.6 2247.44 1101.16 2247.44 1092.79C2247.44 1084.45 2248.83 1078.03 2251.61 1073.54C2254.42 1069.05 2258.53 1066.81 2263.94 1066.81ZM2263.94 1071.75C2260.85 1071.75 2258.41 1073.4 2256.63 1076.69C2254.85 1079.96 2253.96 1085.32 2253.96 1092.79C2253.96 1096.57 2254.15 1099.8 2254.54 1102.49C2254.93 1105.17 2255.53 1107.35 2256.33 1109.04C2257.16 1110.69 2258.2 1111.91 2259.44 1112.69C2260.71 1113.48 2262.21 1113.87 2263.94 1113.87C2266.04 1113.87 2267.84 1113.15 2269.32 1111.71C2270.84 1110.27 2271.98 1108 2272.76 1104.9C2273.57 1101.78 2273.97 1097.74 2273.97 1092.79C2273.97 1087.76 2273.62 1083.7 2272.91 1080.6C2272.23 1077.51 2271.14 1075.26 2269.65 1073.87C2268.19 1072.46 2266.29 1071.75 2263.94 1071.75ZM2271.37 1073.54L2272.98 1078.92L2256.96 1111.38L2254.69 1107.1L2271.37 1073.54ZM2307.82 1066.81C2313.26 1066.81 2317.37 1069.05 2320.15 1073.54C2322.94 1078.03 2324.33 1084.45 2324.33 1092.79C2324.33 1101.16 2322.94 1107.6 2320.15 1112.11C2317.37 1116.6 2313.26 1118.84 2307.82 1118.84C2302.41 1118.84 2298.3 1116.6 2295.49 1112.11C2292.71 1107.6 2291.32 1101.16 2291.32 1092.79C2291.32 1084.45 2292.71 1078.03 2295.49 1073.54C2298.3 1069.05 2302.41 1066.81 2307.82 1066.81ZM2307.82 1071.75C2304.73 1071.75 2302.29 1073.4 2300.51 1076.69C2298.73 1079.96 2297.83 1085.32 2297.83 1092.79C2297.83 1096.57 2298.03 1099.8 2298.42 1102.49C2298.81 1105.17 2299.41 1107.35 2300.21 1109.04C2301.04 1110.69 2302.08 1111.91 2303.32 1112.69C2304.59 1113.48 2306.09 1113.87 2307.82 1113.87C2309.92 1113.87 2311.71 1113.15 2313.2 1111.71C2314.72 1110.27 2315.86 1108 2316.64 1104.9C2317.45 1101.78 2317.85 1097.74 2317.85 1092.79C2317.85 1087.76 2317.5 1083.7 2316.79 1080.6C2316.11 1077.51 2315.02 1075.26 2313.53 1073.87C2312.07 1072.46 2310.17 1071.75 2307.82 1071.75ZM2315.25 1073.54L2316.86 1078.92L2300.84 1111.38L2298.57 1107.1L2315.25 1073.54ZM2351.7 1066.81C2357.14 1066.81 2361.25 1069.05 2364.03 1073.54C2366.82 1078.03 2368.21 1084.45 2368.21 1092.79C2368.21 1101.16 2366.82 1107.6 2364.03 1112.11C2361.25 1116.6 2357.14 1118.84 2351.7 1118.84C2346.29 1118.84 2342.18 1116.6 2339.37 1112.11C2336.59 1107.6 2335.2 1101.16 2335.2 1092.79C2335.2 1084.45 2336.59 1078.03 2339.37 1073.54C2342.18 1069.05 2346.29 1066.81 2351.7 1066.81ZM2351.7 1071.75C2348.61 1071.75 2346.17 1073.4 2344.39 1076.69C2342.6 1079.96 2341.71 1085.32 2341.71 1092.79C2341.71 1096.57 2341.91 1099.8 2342.3 1102.49C2342.69 1105.17 2343.29 1107.35 2344.09 1109.04C2344.92 1110.69 2345.96 1111.91 2347.2 1112.69C2348.47 1113.48 2349.97 1113.87 2351.7 1113.87C2353.8 1113.87 2355.59 1113.15 2357.08 1111.71C2358.59 1110.27 2359.74 1108 2360.52 1104.9C2361.33 1101.78 2361.73 1097.74 2361.73 1092.79C2361.73 1087.76 2361.38 1083.7 2360.67 1080.6C2359.99 1077.51 2358.9 1075.26 2357.41 1073.87C2355.95 1072.46 2354.05 1071.75 2351.7 1071.75ZM2359.13 1073.54L2360.74 1078.92L2344.71 1111.38L2342.45 1107.1L2359.13 1073.54ZM2400.96 1067.62V1116.54H2394.81V1074.27L2383.25 1081.3L2380.58 1076.91L2395.58 1067.62H2400.96ZM2411.5 1112.99V1118H2382.41V1112.99H2411.5ZM2444.84 1067.62V1116.54H2438.69V1074.27L2427.13 1081.3L2424.46 1076.91L2439.46 1067.62H2444.84ZM2455.38 1112.99V1118H2426.29V1112.99H2455.38ZM2527.22 1066.81C2532.66 1066.81 2536.77 1069.05 2539.55 1073.54C2542.33 1078.03 2543.72 1084.45 2543.72 1092.79C2543.72 1101.16 2542.33 1107.6 2539.55 1112.11C2536.77 1116.6 2532.66 1118.84 2527.22 1118.84C2521.81 1118.84 2517.7 1116.6 2514.89 1112.11C2512.11 1107.6 2510.72 1101.16 2510.72 1092.79C2510.72 1084.45 2512.11 1078.03 2514.89 1073.54C2517.7 1069.05 2521.81 1066.81 2527.22 1066.81ZM2527.22 1071.75C2524.12 1071.75 2521.68 1073.4 2519.9 1076.69C2518.12 1079.96 2517.23 1085.32 2517.23 1092.79C2517.23 1096.57 2517.43 1099.8 2517.82 1102.49C2518.21 1105.17 2518.81 1107.35 2519.61 1109.04C2520.44 1110.69 2521.48 1111.91 2522.72 1112.69C2523.99 1113.48 2525.49 1113.87 2527.22 1113.87C2529.32 1113.87 2531.11 1113.15 2532.6 1111.71C2534.11 1110.27 2535.26 1108 2536.04 1104.9C2536.85 1101.78 2537.25 1097.74 2537.25 1092.79C2537.25 1087.76 2536.89 1083.7 2536.19 1080.6C2535.5 1077.51 2534.42 1075.26 2532.93 1073.87C2531.47 1072.46 2529.56 1071.75 2527.22 1071.75ZM2534.65 1073.54L2536.26 1078.92L2520.23 1111.38L2517.96 1107.1L2534.65 1073.54ZM2571.1 1066.81C2576.54 1066.81 2580.65 1069.05 2583.43 1073.54C2586.21 1078.03 2587.6 1084.45 2587.6 1092.79C2587.6 1101.16 2586.21 1107.6 2583.43 1112.11C2580.65 1116.6 2576.54 1118.84 2571.1 1118.84C2565.69 1118.84 2561.58 1116.6 2558.77 1112.11C2555.99 1107.6 2554.6 1101.16 2554.6 1092.79C2554.6 1084.45 2555.99 1078.03 2558.77 1073.54C2561.58 1069.05 2565.69 1066.81 2571.1 1066.81ZM2571.1 1071.75C2568 1071.75 2565.56 1073.4 2563.78 1076.69C2562 1079.96 2561.11 1085.32 2561.11 1092.79C2561.11 1096.57 2561.31 1099.8 2561.7 1102.49C2562.09 1105.17 2562.69 1107.35 2563.49 1109.04C2564.32 1110.69 2565.36 1111.91 2566.6 1112.69C2567.87 1113.48 2569.37 1113.87 2571.1 1113.87C2573.2 1113.87 2574.99 1113.15 2576.48 1111.71C2577.99 1110.27 2579.14 1108 2579.92 1104.9C2580.72 1101.78 2581.13 1097.74 2581.13 1092.79C2581.13 1087.76 2580.77 1083.7 2580.07 1080.6C2579.38 1077.51 2578.3 1075.26 2576.81 1073.87C2575.35 1072.46 2573.44 1071.75 2571.1 1071.75ZM2578.53 1073.54L2580.14 1078.92L2564.11 1111.38L2561.84 1107.1L2578.53 1073.54ZM2614.98 1066.81C2620.42 1066.81 2624.53 1069.05 2627.31 1073.54C2630.09 1078.03 2631.48 1084.45 2631.48 1092.79C2631.48 1101.16 2630.09 1107.6 2627.31 1112.11C2624.53 1116.6 2620.42 1118.84 2614.98 1118.84C2609.57 1118.84 2605.46 1116.6 2602.65 1112.11C2599.87 1107.6 2598.48 1101.16 2598.48 1092.79C2598.48 1084.45 2599.87 1078.03 2602.65 1073.54C2605.46 1069.05 2609.57 1066.81 2614.98 1066.81ZM2614.98 1071.75C2611.88 1071.75 2609.44 1073.4 2607.66 1076.69C2605.88 1079.96 2604.99 1085.32 2604.99 1092.79C2604.99 1096.57 2605.19 1099.8 2605.58 1102.49C2605.97 1105.17 2606.57 1107.35 2607.37 1109.04C2608.2 1110.69 2609.24 1111.91 2610.48 1112.69C2611.75 1113.48 2613.25 1113.87 2614.98 1113.87C2617.08 1113.87 2618.87 1113.15 2620.36 1111.71C2621.87 1110.27 2623.02 1108 2623.8 1104.9C2624.6 1101.78 2625.01 1097.74 2625.01 1092.79C2625.01 1087.76 2624.65 1083.7 2623.95 1080.6C2623.26 1077.51 2622.18 1075.26 2620.69 1073.87C2619.23 1072.46 2617.32 1071.75 2614.98 1071.75ZM2622.41 1073.54L2624.02 1078.92L2607.99 1111.38L2605.72 1107.1L2622.41 1073.54ZM2664.24 1067.62V1116.54H2658.09V1074.27L2646.53 1081.3L2643.86 1076.91L2658.86 1067.62H2664.24ZM2674.78 1112.99V1118H2645.69V1112.99H2674.78ZM2708.12 1067.62V1116.54H2701.97V1074.27L2690.41 1081.3L2687.74 1076.91L2702.74 1067.62H2708.12ZM2718.66 1112.99V1118H2689.57V1112.99H2718.66ZM2746.62 1066.81C2752.06 1066.81 2756.17 1069.05 2758.95 1073.54C2761.73 1078.03 2763.12 1084.45 2763.12 1092.79C2763.12 1101.16 2761.73 1107.6 2758.95 1112.11C2756.17 1116.6 2752.06 1118.84 2746.62 1118.84C2741.2 1118.84 2737.09 1116.6 2734.29 1112.11C2731.51 1107.6 2730.12 1101.16 2730.12 1092.79C2730.12 1084.45 2731.51 1078.03 2734.29 1073.54C2737.09 1069.05 2741.2 1066.81 2746.62 1066.81ZM2746.62 1071.75C2743.52 1071.75 2741.08 1073.4 2739.3 1076.69C2737.52 1079.96 2736.63 1085.32 2736.63 1092.79C2736.63 1096.57 2736.83 1099.8 2737.22 1102.49C2737.61 1105.17 2738.2 1107.35 2739.01 1109.04C2739.84 1110.69 2740.88 1111.91 2742.12 1112.69C2743.39 1113.48 2744.89 1113.87 2746.62 1113.87C2748.72 1113.87 2750.51 1113.15 2752 1111.71C2753.51 1110.27 2754.66 1108 2755.44 1104.9C2756.24 1101.78 2756.65 1097.74 2756.65 1092.79C2756.65 1087.76 2756.29 1083.7 2755.58 1080.6C2754.9 1077.51 2753.82 1075.26 2752.33 1073.87C2750.86 1072.46 2748.96 1071.75 2746.62 1071.75ZM2754.05 1073.54L2755.66 1078.92L2739.63 1111.38L2737.36 1107.1L2754.05 1073.54ZM2795.88 1067.62V1116.54H2789.73V1074.27L2778.17 1081.3L2775.5 1076.91L2790.5 1067.62H2795.88ZM2806.42 1112.99V1118H2777.33V1112.99H2806.42ZM2834.38 1066.81C2839.82 1066.81 2843.93 1069.05 2846.71 1073.54C2849.49 1078.03 2850.88 1084.45 2850.88 1092.79C2850.88 1101.16 2849.49 1107.6 2846.71 1112.11C2843.93 1116.6 2839.82 1118.84 2834.38 1118.84C2828.96 1118.84 2824.85 1116.6 2822.05 1112.11C2819.27 1107.6 2817.88 1101.16 2817.88 1092.79C2817.88 1084.45 2819.27 1078.03 2822.05 1073.54C2824.85 1069.05 2828.96 1066.81 2834.38 1066.81ZM2834.38 1071.75C2831.28 1071.75 2828.84 1073.4 2827.06 1076.69C2825.28 1079.96 2824.39 1085.32 2824.39 1092.79C2824.39 1096.57 2824.59 1099.8 2824.98 1102.49C2825.37 1105.17 2825.96 1107.35 2826.77 1109.04C2827.6 1110.69 2828.63 1111.91 2829.88 1112.69C2831.15 1113.48 2832.65 1113.87 2834.38 1113.87C2836.48 1113.87 2838.27 1113.15 2839.76 1111.71C2841.27 1110.27 2842.42 1108 2843.2 1104.9C2844 1101.78 2844.4 1097.74 2844.4 1092.79C2844.4 1087.76 2844.05 1083.7 2843.34 1080.6C2842.66 1077.51 2841.58 1075.26 2840.09 1073.87C2838.62 1072.46 2836.72 1071.75 2834.38 1071.75ZM2841.81 1073.54L2843.42 1078.92L2827.39 1111.38L2825.12 1107.1L2841.81 1073.54Z" fill="white"/>
<rect x="1020" y="1211" width="9" height="121" transform="rotate(-180 1020 1211)" fill="url(#paint0_linear_380_38)"/>
<rect x="961" y="1319" width="9" height="229" transform="rotate(-180 961 1319)" fill="url(#paint1_linear_380_38)"/>
<rect x="902" y="1389" width="9" height="298" transform="rotate(-180 902 1389)" fill="url(#paint2_linear_380_38)"/>
<rect x="841" y="1428" width="9" height="337" transform="rotate(-180 841 1428)" fill="url(#paint3_linear_380_38)"/>
<rect x="782" y="1389" width="9" height="298" transform="rotate(-180 782 1389)" fill="url(#paint4_linear_380_38)"/>
<rect x="723" y="1325" width="9" height="235" transform="rotate(-180 723 1325)" fill="url(#paint5_linear_380_38)"/>
<rect x="671" y="1235" width="9" height="145" transform="rotate(-180 671 1235)" fill="url(#paint6_linear_380_38)"/>
<rect x="89" y="993" width="9" height="104" fill="url(#paint7_linear_380_38)"/>
<rect x="200" y="765" width="9" height="332" fill="url(#paint8_linear_380_38)"/>
<rect x="141" y="873" width="9" height="224" fill="url(#paint9_linear_380_38)"/>
<rect x="320" y="656" width="9" height="441" fill="url(#paint10_linear_380_38)"/>
<rect x="259" y="695" width="9" height="402" fill="url(#paint11_linear_380_38)"/>
<rect x="379" y="695" width="9" height="402" fill="url(#paint12_linear_380_38)"/>
<rect x="438" y="759" width="9" height="332" fill="url(#paint13_linear_380_38)"/>
<rect x="490" y="849" width="9" height="248" fill="url(#paint14_linear_380_38)"/>
<rect x="542" y="980" width="9" height="117" fill="url(#paint15_linear_380_38)"/>
<path d="M33 1110.33L34 1108.03L35 1105.72L36 1103.41L37 1101.1L38 1098.79L39 1096.47L40 1094.16L41 1091.84L42 1089.52L43 1087.19L44 1084.87L45 1082.54L46 1080.22L47 1077.89L48 1075.56L49 1073.23L50 1070.89L51 1068.56L52 1066.23L53 1063.89L54 1061.56L55 1059.22L56 1056.88L57 1054.54L58 1052.21L59 1049.87L60 1047.53L61 1045.19L62 1042.85L63 1040.51L64 1038.17L65 1035.83L66 1033.49L67 1031.15L68 1028.82L69 1026.48L70 1024.14L71 1021.8L72 1019.47L73 1017.13L74 1014.8L75 1012.47L76 1010.13L77 1007.8L78 1005.47L79 1003.15L80 1000.82L81 998.493L82 996.17L83 993.848L84 991.527L85 989.209L86 986.893L87 984.578L88 982.266L89 979.956L90 977.648L91 975.343L92 973.04L93 970.739L94 968.441L95 966.146L96 963.854L97 961.564L98 959.278L99 956.994L100 954.714L101 952.437L102 950.163L103 947.892L104 945.625L105 943.362L106 941.102L107 938.846L108 936.593L109 934.345L110 932.1L111 929.859L112 927.623L113 925.391L114 923.163L115 920.939L116 918.72L117 916.506L118 914.296L119 912.09L120 909.89L121 907.694L122 905.503L123 903.318L124 901.137L125 898.962L126 896.791L127 894.627L128 892.467L129 890.313L130 888.165L131 886.022L132 883.885L133 881.754L134 879.628L135 877.509L136 875.396L137 873.289L138 871.188L139 869.093L140 867.004L141 864.923L142 862.847L143 860.778L144 858.716L145 856.661L146 854.612L147 852.57L148 850.535L149 848.508L150 846.487L151 844.473L152 842.467L153 840.468L154 838.477L155 836.493L156 834.516L157 832.547L158 830.586L159 828.633L160 826.687L161 824.749L162 822.82L163 820.898L164 818.985L165 817.079L166 815.182L167 813.294L168 811.413L169 809.541L170 807.678L171 805.823L172 803.977L173 802.14L174 800.312L175 798.492L176 796.681L177 794.88L178 793.087L179 791.304L180 789.529L181 787.764L182 786.009L183 784.263L184 782.526L185 780.799L186 779.081L187 777.373L188 775.675L189 773.986L190 772.308L191 770.639L192 768.98L193 767.332L194 765.693L195 764.065L196 762.446L197 760.838L198 759.241L199 757.653L200 756.076L201 754.51L202 752.954L203 751.409L204 749.875L205 748.351L206 746.838L207 745.336L208 743.845L209 742.364L210 740.895L211 739.437L212 737.99L213 736.554L214 735.129L215 733.716L216 732.314L217 730.923L218 729.543L219 728.176L220 726.819L221 725.475L222 724.141L223 722.82L224 721.51L225 720.212L226 718.926L227 717.652L228 716.39L229 715.139L230 713.901L231 712.675L232 711.46L233 710.258L234 709.068L235 707.891L236 706.725L237 705.572L238 704.432L239 703.303L240 702.187L241 701.084L242 699.993L243 698.915L244 697.849L245 696.796L246 695.755L247 694.728L248 693.713L249 692.711L250 691.721L251 690.745L252 689.781L253 688.831L254 687.893L255 686.969L256 686.057L257 685.159L258 684.273L259 683.401L260 682.542L261 681.696L262 680.863L263 680.044L264 679.238L265 678.445L266 677.666L267 676.9L268 676.147L269 675.408L270 674.682L271 673.97L272 673.271L273 672.586L274 671.914L275 671.256L276 670.612L277 669.981L278 669.364L279 668.761L280 668.171L281 667.595L282 667.033L283 666.485L284 665.95L285 665.429L286 664.922L287 664.429L288 663.95L289 663.484L290 663.033L291 662.595L292 662.172L293 661.762L294 661.366L295 660.985L296 660.617L297 660.263L298 659.923L299 659.598L300 659.286L301 658.989L302 658.705L303 658.436L304 658.18L305 657.939L306 657.712L307 657.499L308 657.3L309 657.115L310 656.945L311 656.788L312 656.646L313 656.518L314 656.404L315 656.304L316 656.218L317 656.147L318 656.09L319 656.046L320 656.017L321 656.003L322 656.002L323 656.016L324 656.043L325 656.085L326 656.141L327 656.211L328 656.296L329 656.394L330 656.507L331 656.634L332 656.775L333 656.93L334 657.1L335 657.283L336 657.481L337 657.693L338 657.919L339 658.159L340 658.413L341 658.681L342 658.963L343 659.259L344 659.57L345 659.894L346 660.233L347 660.585L348 660.952L349 661.332L350 661.727L351 662.135L352 662.557L353 662.994L354 663.444L355 663.908L356 664.386L357 664.878L358 665.384L359 665.903L360 666.437L361 666.984L362 667.545L363 668.12L364 668.708L365 669.31L366 669.926L367 670.556L368 671.199L369 671.856L370 672.526L371 673.21L372 673.908L373 674.619L374 675.343L375 676.081L376 676.833L377 677.597L378 678.376L379 679.167L380 679.972L381 680.79L382 681.622L383 682.467L384 683.324L385 684.196L386 685.08L387 685.977L388 686.888L389 687.811L390 688.747L391 689.697L392 690.659L393 691.635L394 692.623L395 693.624L396 694.638L397 695.664L398 696.703L399 697.755L400 698.82L401 699.897L402 700.987L403 702.089L404 703.204L405 704.331L406 705.471L407 706.623L408 707.787L409 708.964L410 710.153L411 711.354L412 712.567L413 713.792L414 715.029L415 716.279L416 717.54L417 718.813L418 720.098L419 721.395L420 722.704L421 724.024L422 725.356L423 726.7L424 728.055L425 729.422L426 730.8L427 732.19L428 733.591L429 735.004L430 736.427L431 737.862L432 739.309L433 740.766L434 742.234L435 743.713L436 745.204L437 746.705L438 748.217L439 749.74L440 751.273L441 752.817L442 754.372L443 755.938L444 757.514L445 759.1L446 760.697L447 762.304L448 763.921L449 765.549L450 767.186L451 768.834L452 770.492L453 772.16L454 773.838L455 775.525L456 777.223L457 778.93L458 780.646L459 782.373L460 784.109L461 785.854L462 787.609L463 789.373L464 791.146L465 792.929L466 794.721L467 796.522L468 798.332L469 800.15L470 801.978L471 803.815L472 805.66L473 807.514L474 809.376L475 811.247L476 813.127L477 815.015L478 816.911L479 818.816L480 820.729L481 822.65L482 824.579L483 826.516L484 828.46L485 830.413L486 832.374L487 834.342L488 836.318L489 838.301L490 840.292L491 842.29L492 844.296L493 846.309L494 848.329L495 850.356L496 852.39L497 854.431L498 856.479L499 858.534L500 860.596L501 862.664L502 864.739L503 866.82L504 868.908L505 871.002L506 873.103L507 875.209L508 877.322L509 879.441L510 881.566L511 883.696L512 885.833L513 887.975L514 890.123L515 892.277L516 894.435L517 896.6L518 898.77L519 900.945L520 903.125L521 905.31L522 907.5L523 909.696L524 911.896L525 914.101L526 916.31L527 918.524L528 920.743L529 922.966L530 925.194L531 927.426L532 929.662L533 931.902L534 934.146L535 936.394L536 938.646L537 940.902L538 943.162L539 945.425L540 947.692L541 949.962L542 952.236L543 954.512L544 956.793L545 959.076L546 961.362L547 963.651L548 965.943L549 968.238L550 970.536L551 972.836L552 975.139L553 977.444L554 979.752L555 982.062L556 984.374L557 986.688L558 989.004L559 991.323L560 993.643L561 995.964L562 998.288L563 1000.61L564 1002.94L565 1005.27L566 1007.6L567 1009.93L568 1012.26L569 1014.59L570 1016.93L571 1019.26L572 1021.6L573 1023.93L574 1026.27L575 1028.61L576 1030.95L577 1033.29L578 1035.62L579 1037.96L580 1040.3L581 1042.64L582 1044.98L583 1047.32L584 1049.66L585 1052L586 1054.34L587 1056.68L588 1059.01L589 1061.35L590 1063.69L591 1066.02L592 1068.36L593 1070.69L594 1073.02L595 1075.35L596 1077.68L597 1080.01L598 1082.34L599 1084.66L600 1086.99L601 1089.31L602 1091.63L603 1093.95L604 1096.27L605 1098.58L606 1100.9L607 1103.21L608 1105.52L609 1107.82L610 1110.13L611 1112.43L612 1114.73L613 1117.02L614 1119.32L615 1121.61L616 1123.89L617 1126.18L618 1128.46L619 1130.74L620 1133.01L621 1135.29L622 1137.55L623 1139.82L624 1142.08L625 1144.34L626 1146.59L627 1148.84L628 1151.09L629 1153.33L630 1155.57L631 1157.8L632 1160.03L633 1162.26L634 1164.48L635 1166.69L636 1168.9L637 1171.11L638 1173.31L639 1175.51L640 1177.7L641 1179.89L642 1182.07L643 1184.25L644 1186.42L645 1188.59L646 1190.75L647 1192.91L648 1195.06L649 1197.2L650 1199.34L651 1201.47L652 1203.6L653 1205.72L654 1207.84L655 1209.95L656 1212.05L657 1214.15L658 1216.24L659 1218.32L660 1220.4L661 1222.47L662 1224.54L663 1226.6L664 1228.65L665 1230.69L666 1232.73L667 1234.76L668 1236.78L669 1238.8L670 1240.81L671 1242.81L672 1244.8L673 1246.79L674 1248.77L675 1250.74L676 1252.7L677 1254.66L678 1256.61L679 1258.55L680 1260.48L681 1262.41L682 1264.32L683 1266.23L684 1268.13L685 1270.02L686 1271.91L687 1273.78L688 1275.65L689 1277.51L690 1279.35L691 1281.2L692 1283.03L693 1284.85L694 1286.66L695 1288.47L696 1290.26L697 1292.05L698 1293.83L699 1295.6L700 1297.36L701 1299.11L702 1300.85L703 1302.58L704 1304.3L705 1306.01L706 1307.71L707 1309.4L708 1311.09L709 1312.76L710 1314.42L711 1316.07L712 1317.71L713 1319.35L714 1320.97L715 1322.58L716 1324.18L717 1325.77L718 1327.35L719 1328.92L720 1330.48L721 1332.03L722 1333.57L723 1335.1L724 1336.62L725 1338.12L726 1339.62L727 1341.1L728 1342.57L729 1344.04L730 1345.49L731 1346.93L732 1348.36L733 1349.77L734 1351.18L735 1352.57L736 1353.96L737 1355.33L738 1356.69L739 1358.04L740 1359.38L741 1360.7L742 1362.02L743 1363.32L744 1364.61L745 1365.89L746 1367.15L747 1368.41L748 1369.65L749 1370.88L750 1372.1L751 1373.31L752 1374.5L753 1375.68L754 1376.85L755 1378.01L756 1379.16L757 1380.29L758 1381.41L759 1382.52L760 1383.61L761 1384.7L762 1385.77L763 1386.82L764 1387.87L765 1388.9L766 1389.92L767 1390.93L768 1391.92L769 1392.9L770 1393.87L771 1394.83L772 1395.77L773 1396.7L774 1397.61L775 1398.52L776 1399.41L777 1400.29L778 1401.15L779 1402L780 1402.84L781 1403.66L782 1404.47L783 1405.27L784 1406.05L785 1406.83L786 1407.58L787 1408.33L788 1409.06L789 1409.77L790 1410.48L791 1411.17L792 1411.84L793 1412.51L794 1413.16L795 1413.79L796 1414.41L797 1415.02L798 1415.62L799 1416.2L800 1416.77L801 1417.32L802 1417.86L803 1418.38L804 1418.9L805 1419.39L806 1419.88L807 1420.35L808 1420.81L809 1421.25L810 1421.68L811 1422.09L812 1422.49L813 1422.88L814 1423.25L815 1423.61L816 1423.96L817 1424.29L818 1424.6L819 1424.91L820 1425.19L821 1425.47L822 1425.73L823 1425.98L824 1426.21L825 1426.43L826 1426.63L827 1426.82L828 1427L829 1427.16L830 1427.3L831 1427.44L832 1427.56L833 1427.66L834 1427.75L835 1427.83L836 1427.89L837 1427.94L838 1427.97L839 1427.99L840 1428L841 1427.99L842 1427.97L843 1427.93L844 1427.88L845 1427.82L846 1427.74L847 1427.64L848 1427.54L849 1427.41L850 1427.28L851 1427.13L852 1426.96L853 1426.79L854 1426.59L855 1426.39L856 1426.17L857 1425.93L858 1425.68L859 1425.42L860 1425.14L861 1424.85L862 1424.55L863 1424.23L864 1423.89L865 1423.55L866 1423.18L867 1422.81L868 1422.42L869 1422.02L870 1421.6L871 1421.17L872 1420.72L873 1420.26L874 1419.79L875 1419.3L876 1418.8L877 1418.29L878 1417.76L879 1417.22L880 1416.66L881 1416.09L882 1415.51L883 1414.91L884 1414.3L885 1413.68L886 1413.04L887 1412.39L888 1411.72L889 1411.04L890 1410.35L891 1409.64L892 1408.92L893 1408.19L894 1407.44L895 1406.68L896 1405.91L897 1405.12L898 1404.32L899 1403.51L900 1402.68L901 1401.84L902 1400.99L903 1400.12L904 1399.24L905 1398.35L906 1397.45L907 1396.53L908 1395.59L909 1394.65L910 1393.69L911 1392.72L912 1391.74L913 1390.74L914 1389.73L915 1388.71L916 1387.68L917 1386.63L918 1385.57L919 1384.5L920 1383.41L921 1382.31L922 1381.2L923 1380.08L924 1378.94L925 1377.8L926 1376.64L927 1375.47L928 1374.28L929 1373.08L930 1371.88L931 1370.65L932 1369.42L933 1368.18L934 1366.92L935 1365.65L936 1364.37L937 1363.08L938 1361.77L939 1360.46L940 1359.13L941 1357.79L942 1356.44L943 1355.08L944 1353.7L945 1352.32L946 1350.92L947 1349.51L948 1348.09L949 1346.66L950 1345.22L951 1343.77L952 1342.3L953 1340.83L954 1339.34L955 1337.84L956 1336.33L957 1334.82L958 1333.29L959 1331.74L960 1330.19L961 1328.63L962 1327.06L963 1325.48L964 1323.88L965 1322.28L966 1320.67L967 1319.04L968 1317.41L969 1315.77L970 1314.11L971 1312.45L972 1310.77L973 1309.09L974 1307.4L975 1305.69L976 1303.98L977 1302.26L978 1300.52L979 1298.78L980 1297.03L981 1295.27L982 1293.5L983 1291.72L984 1289.93L985 1288.13L986 1286.33L987 1284.51L988 1282.69L989 1280.85L990 1279.01L991 1277.16L992 1275.3L993 1273.43L994 1271.56L995 1269.67L996 1267.78L997 1265.88L998 1263.97L999 1262.05L1000 1260.12L1001 1258.19L1002 1256.25L1003 1254.3L1004 1252.34L1005 1250.37L1006 1248.4L1007 1246.42L1008 1244.43L1009 1242.44L1010 1240.43L1011 1238.42L1012 1236.41L1013 1234.38L1014 1232.35L1015 1230.31L1016 1228.27L1017 1226.21L1018 1224.15L1019 1222.09L1020 1220.02L1021 1217.94L1022 1215.85L1023 1213.76L1024 1211.66L1025 1209.56L1026 1207.45L1027 1205.33L1028 1203.21L1029 1201.08L1030 1198.94L1031 1196.8L1032 1194.66L1033 1192.51L1034 1190.35L1035 1188.19L1036 1186.02L1037 1183.85L1038 1181.67L1039 1179.48L1040 1177.3L1041 1175.1L1042 1172.9L1043 1170.7L1044 1168.49L1045 1166.28L1046 1164.06L1047 1161.84L1048 1159.62L1049 1157.39L1050 1155.15L1051 1152.91L1052 1150.67L1053 1148.42L1054 1146.17L1055 1143.92L1056 1141.66L1057 1139.4L1058 1137.13L1059 1134.86L1060 1132.59L1061 1130.31L1062 1128.04L1063 1125.75L1064 1123.47L1065 1121.18L1066 1118.89L1067 1116.6L1068 1114.3L1069 1112L1070 1109.7L1071 1107.39L1072 1105.09L1073 1102.78L1074 1100.47L1075 1098.15L1076 1095.84L1077 1093.52L1078 1091.2L1079 1088.88L1080 1086.56L1081 1084.23L1082 1081.91L1083 1079.58" stroke="url(#paint16_linear_380_38)" stroke-width="26" stroke-miterlimit="10" stroke-linecap="round" stroke-linejoin="round"/>
<path d="M31 1083H1087V1106H31V1083Z" fill="url(#paint17_linear_380_38)"/>
<defs>
<linearGradient id="paint0_linear_380_38" x1="1024.5" y1="1211" x2="1024.5" y2="1332" gradientUnits="userSpaceOnUse">
<stop stop-color="#B338B3"/>
<stop offset="0.495" stop-color="#1F30EB"/>
<stop offset="1" stop-color="#2CDFEC"/>
</linearGradient>
<linearGradient id="paint1_linear_380_38" x1="965.5" y1="1319" x2="965.5" y2="1548" gradientUnits="userSpaceOnUse">
<stop stop-color="#B338B3"/>
<stop offset="0.495" stop-color="#1F30EB"/>
<stop offset="1" stop-color="#2CDFEC"/>
</linearGradient>
<linearGradient id="paint2_linear_380_38" x1="906.5" y1="1389" x2="906.5" y2="1687" gradientUnits="userSpaceOnUse">
<stop stop-color="#B338B3"/>
<stop offset="0.495" stop-color="#1F30EB"/>
<stop offset="1" stop-color="#2CDFEC"/>
</linearGradient>
<linearGradient id="paint3_linear_380_38" x1="845.5" y1="1428" x2="845.5" y2="1765" gradientUnits="userSpaceOnUse">
<stop stop-color="#B338B3"/>
<stop offset="0.495" stop-color="#1F30EB"/>
<stop offset="1" stop-color="#2CDFEC"/>
</linearGradient>
<linearGradient id="paint4_linear_380_38" x1="786.5" y1="1389" x2="786.5" y2="1687" gradientUnits="userSpaceOnUse">
<stop stop-color="#B338B3"/>
<stop offset="0.495" stop-color="#1F30EB"/>
<stop offset="1" stop-color="#2CDFEC"/>
</linearGradient>
<linearGradient id="paint5_linear_380_38" x1="727.5" y1="1325" x2="727.5" y2="1560" gradientUnits="userSpaceOnUse">
<stop stop-color="#B338B3"/>
<stop offset="0.495" stop-color="#1F30EB"/>
<stop offset="1" stop-color="#2CDFEC"/>
</linearGradient>
<linearGradient id="paint6_linear_380_38" x1="675.5" y1="1235" x2="675.5" y2="1380" gradientUnits="userSpaceOnUse">
<stop stop-color="#B338B3"/>
<stop offset="0.495" stop-color="#1F30EB"/>
<stop offset="1" stop-color="#2CDFEC"/>
</linearGradient>
<linearGradient id="paint7_linear_380_38" x1="93.5" y1="993" x2="93.5" y2="1097" gradientUnits="userSpaceOnUse">
<stop stop-color="#B338B3"/>
<stop offset="0.495" stop-color="#1F30EB"/>
<stop offset="1" stop-color="#2CDFEC"/>
</linearGradient>
<linearGradient id="paint8_linear_380_38" x1="204.5" y1="765" x2="204.5" y2="1097" gradientUnits="userSpaceOnUse">
<stop stop-color="#B338B3"/>
<stop offset="0.495" stop-color="#1F30EB"/>
<stop offset="1" stop-color="#2CDFEC"/>
</linearGradient>
<linearGradient id="paint9_linear_380_38" x1="145.5" y1="873" x2="145.5" y2="1097" gradientUnits="userSpaceOnUse">
<stop stop-color="#B338B3"/>
<stop offset="0.495" stop-color="#1F30EB"/>
<stop offset="1" stop-color="#2CDFEC"/>
</linearGradient>
<linearGradient id="paint10_linear_380_38" x1="324.5" y1="656" x2="324.5" y2="1097" gradientUnits="userSpaceOnUse">
<stop stop-color="#B338B3"/>
<stop offset="0.495" stop-color="#1F30EB"/>
<stop offset="1" stop-color="#2CDFEC"/>
</linearGradient>
<linearGradient id="paint11_linear_380_38" x1="263.5" y1="695" x2="263.5" y2="1097" gradientUnits="userSpaceOnUse">
<stop stop-color="#B338B3"/>
<stop offset="0.495" stop-color="#1F30EB"/>
<stop offset="1" stop-color="#2CDFEC"/>
</linearGradient>
<linearGradient id="paint12_linear_380_38" x1="383.5" y1="695" x2="383.5" y2="1097" gradientUnits="userSpaceOnUse">
<stop stop-color="#B338B3"/>
<stop offset="0.495" stop-color="#1F30EB"/>
<stop offset="1" stop-color="#2CDFEC"/>
</linearGradient>
<linearGradient id="paint13_linear_380_38" x1="442.5" y1="759" x2="442.5" y2="1091" gradientUnits="userSpaceOnUse">
<stop stop-color="#B338B3"/>
<stop offset="0.495" stop-color="#1F30EB"/>
<stop offset="1" stop-color="#2CDFEC"/>
</linearGradient>
<linearGradient id="paint14_linear_380_38" x1="494.5" y1="849" x2="494.5" y2="1097" gradientUnits="userSpaceOnUse">
<stop stop-color="#B338B3"/>
<stop offset="0.495" stop-color="#1F30EB"/>
<stop offset="1" stop-color="#2CDFEC"/>
</linearGradient>
<linearGradient id="paint15_linear_380_38" x1="546.5" y1="980" x2="546.5" y2="1097" gradientUnits="userSpaceOnUse">
<stop stop-color="#B338B3"/>
<stop offset="0.495" stop-color="#1F30EB"/>
<stop offset="1" stop-color="#2CDFEC"/>
</linearGradient>
<linearGradient id="paint16_linear_380_38" x1="33" y1="1042" x2="1083" y2="1042" gradientUnits="userSpaceOnUse">
<stop stop-color="#B338B3"/>
<stop offset="0.495" stop-color="#1F30EB"/>
<stop offset="1" stop-color="#2CDFEC"/>
</linearGradient>
<linearGradient id="paint17_linear_380_38" x1="31" y1="1094.5" x2="1087" y2="1094.5" gradientUnits="userSpaceOnUse">
<stop stop-color="#B338B3"/>
<stop offset="0.495" stop-color="#1F30EB"/>
<stop offset="1" stop-color="#2CDFEC"/>
</linearGradient>
</defs>
</svg>
