<svg width="1165" height="1165" viewBox="0 0 1165 1165" fill="none" xmlns="http://www.w3.org/2000/svg">
<g clip-path="url(#clip0_330_59)">
<rect x="113" y="526.513" width="20" height="102.678" fill="url(#paint0_linear_330_59)"/>
<rect x="224" y="301.411" width="20" height="327.78" fill="url(#paint1_linear_330_59)"/>
<rect x="344" y="193.797" width="20" height="435.394" fill="url(#paint2_linear_330_59)"/>
<rect x="462" y="295.487" width="20" height="327.78" fill="url(#paint3_linear_330_59)"/>
<rect x="566" y="513.678" width="20" height="115.513" fill="url(#paint4_linear_330_59)"/>
<rect x="1044" y="741.742" width="20" height="119.462" transform="rotate(-180 1044 741.742)" fill="url(#paint5_linear_330_59)"/>
<rect x="985" y="848.369" width="20" height="226.089" transform="rotate(-180 985 848.369)" fill="url(#paint6_linear_330_59)"/>
<rect x="865" y="955.983" width="20" height="332.716" transform="rotate(-180 865 955.983)" fill="url(#paint7_linear_330_59)"/>
<rect x="747" y="854.293" width="20" height="232.013" transform="rotate(-180 747 854.293)" fill="url(#paint8_linear_330_59)"/>
<rect x="695" y="765.437" width="20" height="143.157" transform="rotate(-180 695 765.437)" fill="url(#paint9_linear_330_59)"/>
<path d="M57 642.351L58 640.077L59 637.8L60 635.521L61 633.239L62 630.956L63 628.67L64 626.383L65 624.094L66 621.802L67 619.509L68 617.215L69 614.919L70 612.621L71 610.322L72 608.022L73 605.72L74 603.418L75 601.114L76 598.809L77 596.504L78 594.197L79 591.89L80 589.583L81 587.275L82 584.966L83 582.657L84 580.348L85 578.038L86 575.729L87 573.419L88 571.109L89 568.8L90 566.491L91 564.182L92 561.873L93 559.565L94 557.258L95 554.951L96 552.645L97 550.339L98 548.035L99 545.732L100 543.429L101 541.128L102 538.828L103 536.529L104 534.232L105 531.937L106 529.642L107 527.35L108 525.059L109 522.77L110 520.483L111 518.198L112 515.915L113 513.635L114 511.356L115 509.08L116 506.806L117 504.535L118 502.266L119 500L120 497.737L121 495.477L122 493.219L123 490.965L124 488.713L125 486.465L126 484.22L127 481.979L128 479.74L129 477.506L130 475.274L131 473.047L132 470.823L133 468.603L134 466.387L135 464.175L136 461.967L137 459.763L138 457.564L139 455.368L140 453.177L141 450.991L142 448.809L143 446.632L144 444.459L145 442.292L146 440.129L147 437.971L148 435.818L149 433.67L150 431.527L151 429.39L152 427.258L153 425.131L154 423.01L155 420.895L156 418.785L157 416.681L158 414.583L159 412.49L160 410.404L161 408.323L162 406.249L163 404.181L164 402.119L165 400.064L166 398.015L167 395.972L168 393.936L169 391.907L170 389.884L171 387.868L172 385.859L173 383.857L174 381.862L175 379.874L176 377.894L177 375.92L178 373.954L179 371.995L180 370.044L181 368.1L182 366.164L183 364.235L184 362.314L185 360.401L186 358.496L187 356.599L188 354.71L189 352.829L190 350.956L191 349.091L192 347.235L193 345.386L194 343.547L195 341.716L196 339.893L197 338.079L198 336.274L199 334.477L200 332.69L201 330.911L202 329.141L203 327.381L204 325.629L205 323.886L206 322.153L207 320.429L208 318.714L209 317.009L210 315.313L211 313.627L212 311.95L213 310.283L214 308.626L215 306.979L216 305.341L217 303.713L218 302.095L219 300.488L220 298.89L221 297.302L222 295.725L223 294.158L224 292.601L225 291.055L226 289.519L227 287.993L228 286.478L229 284.974L230 283.48L231 281.997L232 280.525L233 279.063L234 277.613L235 276.173L236 274.744L237 273.327L238 271.92L239 270.525L240 269.14L241 267.767L242 266.406L243 265.055L244 263.716L245 262.388L246 261.072L247 259.768L248 258.474L249 257.193L250 255.923L251 254.665L252 253.419L253 252.184L254 250.962L255 249.751L256 248.552L257 247.365L258 246.191L259 245.028L260 243.877L261 242.739L262 241.613L263 240.499L264 239.397L265 238.308L266 237.231L267 236.166L268 235.114L269 234.074L270 233.047L271 232.032L272 231.03L273 230.041L274 229.064L275 228.1L276 227.149L277 226.21L278 225.285L279 224.372L280 223.472L281 222.585L282 221.711L283 220.849L284 220.001L285 219.166L286 218.344L287 217.535L288 216.739L289 215.957L290 215.187L291 214.431L292 213.688L293 212.958L294 212.241L295 211.538L296 210.849L297 210.172L298 209.509L299 208.859L300 208.223L301 207.6L302 206.991L303 206.396L304 205.813L305 205.245L306 204.69L307 204.148L308 203.62L309 203.106L310 202.606L311 202.119L312 201.646L313 201.186L314 200.74L315 200.308L316 199.89L317 199.486L318 199.095L319 198.718L320 198.355L321 198.006L322 197.671L323 197.349L324 197.041L325 196.748L326 196.468L327 196.202L328 195.95L329 195.711L330 195.487L331 195.277L332 195.081L333 194.898L334 194.73L335 194.575L336 194.435L337 194.308L338 194.196L339 194.097L340 194.012L341 193.942L342 193.885L343 193.843L344 193.814L345 193.799L346 193.799L347 193.812L348 193.84L349 193.881L350 193.936L351 194.006L352 194.089L353 194.186L354 194.298L355 194.423L356 194.562L357 194.716L358 194.883L359 195.064L360 195.259L361 195.468L362 195.691L363 195.928L364 196.179L365 196.444L366 196.722L367 197.015L368 197.321L369 197.642L370 197.976L371 198.324L372 198.686L373 199.061L374 199.451L375 199.854L376 200.271L377 200.702L378 201.146L379 201.604L380 202.076L381 202.562L382 203.061L383 203.574L384 204.101L385 204.641L386 205.195L387 205.763L388 206.344L389 206.938L390 207.546L391 208.168L392 208.803L393 209.451L394 210.113L395 210.788L396 211.477L397 212.179L398 212.894L399 213.623L400 214.365L401 215.12L402 215.888L403 216.67L404 217.464L405 218.272L406 219.093L407 219.927L408 220.774L409 221.634L410 222.507L411 223.393L412 224.292L413 225.204L414 226.128L415 227.065L416 228.016L417 228.979L418 229.954L419 230.942L420 231.943L421 232.957L422 233.983L423 235.022L424 236.073L425 237.136L426 238.212L427 239.3L428 240.401L429 241.514L430 242.639L431 243.776L432 244.926L433 246.087L434 247.261L435 248.447L436 249.645L437 250.854L438 252.076L439 253.309L440 254.555L441 255.812L442 257.08L443 258.361L444 259.653L445 260.956L446 262.272L447 263.598L448 264.936L449 266.286L450 267.647L451 269.019L452 270.402L453 271.796L454 273.202L455 274.619L456 276.046L457 277.485L458 278.935L459 280.395L460 281.867L461 283.349L462 284.841L463 286.345L464 287.859L465 289.384L466 290.919L467 292.464L468 294.02L469 295.586L470 297.163L471 298.749L472 300.346L473 301.953L474 303.57L475 305.197L476 306.834L477 308.48L478 310.137L479 311.803L480 313.479L481 315.164L482 316.859L483 318.563L484 320.277L485 322L486 323.733L487 325.475L488 327.225L489 328.985L490 330.754L491 332.532L492 334.319L493 336.115L494 337.919L495 339.733L496 341.554L497 343.385L498 345.224L499 347.071L500 348.927L501 350.791L502 352.663L503 354.543L504 356.432L505 358.328L506 360.233L507 362.145L508 364.065L509 365.993L510 367.929L511 369.872L512 371.822L513 373.781L514 375.746L515 377.719L516 379.699L517 381.686L518 383.681L519 385.682L520 387.69L521 389.706L522 391.728L523 393.756L524 395.792L525 397.834L526 399.882L527 401.937L528 403.999L529 406.066L530 408.14L531 410.22L532 412.306L533 414.397L534 416.495L535 418.599L536 420.708L537 422.823L538 424.944L539 427.07L540 429.201L541 431.338L542 433.48L543 435.628L544 437.78L545 439.938L546 442.1L547 444.268L548 446.44L549 448.617L550 450.798L551 452.984L552 455.175L553 457.37L554 459.569L555 461.772L556 463.98L557 466.192L558 468.407L559 470.627L560 472.85L561 475.077L562 477.308L563 479.543L564 481.781L565 484.022L566 486.267L567 488.515L568 490.766L569 493.02L570 495.277L571 497.537L572 499.8L573 502.066L574 504.335L575 506.606L576 508.879L577 511.155L578 513.433L579 515.714L580 517.997L581 520.281L582 522.568L583 524.857L584 527.147L585 529.44L586 531.734L587 534.029L588 536.326L589 538.625L590 540.925L591 543.226L592 545.528L593 547.831L594 550.136L595 552.441L596 554.747L597 557.054L598 559.361L599 561.669L600 563.978L601 566.287L602 568.596L603 570.905L604 573.215L605 575.524L606 577.834L607 580.144L608 582.453L609 584.762L610 587.071L611 589.379L612 591.687L613 593.994L614 596.3L615 598.606L616 600.91L617 603.214L618 605.517L619 607.818L620 610.119L621 612.418L622 614.716L623 617.012L624 619.307L625 621.6L626 623.891L627 626.181L628 628.468L629 630.754L630 633.038L631 635.319L632 637.599L633 639.876L634 642.15L635 644.422L636 646.692L637 648.959L638 651.223L639 653.485L640 655.743L641 657.999L642 660.251L643 662.501L644 664.747L645 666.99L646 669.229L647 671.465L648 673.698L649 675.927L650 678.152L651 680.373L652 682.591L653 684.804L654 687.013L655 689.219L656 691.42L657 693.617L658 695.809L659 697.997L660 700.181L661 702.36L662 704.534L663 706.704L664 708.868L665 711.028L666 713.183L667 715.333L668 717.477L669 719.616L670 721.75L671 723.879L672 726.002L673 728.119L674 730.231L675 732.338L676 734.438L677 736.533L678 738.621L679 740.704L680 742.78L681 744.851L682 746.915L683 748.973L684 751.024L685 753.069L686 755.107L687 757.139L688 759.164L689 761.182L690 763.194L691 765.198L692 767.196L693 769.186L694 771.17L695 773.146L696 775.115L697 777.076L698 779.03L699 780.977L700 782.916L701 784.847L702 786.771L703 788.687L704 790.595L705 792.495L706 794.387L707 796.271L708 798.147L709 800.015L710 801.874L711 803.725L712 805.568L713 807.402L714 809.228L715 811.045L716 812.853L717 814.653L718 816.444L719 818.226L720 819.999L721 821.763L722 823.518L723 825.264L724 827L725 828.728L726 830.446L727 832.154L728 833.854L729 835.543L730 837.224L731 838.894L732 840.555L733 842.206L734 843.847L735 845.479L736 847.1L737 848.711L738 850.313L739 851.904L740 853.485L741 855.056L742 856.616L743 858.167L744 859.706L745 861.236L746 862.755L747 864.263L748 865.76L749 867.247L750 868.723L751 870.189L752 871.643L753 873.087L754 874.52L755 875.941L756 877.352L757 878.752L758 880.14L759 881.517L760 882.883L761 884.237L762 885.581L763 886.913L764 888.233L765 889.542L766 890.839L767 892.125L768 893.399L769 894.661L770 895.912L771 897.15L772 898.377L773 899.592L774 900.795L775 901.987L776 903.166L777 904.333L778 905.488L779 906.631L780 907.761L781 908.88L782 909.986L783 911.08L784 912.161L785 913.23L786 914.287L787 915.331L788 916.363L789 917.382L790 918.389L791 919.383L792 920.364L793 921.333L794 922.289L795 923.232L796 924.162L797 925.08L798 925.984L799 926.876L800 927.755L801 928.621L802 929.474L803 930.314L804 931.14L805 931.954L806 932.755L807 933.542L808 934.316L809 935.078L810 935.825L811 936.56L812 937.281L813 937.989L814 938.684L815 939.365L816 940.033L817 940.688L818 941.329L819 941.956L820 942.571L821 943.171L822 943.758L823 944.332L824 944.892L825 945.438L826 945.971L827 946.49L828 946.996L829 947.487L830 947.966L831 948.43L832 948.881L833 949.318L834 949.741L835 950.15L836 950.546L837 950.928L838 951.296L839 951.65L840 951.991L841 952.317L842 952.63L843 952.929L844 953.214L845 953.485L846 953.742L847 953.985L848 954.214L849 954.43L850 954.631L851 954.818L852 954.992L853 955.152L854 955.297L855 955.429L856 955.546L857 955.65L858 955.74L859 955.815L860 955.877L861 955.925L862 955.958L863 955.978L864 955.984L865 955.975L866 955.953L867 955.917L868 955.867L869 955.802L870 955.724L871 955.632L872 955.525L873 955.405L874 955.271L875 955.123L876 954.961L877 954.785L878 954.595L879 954.391L880 954.173L881 953.941L882 953.695L883 953.435L884 953.162L885 952.874L886 952.573L887 952.257L888 951.928L889 951.585L890 951.229L891 950.858L892 950.473L893 950.075L894 949.663L895 949.237L896 948.798L897 948.345L898 947.878L899 947.397L900 946.902L901 946.395L902 945.873L903 945.337L904 944.789L905 944.226L906 943.65L907 943.06L908 942.457L909 941.841L910 941.211L911 940.567L912 939.91L913 939.24L914 938.556L915 937.859L916 937.148L917 936.424L918 935.687L919 934.937L920 934.173L921 933.397L922 932.607L923 931.804L924 930.988L925 930.158L926 929.316L927 928.461L928 927.592L929 926.711L930 925.817L931 924.91L932 923.99L933 923.057L934 922.112L935 921.153L936 920.182L937 919.199L938 918.202L939 917.193L940 916.172L941 915.138L942 914.091L943 913.032L944 911.961L945 910.877L946 909.781L947 908.673L948 907.552L949 906.419L950 905.274L951 904.117L952 902.947L953 901.766L954 900.572L955 899.367L956 898.15L957 896.921L958 895.68L959 894.427L960 893.162L961 891.886L962 890.598L963 889.299L964 887.988L965 886.666L966 885.332L967 883.986L968 882.63L969 881.262L970 879.882L971 878.492L972 877.09L973 875.678L974 874.254L975 872.819L976 871.374L977 869.917L978 868.45L979 866.971L980 865.482L981 863.983L982 862.473L983 860.952L984 859.421L985 857.879L986 856.327L987 854.764L988 853.192L989 851.609L990 850.016L991 848.412L992 846.799L993 845.176L994 843.543L995 841.899L996 840.247L997 838.584L998 836.912L999 835.23L1000 833.538L1001 831.837L1002 830.127L1003 828.407L1004 826.678L1005 824.94L1006 823.192L1007 821.435L1008 819.67L1009 817.895L1010 816.111L1011 814.319L1012 812.518L1013 810.707L1014 808.889L1015 807.062L1016 805.226L1017 803.381L1018 801.529L1019 799.668L1020 797.799L1021 795.921L1022 794.036L1023 792.142L1024 790.24L1025 788.331L1026 786.414L1027 784.489L1028 782.556L1029 780.615L1030 778.667L1031 776.712L1032 774.749L1033 772.779L1034 770.801L1035 768.817L1036 766.825L1037 764.826L1038 762.82L1039 760.807L1040 758.788L1041 756.761L1042 754.729L1043 752.689L1044 750.643L1045 748.59L1046 746.531L1047 744.466L1048 742.394L1049 740.317L1050 738.233L1051 736.143L1052 734.048L1053 731.946L1054 729.839L1055 727.726L1056 725.607L1057 723.483L1058 721.354L1059 719.219L1060 717.078L1061 714.933L1062 712.782L1063 710.627L1064 708.466L1065 706.3L1066 704.13L1067 701.955L1068 699.775L1069 697.591L1070 695.402L1071 693.208L1072 691.011L1073 688.809L1074 686.603L1075 684.393L1076 682.178L1077 679.96L1078 677.738L1079 675.512L1080 673.283L1081 671.049L1082 668.813L1083 666.573L1084 664.329L1085 662.082L1086 659.832L1087 657.579L1088 655.323L1089 653.064L1090 650.802L1091 648.537L1092 646.27L1093 644L1094 641.727L1095 639.452L1096 637.175L1097 634.895L1098 632.613L1099 630.329L1100 628.043L1101 625.755L1102 623.465L1103 621.173L1104 618.88L1105 616.585L1106 614.288L1107 611.99" stroke="url(#paint10_linear_330_59)" stroke-width="50" stroke-miterlimit="10" stroke-linecap="round" stroke-linejoin="round"/>
<path d="M24 614.114H1141V644.114H24V614.114Z" fill="url(#paint11_linear_330_59)"/>
</g>
<defs>
<linearGradient id="paint0_linear_330_59" x1="123" y1="526.513" x2="123" y2="629.191" gradientUnits="userSpaceOnUse">
<stop stop-color="#B338B3"/>
<stop offset="0.495" stop-color="#1F30EB"/>
<stop offset="1" stop-color="#2CDFEC"/>
</linearGradient>
<linearGradient id="paint1_linear_330_59" x1="234" y1="301.411" x2="234" y2="629.191" gradientUnits="userSpaceOnUse">
<stop stop-color="#B338B3"/>
<stop offset="0.495" stop-color="#1F30EB"/>
<stop offset="1" stop-color="#2CDFEC"/>
</linearGradient>
<linearGradient id="paint2_linear_330_59" x1="354" y1="193.797" x2="354" y2="629.191" gradientUnits="userSpaceOnUse">
<stop stop-color="#B338B3"/>
<stop offset="0.495" stop-color="#1F30EB"/>
<stop offset="1" stop-color="#2CDFEC"/>
</linearGradient>
<linearGradient id="paint3_linear_330_59" x1="472" y1="295.487" x2="472" y2="623.267" gradientUnits="userSpaceOnUse">
<stop stop-color="#B338B3"/>
<stop offset="0.495" stop-color="#1F30EB"/>
<stop offset="1" stop-color="#2CDFEC"/>
</linearGradient>
<linearGradient id="paint4_linear_330_59" x1="576" y1="513.678" x2="576" y2="629.19" gradientUnits="userSpaceOnUse">
<stop stop-color="#B338B3"/>
<stop offset="0.495" stop-color="#1F30EB"/>
<stop offset="1" stop-color="#2CDFEC"/>
</linearGradient>
<linearGradient id="paint5_linear_330_59" x1="1054" y1="741.742" x2="1054" y2="861.204" gradientUnits="userSpaceOnUse">
<stop stop-color="#B338B3"/>
<stop offset="0.495" stop-color="#1F30EB"/>
<stop offset="1" stop-color="#2CDFEC"/>
</linearGradient>
<linearGradient id="paint6_linear_330_59" x1="995" y1="848.369" x2="995" y2="1074.46" gradientUnits="userSpaceOnUse">
<stop stop-color="#B338B3"/>
<stop offset="0.495" stop-color="#1F30EB"/>
<stop offset="1" stop-color="#2CDFEC"/>
</linearGradient>
<linearGradient id="paint7_linear_330_59" x1="875" y1="955.983" x2="875" y2="1288.7" gradientUnits="userSpaceOnUse">
<stop stop-color="#B338B3"/>
<stop offset="0.495" stop-color="#1F30EB"/>
<stop offset="1" stop-color="#2CDFEC"/>
</linearGradient>
<linearGradient id="paint8_linear_330_59" x1="757" y1="854.293" x2="757" y2="1086.31" gradientUnits="userSpaceOnUse">
<stop stop-color="#B338B3"/>
<stop offset="0.495" stop-color="#1F30EB"/>
<stop offset="1" stop-color="#2CDFEC"/>
</linearGradient>
<linearGradient id="paint9_linear_330_59" x1="705" y1="765.437" x2="705" y2="908.593" gradientUnits="userSpaceOnUse">
<stop stop-color="#B338B3"/>
<stop offset="0.495" stop-color="#1F30EB"/>
<stop offset="1" stop-color="#2CDFEC"/>
</linearGradient>
<linearGradient id="paint10_linear_330_59" x1="57" y1="574.891" x2="1107" y2="574.891" gradientUnits="userSpaceOnUse">
<stop stop-color="#E700DB"/>
<stop offset="0.495" stop-color="#002DF5"/>
<stop offset="1" stop-color="#2CDFEC"/>
</linearGradient>
<linearGradient id="paint11_linear_330_59" x1="24" y1="629.115" x2="1141" y2="629.115" gradientUnits="userSpaceOnUse">
<stop stop-color="#B338B3"/>
<stop offset="0.495" stop-color="#1F30EB"/>
<stop offset="1" stop-color="#2CDFEC"/>
</linearGradient>
<clipPath id="clip0_330_59">
<rect width="1165" height="1165" rx="200" fill="white"/>
</clipPath>
</defs>
</svg>
