<svg width="2827" height="1444" viewBox="0 0 2827 1444" fill="none" xmlns="http://www.w3.org/2000/svg">
<path d="M1958.22 2.50699C1895.08 12.4355 1820.81 45.0013 1762.83 88.2898C1745.75 101.396 1698.09 145.081 1656.39 185.59C1615.09 226.098 1572.99 264.621 1563.06 271.373C1548.77 281.301 1513.42 296.393 1505.48 296.393C1504.29 296.393 1500.71 290.833 1497.14 283.684C1488.8 267.798 1491.58 241.984 1505.48 201.476C1517.39 165.733 1517.79 151.436 1507.46 134.358C1497.93 118.87 1460.2 99.807 1431.21 95.8355C1412.94 93.0555 1412.15 93.4527 1405.4 105.367C1396.26 121.253 1391.9 120.856 1394.68 104.573C1399.84 78.7584 1419.7 60.4898 1449.08 55.7241C1457.03 54.1356 1463.78 51.3556 1463.78 48.9727C1463.78 42.6184 1423.67 49.767 1401.43 60.4898C1382.76 69.6241 1348.61 101.793 1348.61 110.133C1348.61 112.118 1347.02 113.707 1344.64 113.707C1336.3 113.707 1340.66 90.6727 1350.99 80.347C1358.93 72.8013 1360.12 70.0213 1355.36 70.0213C1344.24 70.0213 1324.78 93.4527 1322.4 110.133C1320.01 124.033 1318.03 126.018 1304.13 130.387C1293.8 133.564 1290.23 136.344 1293.01 139.124C1294.99 141.11 1296.98 144.684 1296.98 146.273C1296.98 151.833 1260.04 173.278 1250.51 173.278C1239 173.278 1232.24 186.384 1235.42 201.476C1238.6 215.376 1239.39 215.376 1253.69 203.064C1265.21 193.533 1291.02 185.987 1295.79 190.753C1299.76 194.724 1289.04 204.653 1274.74 209.021C1267.19 211.404 1261.24 214.978 1261.24 216.964C1261.24 224.113 1275.93 222.921 1298.57 213.787C1317.63 205.844 1326.37 204.653 1344.24 206.638C1369.66 209.418 1383.56 204.256 1390.7 189.561C1397.06 177.25 1393.88 169.704 1381.97 166.924C1376.8 165.733 1372.44 162.953 1372.44 160.967C1372.44 154.613 1387.92 156.996 1395.47 164.541C1401.82 170.896 1403.02 170.896 1412.94 165.336C1433.2 154.216 1446.7 172.881 1434.39 195.916C1431.21 201.873 1416.52 221.333 1401.82 238.807C1376.01 269.784 1356.55 303.144 1356.55 317.441C1356.55 334.518 1378.39 359.936 1393.09 359.936C1402.62 359.936 1449.88 335.313 1444.72 333.327C1441.54 332.136 1428.83 333.327 1416.12 336.107C1388.32 342.064 1382.76 340.476 1377.2 324.987C1372.04 309.498 1382.36 286.067 1408.18 256.281C1449.08 209.021 1460.2 185.193 1450.28 165.733C1442.73 151.436 1435.98 148.656 1404.6 147.861C1383.95 147.067 1377.6 148.258 1371.24 154.613C1365.68 160.173 1364.89 163.35 1368.07 166.527C1370.45 168.91 1372.44 174.867 1372.44 180.03C1372.44 188.767 1371.24 189.164 1342.65 189.164C1314.06 189.164 1293.01 182.413 1293.01 172.881C1293.01 166.13 1333.91 125.621 1341.06 125.621C1345.03 125.621 1354.96 119.664 1362.9 112.913C1371.64 104.97 1378.39 101.793 1379.19 104.573C1379.98 106.956 1384.35 113.31 1388.72 118.076C1396.66 127.21 1397.06 127.21 1408.58 120.458C1424.86 111.324 1441.94 112.118 1465.76 123.238C1487.21 133.167 1499.52 147.464 1499.52 162.556C1499.52 167.718 1494.76 185.193 1489.2 201.476C1482.44 220.538 1478.47 239.998 1478.08 257.473C1477.68 281.698 1478.47 284.876 1489.2 295.996C1514.61 322.207 1556.71 303.938 1628.59 236.027C1661.95 204.653 1662.75 203.858 1656.39 218.95C1652.82 227.687 1648.85 237.218 1647.66 239.998C1646.46 242.778 1648.85 248.736 1652.82 253.104C1659.57 260.65 1659.57 261.047 1650.83 272.961C1645.67 279.713 1642.89 286.067 1644.08 287.258C1645.27 288.45 1665.13 278.124 1688.56 264.621C1884.75 149.847 2083.32 121.253 2262.04 180.824C2282.29 187.973 2299.76 192.738 2300.56 191.547C2302.94 189.561 2247.34 168.116 2212.39 158.187C2121.84 131.578 2010.25 128.798 1904.61 149.847C1825.18 165.733 1723.91 205.447 1672.68 240.396C1662.75 247.544 1654.41 252.31 1654.41 251.118C1654.41 243.97 1708.42 174.073 1735.42 146.273C1807.7 71.6098 1894.28 26.7327 1989.99 14.0241C2044 6.87555 2127.4 12.0384 2172.68 24.747C2178.24 26.3355 2179.43 25.9384 2176.65 23.1584C2162.35 8.06699 2013.42 -5.83304 1958.22 2.50699Z" fill="#EE232B"/>
<path d="M1854.57 256.678C1783.48 261.444 1669.5 281.698 1650.44 292.818C1645.67 295.598 1646.07 296.789 1653.61 298.775C1664.34 301.952 1664.73 304.732 1654.41 313.469C1639.32 326.178 1646.86 326.972 1681.41 315.852C1774.35 285.272 1854.57 272.167 1949.88 272.167C2038.84 272.167 2110.73 281.698 2165.53 300.761C2189.76 309.101 2200.08 310.292 2190.55 304.335C2179.03 296.789 2109.14 275.741 2069.82 268.195C2034.47 261.444 1934 251.912 1908.58 253.501C1903.02 253.501 1878.79 255.089 1854.57 256.678Z" fill="#EE232B"/>
<path d="M2336.3 268.593C2334.71 274.947 2325.98 288.847 2316.84 298.775C2298.18 319.03 2248.14 355.964 2239.4 355.964C2236.62 355.964 2234.24 357.95 2234.24 360.333C2234.24 362.715 2237.02 363.907 2240.19 362.318C2243.37 361.127 2258.46 359.141 2273.16 357.95L2299.77 355.567L2272.76 369.864C2242.97 385.75 2185.39 402.43 2147.66 406.004C2125.82 408.387 2123.04 407.99 2125.42 402.033C2128.6 393.693 2125.02 394.09 2098.02 403.224L2075.78 411.167L2074.59 401.635L2073.39 392.501L2050.76 401.635L2027.72 411.167V399.253C2027.72 392.898 2027.33 387.735 2026.93 387.735C2026.13 387.735 2014.22 391.31 1999.92 395.678C1985.63 400.047 1972.52 403.621 1970.53 403.621C1968.95 403.621 1968.15 397.267 1968.95 389.721C1969.74 381.778 1968.95 375.821 1966.17 375.821C1964.18 375.821 1950.28 380.984 1935.59 387.338C1920.49 393.693 1907.79 397.664 1906.59 395.678C1905.4 394.09 1908.98 384.558 1914.54 374.233C1919.7 364.304 1923.67 355.964 1923.27 355.964C1922.88 356.361 1903.02 362.318 1879.19 369.467C1855.36 376.615 1832.73 381.778 1828.75 380.984C1822.4 378.998 1823.59 376.615 1836.7 360.333C1857.75 335.313 1864.89 319.824 1864.89 299.57L1864.5 282.493L1858.14 294.407C1849.01 311.881 1840.67 320.221 1824.39 328.561C1802.15 339.681 1778.32 342.064 1756.87 334.915C1731.06 325.781 1702.07 322.604 1676.25 326.178C1641.7 330.15 1650.83 337.695 1694.52 340.475C1715.17 342.064 1742.18 346.433 1754.49 350.007C1773.15 355.964 1781.1 356.758 1799.37 353.184C1819.22 349.61 1821.21 350.007 1818.83 355.567C1812.87 370.261 1812.47 377.013 1817.24 385.353C1821.61 393.693 1820.02 397.664 1805.72 420.301C1796.59 434.598 1789.44 448.895 1789.44 452.47C1789.44 460.015 1806.51 472.327 1826.37 478.681C1838.68 483.05 1852.58 496.553 1848.21 500.921C1847.42 501.715 1832.73 500.524 1815.25 498.935C1768.39 493.773 1711.99 470.738 1679.03 442.541C1662.75 428.641 1653.22 428.641 1604.77 442.938C1557.9 456.838 1549.17 463.987 1555.92 481.858C1559.49 491.39 1559.49 496.95 1555.92 504.495C1549.96 517.998 1545.19 517.601 1539.24 503.304C1530.1 481.064 1509.05 464.384 1484.43 460.015C1457.03 455.25 1448.69 458.03 1433.2 477.49L1420.89 492.581L1406.59 481.858L1392.29 470.738L1402.22 457.633C1413.74 442.541 1414.14 436.584 1406.19 425.861C1395.47 411.961 1399.44 402.43 1424.46 377.807C1437.57 364.701 1450.28 350.801 1452.26 346.83C1456.23 340.078 1455.44 340.078 1447.1 344.447C1428.43 353.978 1399.84 377.013 1389.91 390.118C1378 405.21 1379.19 418.315 1392.69 431.818C1402.22 441.35 1400.24 444.924 1379.19 455.647C1365.29 462.795 1358.14 463.987 1333.91 462.001C1318.03 460.81 1304.92 461.604 1304.92 463.193C1304.92 467.561 1288.64 483.05 1284.27 483.05C1282.29 483.05 1281.89 481.064 1283.08 479.078C1290.23 467.561 1211.59 489.801 1199.68 502.907C1191.34 512.041 1195.31 512.835 1209.61 504.893C1215.17 501.715 1223.11 499.333 1227.48 498.935C1233.83 498.935 1232.25 501.318 1220.33 511.247C1203.65 524.75 1193.72 541.43 1193.72 555.33C1193.72 563.273 1194.52 562.875 1200.87 551.755C1207.23 539.444 1233.04 517.204 1236.61 520.381C1237.41 521.175 1236.22 525.544 1233.83 529.913C1227.48 542.224 1228.67 552.55 1237.41 562.875L1245.75 572.407L1243.37 560.095C1240.19 543.018 1246.94 528.324 1261.63 520.778C1273.55 514.424 1280.3 514.424 1304.53 521.175L1314.06 523.955L1304.92 511.644C1293.41 496.155 1296.58 488.61 1315.65 483.447C1352.18 473.121 1378.39 479.078 1410.17 504.495C1417.71 510.85 1424.86 515.218 1425.26 514.424C1426.05 513.63 1433.2 503.304 1441.94 491.787C1453.85 474.71 1458.62 471.135 1465.37 472.724C1470.13 473.915 1478.87 475.107 1485.23 475.107C1499.13 475.107 1527.32 501.715 1527.32 514.424C1527.32 519.19 1530.9 527.927 1535.27 533.884C1544.8 546.99 1549.17 568.833 1545.59 587.498L1543.21 601.001L1509.85 602.987C1484.83 604.575 1472.12 607.753 1459.41 614.504C1439.95 625.624 1432.41 637.141 1450.67 628.404C1456.63 625.227 1466.16 621.653 1471.33 620.064L1480.46 617.284L1471.33 629.595C1460.21 645.084 1463.78 649.453 1476.89 636.347C1482.45 631.184 1493.17 625.227 1501.51 623.638C1517.39 620.858 1560.68 623.241 1571.8 628.007C1582.13 631.978 1580.94 622.05 1569.02 606.164C1561.08 595.441 1559.09 587.895 1559.09 568.435C1559.09 540.238 1567.43 508.467 1578.95 493.773C1589.28 481.064 1588.88 479.873 1576.97 478.284C1571.41 477.49 1566.24 475.504 1565.85 473.518C1565.05 469.944 1642.89 443.733 1655.6 443.733C1659.57 443.335 1667.51 448.895 1673.07 455.25C1683.4 467.561 1739.4 496.95 1774.74 508.467C1785.07 512.041 1801.35 514.821 1810.49 514.821C1855.76 514.821 1898.25 535.075 1926.85 569.627C1956.63 606.164 1955.84 608.547 1915.73 606.958C1897.86 606.164 1876.01 606.561 1866.88 607.753C1850.2 610.533 1822.4 624.83 1826.77 628.801C1827.96 629.993 1831.53 628.801 1835.11 626.021C1838.29 623.241 1854.17 620.461 1870.06 619.667C1885.55 618.873 1895.08 619.27 1890.71 620.461C1881.57 623.241 1868.87 633.567 1868.87 638.333C1868.87 639.921 1874.82 639.127 1881.97 635.95C1907.39 625.227 1940.35 624.433 1973.31 633.567C2007.47 642.701 2015.81 643.893 2015.81 637.935C2015.81 635.553 2012.63 633.964 2008.66 633.964C2004.69 633.964 1997.54 631.184 1992.77 627.61C1984.04 621.653 1984.04 620.858 1989.99 614.107C1995.95 607.355 1995.95 606.561 1987.21 604.178C1967.75 598.221 1932.41 552.55 1932.41 533.09C1932.41 529.515 1924.86 525.544 1912.15 522.764C1890.31 517.601 1856.95 490.595 1856.95 478.284C1856.95 473.915 1847.82 469.15 1827.17 462.795C1804.93 455.647 1798.57 452.47 1802.54 449.293C1812.47 441.747 1821.21 425.464 1821.21 414.741C1821.21 408.387 1823.19 403.621 1825.58 403.621C1829.55 403.621 1829.15 419.11 1824.78 435.393C1822.8 443.335 1854.97 446.115 1946.71 446.91C2081.34 447.704 2187.37 429.435 2260.05 392.501C2273.16 386.147 2288.25 375.821 2293.81 369.864L2303.74 359.141L2305.72 376.615L2307.71 393.693L2319.23 374.63C2337.89 343.255 2348.22 301.953 2345.83 265.415C2345.04 252.707 2339.08 254.693 2336.3 268.593ZM2318.03 340.873C2315.25 348.815 2312.08 350.801 2306.12 349.213C2294.6 346.433 2295.79 338.093 2308.9 328.958C2321.21 319.824 2324.39 324.193 2318.03 340.873ZM1897.86 397.664L1911.76 411.167L1930.82 405.607C1948.29 400.444 1949.88 400.444 1962.99 409.181C1974.9 417.521 1978.08 417.918 1993.97 414.344C2008.66 411.167 2013.03 411.564 2022.56 417.521C2032.49 424.273 2032.89 425.067 2025.74 427.847C2015.81 431.421 1908.58 432.215 1871.65 428.641C1846.23 426.258 1844.64 425.861 1838.29 412.755C1835.11 405.607 1832.73 398.855 1833.52 398.061C1834.31 397.267 1845.83 394.09 1858.94 390.913C1872.04 387.338 1882.77 384.558 1883.16 384.161C1883.16 384.161 1889.91 390.118 1897.86 397.664ZM2069.42 419.507C2072.2 423.875 2055.13 429.038 2044.8 426.258C2038.84 425.067 2039.24 424.273 2047.58 420.301C2060.29 414.741 2066.25 414.741 2069.42 419.507ZM1271.17 498.141C1268.78 500.127 1262.43 503.304 1256.47 506.084C1247.34 509.658 1245.35 509.658 1245.35 504.893C1245.35 500.127 1252.9 496.95 1269.18 495.361C1272.36 495.361 1273.15 496.155 1271.17 498.141Z" fill="#EE232B"/>
<path d="M1627.8 459.618C1613.9 463.987 1602.78 469.149 1602.78 471.135C1602.78 476.298 1626.21 490.595 1674.66 514.821C1729.07 542.224 1726.29 539.444 1719.94 561.287C1711.6 588.292 1704.05 594.249 1670.29 598.618C1636.93 602.589 1610.33 614.107 1601.19 628.007C1597.62 633.567 1596.43 637.935 1598.41 637.935C1600.4 637.935 1603.57 635.949 1605.16 633.567C1608.34 628.404 1638.13 614.504 1646.07 614.107C1649.25 614.107 1647.26 618.078 1640.91 624.035C1627.01 636.744 1627.8 644.289 1641.7 633.964C1661.95 619.269 1680.22 617.284 1703.26 628.404C1730.66 641.112 1737.41 640.318 1722.32 626.418C1715.57 620.064 1710.01 611.327 1710.01 607.355C1710.01 602.987 1720.73 586.704 1733.84 571.215C1758.46 541.827 1762.03 534.678 1751.71 534.678C1740.99 534.678 1729.47 519.587 1732.25 508.864C1734.23 500.921 1733.04 498.935 1727.48 498.935C1714.38 498.538 1687.37 484.241 1669.5 467.958L1652.42 452.072L1627.8 459.618ZM1659.97 481.064C1673.07 492.184 1667.91 494.169 1650.04 485.035C1643.69 481.461 1639.32 477.092 1640.51 475.107C1644.08 469.149 1647.26 470.341 1659.97 481.064Z" fill="#EE232B"/>
<path d="M13 1109.61L14 1107.3L15 1105L16 1102.69L17 1100.38L18 1098.07L19 1095.75L20 1093.43L21 1091.12L22 1088.79L23 1086.47L24 1084.15L25 1081.82L26 1079.5L27 1077.17L28 1074.84L29 1072.51L30 1070.17L31 1067.84L32 1065.51L33 1063.17L34 1060.83L35 1058.5L36 1056.16L37 1053.82L38 1051.48L39 1049.15L40 1046.81L41 1044.47L42 1042.13L43 1039.79L44 1037.45L45 1035.11L46 1032.77L47 1030.43L48 1028.09L49 1025.76L50 1023.42L51 1021.08L52 1018.75L53 1016.41L54 1014.08L55 1011.74L56 1009.41L57 1007.08L58 1004.75L59 1002.42L60 1000.1L61 997.772L62 995.448L63 993.126L64 990.806L65 988.487L66 986.171L67 983.857L68 981.544L69 979.234L70 976.926L71 974.621L72 972.318L73 970.017L74 967.72L75 965.424L76 963.132L77 960.843L78 958.556L79 956.272L80 953.992L81 951.715L82 949.441L83 947.171L84 944.903L85 942.64L86 940.38L87 938.124L88 935.871L89 933.623L90 931.378L91 929.138L92 926.901L93 924.669L94 922.441L95 920.218L96 917.999L97 915.784L98 913.574L99 911.369L100 909.168L101 906.972L102 904.782L103 902.596L104 900.415L105 898.24L106 896.07L107 893.905L108 891.745L109 889.591L110 887.443L111 885.3L112 883.163L113 881.032L114 878.907L115 876.787L116 874.674L117 872.567L118 870.466L119 868.371L120 866.283L121 864.201L122 862.125L123 860.057L124 857.994L125 855.939L126 853.89L127 851.848L128 849.814L129 847.786L130 845.765L131 843.752L132 841.745L133 839.747L134 837.755L135 835.771L136 833.794L137 831.826L138 829.864L139 827.911L140 825.965L141 824.028L142 822.098L143 820.176L144 818.263L145 816.358L146 814.461L147 812.572L148 810.692L149 808.82L150 806.956L151 805.102L152 803.256L153 801.418L154 799.59L155 797.77L156 795.96L157 794.158L158 792.365L159 790.582L160 788.808L161 787.043L162 785.287L163 783.541L164 781.804L165 780.077L166 778.359L167 776.651L168 774.953L169 773.265L170 771.586L171 769.917L172 768.259L173 766.61L174 764.971L175 763.343L176 761.725L177 760.117L178 758.519L179 756.932L180 755.355L181 753.788L182 752.233L183 750.688L184 749.153L185 747.629L186 746.116L187 744.614L188 743.123L189 741.643L190 740.173L191 738.715L192 737.268L193 735.832L194 734.407L195 732.994L196 731.592L197 730.201L198 728.822L199 727.454L200 726.098L201 724.753L202 723.42L203 722.098L204 720.789L205 719.491L206 718.205L207 716.93L208 715.668L209 714.418L210 713.179L211 711.953L212 710.739L213 709.537L214 708.347L215 707.169L216 706.004L217 704.851L218 703.71L219 702.581L220 701.466L221 700.362L222 699.271L223 698.193L224 697.127L225 696.074L226 695.034L227 694.006L228 692.991L229 691.989L230 691L231 690.023L232 689.06L233 688.109L234 687.172L235 686.247L236 685.335L237 684.437L238 683.551L239 682.679L240 681.82L241 680.974L242 680.142L243 679.322L244 678.516L245 677.723L246 676.944L247 676.178L248 675.425L249 674.686L250 673.96L251 673.248L252 672.549L253 671.864L254 671.193L255 670.535L256 669.89L257 669.26L258 668.643L259 668.039L260 667.449L261 666.874L262 666.311L263 665.763L264 665.228L265 664.707L266 664.2L267 663.707L268 663.228L269 662.763L270 662.311L271 661.874L272 661.45L273 661.04L274 660.645L275 660.263L276 659.895L277 659.542L278 659.202L279 658.876L280 658.565L281 658.267L282 657.983L283 657.714L284 657.459L285 657.218L286 656.99L287 656.777L288 656.579L289 656.394L290 656.223L291 656.067L292 655.924L293 655.796L294 655.682L295 655.582L296 655.497L297 655.425L298 655.368L299 655.325L300 655.296L301 655.281L302 655.28L303 655.294L304 655.322L305 655.363L306 655.42L307 655.49L308 655.574L309 655.673L310 655.786L311 655.912L312 656.054L313 656.209L314 656.378L315 656.562L316 656.759L317 656.971L318 657.197L319 657.437L320 657.691L321 657.959L322 658.241L323 658.538L324 658.848L325 659.172L326 659.511L327 659.863L328 660.23L329 660.61L330 661.005L331 661.413L332 661.836L333 662.272L334 662.722L335 663.186L336 663.664L337 664.156L338 664.662L339 665.182L340 665.715L341 666.262L342 666.823L343 667.398L344 667.986L345 668.589L346 669.205L347 669.834L348 670.477L349 671.134L350 671.804L351 672.488L352 673.186L353 673.897L354 674.621L355 675.359L356 676.111L357 676.876L358 677.654L359 678.446L360 679.25L361 680.069L362 680.9L363 681.745L364 682.603L365 683.474L366 684.358L367 685.255L368 686.166L369 687.089L370 688.026L371 688.975L372 689.938L373 690.913L374 691.901L375 692.902L376 693.916L377 694.942L378 695.982L379 697.034L380 698.098L381 699.176L382 700.265L383 701.368L384 702.482L385 703.61L386 704.749L387 705.901L388 707.066L389 708.242L390 709.431L391 710.632L392 711.845L393 713.07L394 714.308L395 715.557L396 716.818L397 718.092L398 719.377L399 720.673L400 721.982L401 723.303L402 724.635L403 725.978L404 727.334L405 728.7L406 730.079L407 731.469L408 732.87L409 734.282L410 735.706L411 737.141L412 738.587L413 740.044L414 741.512L415 742.992L416 744.482L417 745.983L418 747.495L419 749.018L420 750.551L421 752.096L422 753.651L423 755.216L424 756.792L425 758.378L426 759.975L427 761.582L428 763.199L429 764.827L430 766.465L431 768.113L432 769.77L433 771.438L434 773.116L435 774.804L436 776.501L437 778.208L438 779.925L439 781.651L440 783.387L441 785.132L442 786.887L443 788.651L444 790.425L445 792.207L446 793.999L447 795.8L448 797.61L449 799.429L450 801.256L451 803.093L452 804.938L453 806.792L454 808.655L455 810.526L456 812.405L457 814.293L458 816.19L459 818.094L460 820.007L461 821.928L462 823.857L463 825.794L464 827.739L465 829.692L466 831.652L467 833.62L468 835.596L469 837.579L470 839.57L471 841.569L472 843.574L473 845.587L474 847.607L475 849.634L476 851.668L477 853.71L478 855.758L479 857.812L480 859.874L481 861.942L482 864.017L483 866.099L484 868.186L485 870.281L486 872.381L487 874.488L488 876.6L489 878.719L490 880.844L491 882.975L492 885.111L493 887.253L494 889.401L495 891.555L496 893.714L497 895.878L498 898.048L499 900.223L500 902.403L501 904.588L502 906.779L503 908.974L504 911.174L505 913.379L506 915.588L507 917.803L508 920.021L509 922.245L510 924.472L511 926.704L512 928.94L513 931.18L514 933.424L515 935.673L516 937.925L517 940.181L518 942.44L519 944.703L520 946.97L521 949.24L522 951.514L523 953.791L524 956.071L525 958.354L526 960.64L527 962.93L528 965.222L529 967.517L530 969.814L531 972.115L532 974.417L533 976.723L534 979.03L535 981.34L536 983.652L537 985.966L538 988.283L539 990.601L540 992.921L541 995.243L542 997.566L543 999.891L544 1002.22L545 1004.55L546 1006.88L547 1009.21L548 1011.54L549 1013.87L550 1016.21L551 1018.54L552 1020.88L553 1023.21L554 1025.55L555 1027.89L556 1030.23L557 1032.56L558 1034.9L559 1037.24L560 1039.58L561 1041.92L562 1044.26L563 1046.6L564 1048.94L565 1051.28L566 1053.62L567 1055.95L568 1058.29L569 1060.63L570 1062.96L571 1065.3L572 1067.63L573 1069.97L574 1072.3L575 1074.63L576 1076.96L577 1079.29L578 1081.62L579 1083.94L580 1086.27L581 1088.59L582 1090.91L583 1093.23L584 1095.55L585 1097.86L586 1100.17L587 1102.49L588 1104.79L589 1107.1L590 1109.4L591 1111.71L592 1114L593 1116.3L594 1118.59L595 1120.88L596 1123.17L597 1125.46L598 1127.74L599 1130.02L600 1132.29L601 1134.56L602 1136.83L603 1139.1L604 1141.36L605 1143.62L606 1145.87L607 1148.12L608 1150.37L609 1152.61L610 1154.85L611 1157.08L612 1159.31L613 1161.53L614 1163.75L615 1165.97L616 1168.18L617 1170.39L618 1172.59L619 1174.79L620 1176.98L621 1179.17L622 1181.35L623 1183.53L624 1185.7L625 1187.87L626 1190.03L627 1192.19L628 1194.34L629 1196.48L630 1198.62L631 1200.75L632 1202.88L633 1205L634 1207.12L635 1209.23L636 1211.33L637 1213.43L638 1215.52L639 1217.6L640 1219.68L641 1221.75L642 1223.82L643 1225.87L644 1227.92L645 1229.97L646 1232.01L647 1234.04L648 1236.06L649 1238.08L650 1240.09L651 1242.09L652 1244.08L653 1246.07L654 1248.05L655 1250.02L656 1251.98L657 1253.94L658 1255.89L659 1257.83L660 1259.76L661 1261.68L662 1263.6L663 1265.51L664 1267.41L665 1269.3L666 1271.18L667 1273.06L668 1274.93L669 1276.78L670 1278.63L671 1280.47L672 1282.31L673 1284.13L674 1285.94L675 1287.75L676 1289.54L677 1291.33L678 1293.11L679 1294.88L680 1296.63L681 1298.38L682 1300.12L683 1301.86L684 1303.58L685 1305.29L686 1306.99L687 1308.68L688 1310.36L689 1312.04L690 1313.7L691 1315.35L692 1316.99L693 1318.63L694 1320.25L695 1321.86L696 1323.46L697 1325.05L698 1326.63L699 1328.2L700 1329.76L701 1331.31L702 1332.85L703 1334.38L704 1335.89L705 1337.4L706 1338.89L707 1340.38L708 1341.85L709 1343.31L710 1344.77L711 1346.21L712 1347.63L713 1349.05L714 1350.46L715 1351.85L716 1353.24L717 1354.61L718 1355.97L719 1357.32L720 1358.66L721 1359.98L722 1361.3L723 1362.6L724 1363.89L725 1365.17L726 1366.43L727 1367.69L728 1368.93L729 1370.16L730 1371.38L731 1372.59L732 1373.78L733 1374.96L734 1376.13L735 1377.29L736 1378.44L737 1379.57L738 1380.69L739 1381.8L740 1382.89L741 1383.97L742 1385.05L743 1386.1L744 1387.15L745 1388.18L746 1389.2L747 1390.21L748 1391.2L749 1392.18L750 1393.15L751 1394.11L752 1395.05L753 1395.98L754 1396.89L755 1397.8L756 1398.69L757 1399.56L758 1400.43L759 1401.28L760 1402.12L761 1402.94L762 1403.75L763 1404.55L764 1405.33L765 1406.1L766 1406.86L767 1407.6L768 1408.34L769 1409.05L770 1409.76L771 1410.45L772 1411.12L773 1411.79L774 1412.44L775 1413.07L776 1413.69L777 1414.3L778 1414.9L779 1415.48L780 1416.04L781 1416.6L782 1417.14L783 1417.66L784 1418.17L785 1418.67L786 1419.16L787 1419.63L788 1420.08L789 1420.53L790 1420.96L791 1421.37L792 1421.77L793 1422.16L794 1422.53L795 1422.89L796 1423.23L797 1423.56L798 1423.88L799 1424.18L800 1424.47L801 1424.75L802 1425.01L803 1425.25L804 1425.49L805 1425.7L806 1425.91L807 1426.1L808 1426.27L809 1426.44L810 1426.58L811 1426.72L812 1426.84L813 1426.94L814 1427.03L815 1427.11L816 1427.17L817 1427.22L818 1427.25L819 1427.27L820 1427.28L821 1427.27L822 1427.25L823 1427.21L824 1427.16L825 1427.09L826 1427.02L827 1426.92L828 1426.81L829 1426.69L830 1426.56L831 1426.41L832 1426.24L833 1426.06L834 1425.87L835 1425.67L836 1425.44L837 1425.21L838 1424.96L839 1424.7L840 1424.42L841 1424.13L842 1423.82L843 1423.5L844 1423.17L845 1422.82L846 1422.46L847 1422.09L848 1421.7L849 1421.29L850 1420.88L851 1420.45L852 1420L853 1419.54L854 1419.07L855 1418.58L856 1418.08L857 1417.57L858 1417.04L859 1416.5L860 1415.94L861 1415.37L862 1414.79L863 1414.19L864 1413.58L865 1412.95L866 1412.32L867 1411.66L868 1411L869 1410.32L870 1409.63L871 1408.92L872 1408.2L873 1407.47L874 1406.72L875 1405.96L876 1405.19L877 1404.4L878 1403.6L879 1402.79L880 1401.96L881 1401.12L882 1400.27L883 1399.4L884 1398.52L885 1397.63L886 1396.72L887 1395.8L888 1394.87L889 1393.93L890 1392.97L891 1392L892 1391.02L893 1390.02L894 1389.01L895 1387.99L896 1386.95L897 1385.91L898 1384.85L899 1383.77L900 1382.69L901 1381.59L902 1380.48L903 1379.36L904 1378.22L905 1377.08L906 1375.92L907 1374.74L908 1373.56L909 1372.36L910 1371.15L911 1369.93L912 1368.7L913 1367.46L914 1366.2L915 1364.93L916 1363.65L917 1362.36L918 1361.05L919 1359.74L920 1358.41L921 1357.07L922 1355.72L923 1354.35L924 1352.98L925 1351.59L926 1350.2L927 1348.79L928 1347.37L929 1345.94L930 1344.5L931 1343.04L932 1341.58L933 1340.1L934 1338.62L935 1337.12L936 1335.61L937 1334.09L938 1332.56L939 1331.02L940 1329.47L941 1327.91L942 1326.34L943 1324.76L944 1323.16L945 1321.56L946 1319.95L947 1318.32L948 1316.69L949 1315.04L950 1313.39L951 1311.73L952 1310.05L953 1308.37L954 1306.67L955 1304.97L956 1303.26L957 1301.53L958 1299.8L959 1298.06L960 1296.31L961 1294.55L962 1292.78L963 1291L964 1289.21L965 1287.41L966 1285.61L967 1283.79L968 1281.97L969 1280.13L970 1278.29L971 1276.44L972 1274.58L973 1272.71L974 1270.84L975 1268.95L976 1267.06L977 1265.16L978 1263.25L979 1261.33L980 1259.4L981 1257.47L982 1255.53L983 1253.58L984 1251.62L985 1249.65L986 1247.68L987 1245.7L988 1243.71L989 1241.71L990 1239.71L991 1237.7L992 1235.68L993 1233.66L994 1231.63L995 1229.59L996 1227.54L997 1225.49L998 1223.43L999 1221.37L1000 1219.29L1001 1217.21L1002 1215.13L1003 1213.04L1004 1210.94L1005 1208.83L1006 1206.72L1007 1204.61L1008 1202.49L1009 1200.36L1010 1198.22L1011 1196.08L1012 1193.94L1013 1191.78L1014 1189.63L1015 1187.47L1016 1185.3L1017 1183.12L1018 1180.95L1019 1178.76L1020 1176.57L1021 1174.38L1022 1172.18L1023 1169.98L1024 1167.77L1025 1165.56L1026 1163.34L1027 1161.12L1028 1158.89L1029 1156.66L1030 1154.43L1031 1152.19L1032 1149.95L1033 1147.7L1034 1145.45L1035 1143.2L1036 1140.94L1037 1138.68L1038 1136.41L1039 1134.14L1040 1131.87L1041 1129.59L1042 1127.31L1043 1125.03L1044 1122.75L1045 1120.46L1046 1118.17L1047 1115.87L1048 1113.58L1049 1111.28L1050 1108.98L1051 1106.67L1052 1104.36L1053 1102.06L1054 1099.74L1055 1097.43L1056 1095.12L1057 1092.8L1058 1090.48L1059 1088.16L1060 1085.83L1061 1083.51L1062 1081.18L1063 1078.86" stroke="white" stroke-width="26" stroke-miterlimit="10" stroke-linecap="round" stroke-linejoin="round"/>
<path d="M881.419 951.55H696.814C692.09 951.55 686.973 951.025 681.463 949.975C676.083 948.794 670.704 947.023 665.324 944.662C660.076 942.3 655.025 939.282 650.17 935.608C645.315 931.803 640.986 927.277 637.181 922.029C633.507 916.649 630.555 910.483 628.324 903.529C626.094 896.444 624.979 888.506 624.979 879.715V741.162C624.979 736.439 625.503 731.387 626.553 726.008C627.734 720.497 629.505 715.118 631.867 709.87C634.229 704.49 637.312 699.373 641.117 694.519C644.922 689.664 649.448 685.4 654.697 681.726C660.076 677.921 666.243 674.903 673.197 672.673C680.15 670.442 688.023 669.327 696.814 669.327H881.419V720.497H696.814C690.122 720.497 685.005 722.268 681.463 725.811C677.92 729.354 676.149 734.602 676.149 741.556V879.715C676.149 886.275 677.92 891.392 681.463 895.066C685.136 898.608 690.253 900.38 696.814 900.38H881.419V951.55ZM1152.82 879.715C1152.82 888.506 1151.7 896.444 1149.47 903.529C1147.24 910.483 1144.29 916.649 1140.62 922.029C1136.94 927.277 1132.68 931.803 1127.82 935.608C1122.97 939.282 1117.85 942.3 1112.47 944.662C1107.22 947.023 1101.84 948.794 1096.33 949.975C1090.95 951.025 1085.84 951.55 1080.98 951.55H988.68C981.595 951.55 973.854 950.303 965.456 947.81C957.059 945.318 949.253 941.25 942.036 935.608C934.951 929.835 928.981 922.422 924.127 913.369C919.403 904.185 917.042 892.967 917.042 879.715V810.438C917.042 797.318 919.403 786.231 924.127 777.178C928.981 767.994 934.951 760.58 942.036 754.939C949.253 749.166 957.059 745.033 965.456 742.54C973.854 740.047 981.595 738.8 988.68 738.8H1080.98C1094.1 738.8 1105.26 741.162 1114.44 745.885C1123.62 750.609 1131.04 756.579 1136.68 763.795C1142.32 770.88 1146.39 778.621 1148.88 787.018C1151.51 795.415 1152.82 803.222 1152.82 810.438V879.715ZM1101.65 810.832C1101.65 803.747 1099.88 798.499 1096.33 795.087C1092.79 791.676 1087.67 789.97 1080.98 789.97H989.073C982.251 789.97 977.068 791.742 973.526 795.284C969.983 798.696 968.212 803.747 968.212 810.438V879.715C968.212 886.406 969.983 891.523 973.526 895.066C977.068 898.608 982.251 900.38 989.073 900.38H1080.98C1087.94 900.38 1093.12 898.608 1096.53 895.066C1099.94 891.523 1101.65 886.406 1101.65 879.715V810.832ZM1382.69 789.97H1267.56C1260.6 789.97 1255.35 791.742 1251.81 795.284C1248.27 798.696 1246.5 803.747 1246.5 810.438V951.55H1195.33V810.438C1195.33 801.648 1196.44 793.775 1198.67 786.822C1200.9 779.868 1203.86 773.767 1207.53 768.518C1211.34 763.139 1215.67 758.612 1220.52 754.939C1225.37 751.134 1230.43 748.05 1235.67 745.689C1241.05 743.327 1246.43 741.621 1251.81 740.572C1257.32 739.391 1262.44 738.8 1267.16 738.8H1382.69V789.97ZM1644.64 809.258C1644.64 816.343 1643.39 824.018 1640.9 832.284C1638.41 840.419 1634.34 848.029 1628.7 855.114C1623.19 862.068 1615.91 867.906 1606.85 872.63C1597.93 877.353 1587.04 879.715 1574.18 879.715H1481.88V831.103H1574.18C1581.14 831.103 1586.52 829.004 1590.32 824.805C1594.13 820.476 1596.03 815.162 1596.03 808.864C1596.03 802.173 1593.86 796.924 1589.53 793.119C1585.34 789.314 1580.22 787.412 1574.18 787.412H1481.88C1474.93 787.412 1469.55 789.577 1465.74 793.907C1461.94 798.105 1460.03 803.353 1460.03 809.651V881.093C1460.03 887.915 1462.13 893.229 1466.33 897.034C1470.66 900.839 1475.98 902.741 1482.27 902.741H1574.18V951.55H1481.88C1474.8 951.55 1467.12 950.303 1458.85 947.81C1450.72 945.318 1443.11 941.316 1436.02 935.805C1429.07 930.163 1423.23 922.881 1418.51 913.959C1413.79 904.906 1411.42 893.951 1411.42 881.093V809.258C1411.42 802.173 1412.67 794.563 1415.16 786.428C1417.66 778.162 1421.66 770.552 1427.17 763.598C1432.81 756.513 1440.09 750.609 1449.01 745.885C1458.07 741.162 1469.02 738.8 1481.88 738.8H1574.18C1581.27 738.8 1588.88 740.047 1597.01 742.54C1605.28 745.033 1612.89 749.1 1619.84 754.742C1626.93 760.252 1632.83 767.534 1637.56 776.587C1642.28 785.509 1644.64 796.4 1644.64 809.258ZM1937.49 951.55H1752.89C1748.16 951.55 1743.04 951.025 1737.53 949.975C1732.15 948.794 1726.78 947.023 1721.4 944.662C1716.15 942.3 1711.1 939.282 1706.24 935.608C1701.39 931.803 1697.06 927.277 1693.25 922.029C1689.58 916.649 1686.63 910.483 1684.4 903.529C1682.17 896.444 1681.05 888.506 1681.05 879.715V741.162C1681.05 736.439 1681.58 731.387 1682.62 726.008C1683.81 720.497 1685.58 715.118 1687.94 709.87C1690.3 704.49 1693.38 699.373 1697.19 694.519C1700.99 689.664 1705.52 685.4 1710.77 681.726C1716.15 677.921 1722.31 674.903 1729.27 672.673C1736.22 670.442 1744.09 669.327 1752.89 669.327H1937.49V720.497H1752.89C1746.19 720.497 1741.08 722.268 1737.53 725.811C1733.99 729.354 1732.22 734.602 1732.22 741.556V879.715C1732.22 886.275 1733.99 891.392 1737.53 895.066C1741.21 898.608 1746.33 900.38 1752.89 900.38H1937.49V951.55ZM2198.66 881.093C2198.66 888.178 2197.41 895.853 2194.92 904.119C2192.42 912.254 2188.36 919.864 2182.71 926.949C2177.2 933.903 2169.92 939.741 2160.87 944.465C2151.95 949.188 2141.06 951.55 2128.2 951.55H2035.9C2028.81 951.55 2021.13 950.303 2012.87 947.81C2004.73 945.318 1997.12 941.316 1990.04 935.805C1983.09 930.163 1977.25 922.881 1972.52 913.959C1967.8 904.906 1965.44 893.951 1965.44 881.093C1965.44 874.007 1966.68 866.332 1969.18 858.066C1971.67 849.8 1975.67 842.19 1981.18 835.236C1986.82 828.151 1994.11 822.247 2003.03 817.524C2012.08 812.8 2023.04 810.438 2035.9 810.438H2128.2V859.247H2035.9C2028.94 859.247 2023.56 861.412 2019.76 865.742C2015.95 869.94 2014.05 875.188 2014.05 881.486C2014.05 888.178 2016.21 893.426 2020.54 897.231C2025.01 900.905 2030.25 902.741 2036.29 902.741H2128.2C2135.15 902.741 2140.53 900.642 2144.34 896.444C2148.14 892.245 2150.04 886.997 2150.04 880.699V809.258C2150.04 802.566 2147.94 797.252 2143.75 793.316C2139.68 789.38 2134.5 787.412 2128.2 787.412H2015.82V738.8H2128.2C2135.28 738.8 2142.89 740.047 2151.03 742.54C2159.29 745.033 2166.9 749.1 2173.86 754.742C2180.94 760.252 2186.85 767.534 2191.57 776.587C2196.29 785.509 2198.66 796.4 2198.66 809.258V881.093ZM2448.01 879.715C2448.01 888.506 2446.9 896.444 2444.67 903.529C2442.43 910.483 2439.48 916.649 2435.81 922.029C2432.14 927.277 2427.87 931.803 2423.02 935.608C2418.16 939.282 2413.04 942.3 2407.67 944.662C2402.42 947.023 2397.04 948.794 2391.53 949.975C2386.15 951.025 2381.03 951.55 2376.18 951.55H2237.62V900.38H2375.78C2382.74 900.38 2387.98 898.608 2391.53 895.066C2395.07 891.523 2396.84 886.406 2396.84 879.715C2396.19 866.07 2389.3 859.247 2376.18 859.247H2296.86C2285.58 859.247 2276 857.279 2268.13 853.343C2260.26 849.406 2253.83 844.486 2248.84 838.582C2243.99 832.678 2240.44 826.314 2238.21 819.492C2236.11 812.669 2235.06 806.306 2235.06 800.401C2235.06 788.986 2237.1 779.408 2241.17 771.667C2245.23 763.795 2250.35 757.432 2256.52 752.577C2262.68 747.722 2269.38 744.245 2276.59 742.146C2283.81 739.916 2290.56 738.8 2296.86 738.8H2422.62V789.97H2297.26C2294.63 789.97 2292.53 790.298 2290.96 790.954C2289.52 791.479 2288.4 792.267 2287.61 793.316C2286.96 794.235 2286.56 795.284 2286.43 796.465C2286.3 797.515 2286.23 798.564 2286.23 799.614C2286.37 801.713 2286.76 803.353 2287.42 804.534C2288.07 805.715 2288.86 806.568 2289.78 807.093C2290.83 807.618 2291.94 807.946 2293.12 808.077C2294.44 808.077 2295.68 808.077 2296.86 808.077H2376.18C2389.3 808.077 2400.45 810.438 2409.63 815.162C2418.82 819.885 2426.23 825.855 2431.87 833.071C2437.51 840.156 2441.58 847.898 2444.07 856.295C2446.7 864.692 2448.01 872.499 2448.01 879.715ZM2673.95 789.97H2584.6V951.55H2532.84V789.97H2466.31V738.8H2532.84V669.327H2584.6V738.8H2673.95V789.97Z" fill="white"/>
<rect x="121" y="872.278" width="9" height="224" fill="white"/>
<rect x="180" y="764.278" width="9" height="332" fill="white"/>
<rect x="239" y="694.278" width="9" height="402" fill="white"/>
<rect x="300" y="655.278" width="9" height="441" fill="white"/>
<rect x="359" y="694.278" width="9" height="402" fill="white"/>
<rect x="418" y="758.278" width="9" height="332" fill="white"/>
<rect x="470" y="848.278" width="9" height="248" fill="white"/>
<rect x="522" y="979.278" width="9" height="117" fill="white"/>
<rect x="1000" y="1210.28" width="9" height="121" transform="rotate(-180 1000 1210.28)" fill="white"/>
<rect x="941" y="1318.28" width="9" height="229" transform="rotate(-180 941 1318.28)" fill="white"/>
<rect x="882" y="1388.28" width="9" height="298" transform="rotate(-180 882 1388.28)" fill="white"/>
<rect x="821" y="1427.28" width="9" height="337" transform="rotate(-180 821 1427.28)" fill="white"/>
<rect x="762" y="1388.28" width="9" height="298" transform="rotate(-180 762 1388.28)" fill="white"/>
<rect x="703" y="1324.28" width="9" height="235" transform="rotate(-180 703 1324.28)" fill="white"/>
<rect x="651" y="1234.28" width="9" height="145" transform="rotate(-180 651 1234.28)" fill="white"/>
<path d="M11 1085.28H1063V1108.28H11V1085.28Z" fill="white"/>
<path d="M1124.11 1100.03V1094.61H1159.64V1100.03H1124.11ZM1158.15 1100.03V1094.61H1203.52V1100.03H1158.15ZM1232.03 1100.03H1202.03V1094.61H1232.03V1100.03ZM1217.8 1075.04L1237.7 1097.32L1217.8 1119.6L1213.26 1115.72L1223.69 1104.23C1224.69 1103.16 1225.49 1102.33 1226.1 1101.75C1226.71 1101.16 1227.47 1100.59 1228.37 1100.03V1094.61C1227.47 1094.05 1226.71 1093.48 1226.1 1092.89C1225.49 1092.31 1224.69 1091.48 1223.69 1090.4L1213.26 1078.91L1217.8 1075.04ZM1312.47 1069.03C1317.91 1069.03 1322.02 1071.28 1324.8 1075.77C1327.58 1080.26 1328.97 1086.67 1328.97 1095.01C1328.97 1103.38 1327.58 1109.82 1324.8 1114.33C1322.02 1118.82 1317.91 1121.07 1312.47 1121.07C1307.06 1121.07 1302.95 1118.82 1300.14 1114.33C1297.36 1109.82 1295.97 1103.38 1295.97 1095.01C1295.97 1086.67 1297.36 1080.26 1300.14 1075.77C1302.95 1071.28 1307.06 1069.03 1312.47 1069.03ZM1312.47 1073.97C1309.37 1073.97 1306.94 1075.62 1305.15 1078.91C1303.37 1082.18 1302.48 1087.55 1302.48 1095.01C1302.48 1098.79 1302.68 1102.03 1303.07 1104.71C1303.46 1107.39 1304.06 1109.58 1304.86 1111.26C1305.69 1112.92 1306.73 1114.14 1307.97 1114.92C1309.24 1115.7 1310.74 1116.09 1312.47 1116.09C1314.57 1116.09 1316.36 1115.37 1317.85 1113.93C1319.36 1112.49 1320.51 1110.22 1321.29 1107.13C1322.1 1104 1322.5 1099.97 1322.5 1095.01C1322.5 1089.99 1322.14 1085.93 1321.44 1082.83C1320.75 1079.73 1319.67 1077.49 1318.18 1076.1C1316.72 1074.68 1314.81 1073.97 1312.47 1073.97ZM1319.9 1075.77L1321.51 1081.15L1305.48 1113.6L1303.22 1109.32L1319.9 1075.77ZM1361.73 1069.84V1118.76H1355.58V1076.5L1344.02 1083.52L1341.35 1079.13L1356.35 1069.84H1361.73ZM1372.27 1115.21V1120.22H1343.18V1115.21H1372.27ZM1405.61 1069.84V1118.76H1399.46V1076.5L1387.9 1083.52L1385.23 1079.13L1400.23 1069.84H1405.61ZM1416.15 1115.21V1120.22H1387.06V1115.21H1416.15ZM1444.11 1069.03C1449.55 1069.03 1453.66 1071.28 1456.44 1075.77C1459.22 1080.26 1460.61 1086.67 1460.61 1095.01C1460.61 1103.38 1459.22 1109.82 1456.44 1114.33C1453.66 1118.82 1449.55 1121.07 1444.11 1121.07C1438.7 1121.07 1434.59 1118.82 1431.78 1114.33C1429 1109.82 1427.61 1103.38 1427.61 1095.01C1427.61 1086.67 1429 1080.26 1431.78 1075.77C1434.59 1071.28 1438.7 1069.03 1444.11 1069.03ZM1444.11 1073.97C1441.01 1073.97 1438.57 1075.62 1436.79 1078.91C1435.01 1082.18 1434.12 1087.55 1434.12 1095.01C1434.12 1098.79 1434.32 1102.03 1434.71 1104.71C1435.1 1107.39 1435.7 1109.58 1436.5 1111.26C1437.33 1112.92 1438.37 1114.14 1439.61 1114.92C1440.88 1115.7 1442.38 1116.09 1444.11 1116.09C1446.21 1116.09 1448 1115.37 1449.49 1113.93C1451 1112.49 1452.15 1110.22 1452.93 1107.13C1453.73 1104 1454.14 1099.97 1454.14 1095.01C1454.14 1089.99 1453.78 1085.93 1453.08 1082.83C1452.39 1079.73 1451.31 1077.49 1449.82 1076.1C1448.36 1074.68 1446.45 1073.97 1444.11 1073.97ZM1451.54 1075.77L1453.15 1081.15L1437.12 1113.6L1434.85 1109.32L1451.54 1075.77ZM1493.37 1069.84V1118.76H1487.22V1076.5L1475.66 1083.52L1472.99 1079.13L1487.99 1069.84H1493.37ZM1503.91 1115.21V1120.22H1474.82V1115.21H1503.91ZM1531.87 1069.03C1537.31 1069.03 1541.42 1071.28 1544.2 1075.77C1546.98 1080.26 1548.37 1086.67 1548.37 1095.01C1548.37 1103.38 1546.98 1109.82 1544.2 1114.33C1541.42 1118.82 1537.31 1121.07 1531.87 1121.07C1526.46 1121.07 1522.34 1118.82 1519.54 1114.33C1516.76 1109.82 1515.37 1103.38 1515.37 1095.01C1515.37 1086.67 1516.76 1080.26 1519.54 1075.77C1522.34 1071.28 1526.46 1069.03 1531.87 1069.03ZM1531.87 1073.97C1528.77 1073.97 1526.33 1075.62 1524.55 1078.91C1522.77 1082.18 1521.88 1087.55 1521.88 1095.01C1521.88 1098.79 1522.08 1102.03 1522.47 1104.71C1522.86 1107.39 1523.45 1109.58 1524.26 1111.26C1525.09 1112.92 1526.13 1114.14 1527.37 1114.92C1528.64 1115.7 1530.14 1116.09 1531.87 1116.09C1533.97 1116.09 1535.76 1115.37 1537.25 1113.93C1538.76 1112.49 1539.91 1110.22 1540.69 1107.13C1541.49 1104 1541.9 1099.97 1541.9 1095.01C1541.9 1089.99 1541.54 1085.93 1540.84 1082.83C1540.15 1079.73 1539.07 1077.49 1537.58 1076.1C1536.12 1074.68 1534.21 1073.97 1531.87 1073.97ZM1539.3 1075.77L1540.91 1081.15L1524.88 1113.6L1522.61 1109.32L1539.3 1075.77ZM1581.13 1069.84V1118.76H1574.98V1076.5L1563.42 1083.52L1560.75 1079.13L1575.75 1069.84H1581.13ZM1591.67 1115.21V1120.22H1562.58V1115.21H1591.67ZM1625.01 1069.84V1118.76H1618.86V1076.5L1607.3 1083.52L1604.63 1079.13L1619.63 1069.84H1625.01ZM1635.55 1115.21V1120.22H1606.46V1115.21H1635.55ZM1712.77 1069.84V1118.76H1706.62V1076.5L1695.06 1083.52L1692.39 1079.13L1707.39 1069.84H1712.77ZM1723.31 1115.21V1120.22H1694.22V1115.21H1723.31ZM1751.27 1069.03C1756.71 1069.03 1760.82 1071.28 1763.6 1075.77C1766.38 1080.26 1767.77 1086.67 1767.77 1095.01C1767.77 1103.38 1766.38 1109.82 1763.6 1114.33C1760.82 1118.82 1756.71 1121.07 1751.27 1121.07C1745.85 1121.07 1741.74 1118.82 1738.94 1114.33C1736.16 1109.82 1734.77 1103.38 1734.77 1095.01C1734.77 1086.67 1736.16 1080.26 1738.94 1075.77C1741.74 1071.28 1745.85 1069.03 1751.27 1069.03ZM1751.27 1073.97C1748.17 1073.97 1745.73 1075.62 1743.95 1078.91C1742.17 1082.18 1741.28 1087.55 1741.28 1095.01C1741.28 1098.79 1741.47 1102.03 1741.86 1104.71C1742.26 1107.39 1742.85 1109.58 1743.66 1111.26C1744.49 1112.92 1745.52 1114.14 1746.77 1114.92C1748.04 1115.7 1749.54 1116.09 1751.27 1116.09C1753.37 1116.09 1755.16 1115.37 1756.65 1113.93C1758.16 1112.49 1759.31 1110.22 1760.09 1107.13C1760.89 1104 1761.29 1099.97 1761.29 1095.01C1761.29 1089.99 1760.94 1085.93 1760.23 1082.83C1759.55 1079.73 1758.46 1077.49 1756.98 1076.1C1755.51 1074.68 1753.61 1073.97 1751.27 1073.97ZM1758.7 1075.77L1760.31 1081.15L1744.28 1113.6L1742.01 1109.32L1758.7 1075.77ZM1800.53 1069.84V1118.76H1794.38V1076.5L1782.82 1083.52L1780.15 1079.13L1795.15 1069.84H1800.53ZM1811.06 1115.21V1120.22H1781.98V1115.21H1811.06ZM1844.41 1069.84V1118.76H1838.26V1076.5L1826.7 1083.52L1824.03 1079.13L1839.03 1069.84H1844.41ZM1854.94 1115.21V1120.22H1825.86V1115.21H1854.94ZM1882.91 1069.03C1888.35 1069.03 1892.46 1071.28 1895.24 1075.77C1898.02 1080.26 1899.41 1086.67 1899.41 1095.01C1899.41 1103.38 1898.02 1109.82 1895.24 1114.33C1892.46 1118.82 1888.35 1121.07 1882.91 1121.07C1877.49 1121.07 1873.38 1118.82 1870.58 1114.33C1867.8 1109.82 1866.41 1103.38 1866.41 1095.01C1866.41 1086.67 1867.8 1080.26 1870.58 1075.77C1873.38 1071.28 1877.49 1069.03 1882.91 1069.03ZM1882.91 1073.97C1879.81 1073.97 1877.37 1075.62 1875.59 1078.91C1873.81 1082.18 1872.92 1087.55 1872.92 1095.01C1872.92 1098.79 1873.11 1102.03 1873.5 1104.71C1873.89 1107.39 1874.49 1109.58 1875.3 1111.26C1876.13 1112.92 1877.16 1114.14 1878.41 1114.92C1879.68 1115.7 1881.18 1116.09 1882.91 1116.09C1885.01 1116.09 1886.8 1115.37 1888.29 1113.93C1889.8 1112.49 1890.95 1110.22 1891.73 1107.13C1892.53 1104 1892.93 1099.97 1892.93 1095.01C1892.93 1089.99 1892.58 1085.93 1891.87 1082.83C1891.19 1079.73 1890.1 1077.49 1888.62 1076.1C1887.15 1074.68 1885.25 1073.97 1882.91 1073.97ZM1890.34 1075.77L1891.95 1081.15L1875.92 1113.6L1873.65 1109.32L1890.34 1075.77ZM1932.17 1069.84V1118.76H1926.02V1076.5L1914.46 1083.52L1911.79 1079.13L1926.79 1069.84H1932.17ZM1942.7 1115.21V1120.22H1913.61V1115.21H1942.7ZM1970.67 1069.03C1976.11 1069.03 1980.22 1071.28 1983 1075.77C1985.78 1080.26 1987.17 1086.67 1987.17 1095.01C1987.17 1103.38 1985.78 1109.82 1983 1114.33C1980.22 1118.82 1976.11 1121.07 1970.67 1121.07C1965.25 1121.07 1961.14 1118.82 1958.34 1114.33C1955.55 1109.82 1954.16 1103.38 1954.16 1095.01C1954.16 1086.67 1955.55 1080.26 1958.34 1075.77C1961.14 1071.28 1965.25 1069.03 1970.67 1069.03ZM1970.67 1073.97C1967.57 1073.97 1965.13 1075.62 1963.35 1078.91C1961.57 1082.18 1960.68 1087.55 1960.68 1095.01C1960.68 1098.79 1960.87 1102.03 1961.26 1104.71C1961.65 1107.39 1962.25 1109.58 1963.06 1111.26C1963.89 1112.92 1964.92 1114.14 1966.17 1114.92C1967.43 1115.7 1968.93 1116.09 1970.67 1116.09C1972.76 1116.09 1974.56 1115.37 1976.05 1113.93C1977.56 1112.49 1978.7 1110.22 1979.48 1107.13C1980.29 1104 1980.69 1099.97 1980.69 1095.01C1980.69 1089.99 1980.34 1085.93 1979.63 1082.83C1978.95 1079.73 1977.86 1077.49 1976.37 1076.1C1974.91 1074.68 1973.01 1073.97 1970.67 1073.97ZM1978.09 1075.77L1979.7 1081.15L1963.68 1113.6L1961.41 1109.32L1978.09 1075.77ZM2014.55 1069.03C2019.99 1069.03 2024.1 1071.28 2026.88 1075.77C2029.66 1080.26 2031.05 1086.67 2031.05 1095.01C2031.05 1103.38 2029.66 1109.82 2026.88 1114.33C2024.1 1118.82 2019.99 1121.07 2014.55 1121.07C2009.13 1121.07 2005.02 1118.82 2002.22 1114.33C1999.43 1109.82 1998.04 1103.38 1998.04 1095.01C1998.04 1086.67 1999.43 1080.26 2002.22 1075.77C2005.02 1071.28 2009.13 1069.03 2014.55 1069.03ZM2014.55 1073.97C2011.45 1073.97 2009.01 1075.62 2007.23 1078.91C2005.45 1082.18 2004.56 1087.55 2004.56 1095.01C2004.56 1098.79 2004.75 1102.03 2005.14 1104.71C2005.53 1107.39 2006.13 1109.58 2006.94 1111.26C2007.76 1112.92 2008.8 1114.14 2010.05 1114.92C2011.31 1115.7 2012.81 1116.09 2014.55 1116.09C2016.64 1116.09 2018.44 1115.37 2019.93 1113.93C2021.44 1112.49 2022.58 1110.22 2023.36 1107.13C2024.17 1104 2024.57 1099.97 2024.57 1095.01C2024.57 1089.99 2024.22 1085.93 2023.51 1082.83C2022.83 1079.73 2021.74 1077.49 2020.25 1076.1C2018.79 1074.68 2016.89 1073.97 2014.55 1073.97ZM2021.97 1075.77L2023.58 1081.15L2007.56 1113.6L2005.29 1109.32L2021.97 1075.77ZM2107.68 1069.84V1118.76H2101.54V1076.5L2089.97 1083.52L2087.3 1079.13L2102.31 1069.84H2107.68ZM2118.22 1115.21V1120.22H2089.13V1115.21H2118.22ZM2151.56 1069.84V1118.76H2145.42V1076.5L2133.85 1083.52L2131.18 1079.13L2146.19 1069.84H2151.56ZM2162.1 1115.21V1120.22H2133.01V1115.21H2162.1ZM2190.06 1069.03C2195.5 1069.03 2199.61 1071.28 2202.4 1075.77C2205.18 1080.26 2206.57 1086.67 2206.57 1095.01C2206.57 1103.38 2205.18 1109.82 2202.4 1114.33C2199.61 1118.82 2195.5 1121.07 2190.06 1121.07C2184.65 1121.07 2180.54 1118.82 2177.73 1114.33C2174.95 1109.82 2173.56 1103.38 2173.56 1095.01C2173.56 1086.67 2174.95 1080.26 2177.73 1075.77C2180.54 1071.28 2184.65 1069.03 2190.06 1069.03ZM2190.06 1073.97C2186.97 1073.97 2184.53 1075.62 2182.75 1078.91C2180.97 1082.18 2180.08 1087.55 2180.08 1095.01C2180.08 1098.79 2180.27 1102.03 2180.66 1104.71C2181.05 1107.39 2181.65 1109.58 2182.45 1111.26C2183.28 1112.92 2184.32 1114.14 2185.56 1114.92C2186.83 1115.7 2188.33 1116.09 2190.06 1116.09C2192.16 1116.09 2193.96 1115.37 2195.44 1113.93C2196.96 1112.49 2198.1 1110.22 2198.88 1107.13C2199.69 1104 2200.09 1099.97 2200.09 1095.01C2200.09 1089.99 2199.74 1085.93 2199.03 1082.83C2198.35 1079.73 2197.26 1077.49 2195.77 1076.1C2194.31 1074.68 2192.41 1073.97 2190.06 1073.97ZM2197.49 1075.77L2199.1 1081.15L2183.08 1113.6L2180.81 1109.32L2197.49 1075.77ZM2233.94 1069.03C2239.38 1069.03 2243.49 1071.28 2246.28 1075.77C2249.06 1080.26 2250.45 1086.67 2250.45 1095.01C2250.45 1103.38 2249.06 1109.82 2246.28 1114.33C2243.49 1118.82 2239.38 1121.07 2233.94 1121.07C2228.53 1121.07 2224.42 1118.82 2221.61 1114.33C2218.83 1109.82 2217.44 1103.38 2217.44 1095.01C2217.44 1086.67 2218.83 1080.26 2221.61 1075.77C2224.42 1071.28 2228.53 1069.03 2233.94 1069.03ZM2233.94 1073.97C2230.85 1073.97 2228.41 1075.62 2226.63 1078.91C2224.85 1082.18 2223.96 1087.55 2223.96 1095.01C2223.96 1098.79 2224.15 1102.03 2224.54 1104.71C2224.93 1107.39 2225.53 1109.58 2226.33 1111.26C2227.16 1112.92 2228.2 1114.14 2229.44 1114.92C2230.71 1115.7 2232.21 1116.09 2233.94 1116.09C2236.04 1116.09 2237.84 1115.37 2239.32 1113.93C2240.84 1112.49 2241.98 1110.22 2242.76 1107.13C2243.57 1104 2243.97 1099.97 2243.97 1095.01C2243.97 1089.99 2243.62 1085.93 2242.91 1082.83C2242.23 1079.73 2241.14 1077.49 2239.65 1076.1C2238.19 1074.68 2236.29 1073.97 2233.94 1073.97ZM2241.37 1075.77L2242.98 1081.15L2226.96 1113.6L2224.69 1109.32L2241.37 1075.77ZM2277.82 1069.03C2283.26 1069.03 2287.37 1071.28 2290.15 1075.77C2292.94 1080.26 2294.33 1086.67 2294.33 1095.01C2294.33 1103.38 2292.94 1109.82 2290.15 1114.33C2287.37 1118.82 2283.26 1121.07 2277.82 1121.07C2272.41 1121.07 2268.3 1118.82 2265.49 1114.33C2262.71 1109.82 2261.32 1103.38 2261.32 1095.01C2261.32 1086.67 2262.71 1080.26 2265.49 1075.77C2268.3 1071.28 2272.41 1069.03 2277.82 1069.03ZM2277.82 1073.97C2274.73 1073.97 2272.29 1075.62 2270.51 1078.91C2268.73 1082.18 2267.83 1087.55 2267.83 1095.01C2267.83 1098.79 2268.03 1102.03 2268.42 1104.71C2268.81 1107.39 2269.41 1109.58 2270.21 1111.26C2271.04 1112.92 2272.08 1114.14 2273.32 1114.92C2274.59 1115.7 2276.09 1116.09 2277.82 1116.09C2279.92 1116.09 2281.71 1115.37 2283.2 1113.93C2284.72 1112.49 2285.86 1110.22 2286.64 1107.13C2287.45 1104 2287.85 1099.97 2287.85 1095.01C2287.85 1089.99 2287.5 1085.93 2286.79 1082.83C2286.11 1079.73 2285.02 1077.49 2283.53 1076.1C2282.07 1074.68 2280.17 1073.97 2277.82 1073.97ZM2285.25 1075.77L2286.86 1081.15L2270.84 1113.6L2268.57 1109.32L2285.25 1075.77ZM2321.7 1069.03C2327.14 1069.03 2331.25 1071.28 2334.03 1075.77C2336.82 1080.26 2338.21 1086.67 2338.21 1095.01C2338.21 1103.38 2336.82 1109.82 2334.03 1114.33C2331.25 1118.82 2327.14 1121.07 2321.7 1121.07C2316.29 1121.07 2312.18 1118.82 2309.37 1114.33C2306.59 1109.82 2305.2 1103.38 2305.2 1095.01C2305.2 1086.67 2306.59 1080.26 2309.37 1075.77C2312.18 1071.28 2316.29 1069.03 2321.7 1069.03ZM2321.7 1073.97C2318.61 1073.97 2316.17 1075.62 2314.39 1078.91C2312.6 1082.18 2311.71 1087.55 2311.71 1095.01C2311.71 1098.79 2311.91 1102.03 2312.3 1104.71C2312.69 1107.39 2313.29 1109.58 2314.09 1111.26C2314.92 1112.92 2315.96 1114.14 2317.2 1114.92C2318.47 1115.7 2319.97 1116.09 2321.7 1116.09C2323.8 1116.09 2325.59 1115.37 2327.08 1113.93C2328.59 1112.49 2329.74 1110.22 2330.52 1107.13C2331.33 1104 2331.73 1099.97 2331.73 1095.01C2331.73 1089.99 2331.38 1085.93 2330.67 1082.83C2329.99 1079.73 2328.9 1077.49 2327.41 1076.1C2325.95 1074.68 2324.05 1073.97 2321.7 1073.97ZM2329.13 1075.77L2330.74 1081.15L2314.71 1113.6L2312.45 1109.32L2329.13 1075.77ZM2370.96 1069.84V1118.76H2364.81V1076.5L2353.25 1083.52L2350.58 1079.13L2365.58 1069.84H2370.96ZM2381.5 1115.21V1120.22H2352.41V1115.21H2381.5ZM2414.84 1069.84V1118.76H2408.69V1076.5L2397.13 1083.52L2394.46 1079.13L2409.46 1069.84H2414.84ZM2425.38 1115.21V1120.22H2396.29V1115.21H2425.38ZM2497.22 1069.03C2502.66 1069.03 2506.77 1071.28 2509.55 1075.77C2512.33 1080.26 2513.72 1086.67 2513.72 1095.01C2513.72 1103.38 2512.33 1109.82 2509.55 1114.33C2506.77 1118.82 2502.66 1121.07 2497.22 1121.07C2491.81 1121.07 2487.7 1118.82 2484.89 1114.33C2482.11 1109.82 2480.72 1103.38 2480.72 1095.01C2480.72 1086.67 2482.11 1080.26 2484.89 1075.77C2487.7 1071.28 2491.81 1069.03 2497.22 1069.03ZM2497.22 1073.97C2494.12 1073.97 2491.68 1075.62 2489.9 1078.91C2488.12 1082.18 2487.23 1087.55 2487.23 1095.01C2487.23 1098.79 2487.43 1102.03 2487.82 1104.71C2488.21 1107.39 2488.81 1109.58 2489.61 1111.26C2490.44 1112.92 2491.48 1114.14 2492.72 1114.92C2493.99 1115.7 2495.49 1116.09 2497.22 1116.09C2499.32 1116.09 2501.11 1115.37 2502.6 1113.93C2504.11 1112.49 2505.26 1110.22 2506.04 1107.13C2506.85 1104 2507.25 1099.97 2507.25 1095.01C2507.25 1089.99 2506.89 1085.93 2506.19 1082.83C2505.5 1079.73 2504.42 1077.49 2502.93 1076.1C2501.47 1074.68 2499.56 1073.97 2497.22 1073.97ZM2504.65 1075.77L2506.26 1081.15L2490.23 1113.6L2487.96 1109.32L2504.65 1075.77ZM2541.1 1069.03C2546.54 1069.03 2550.65 1071.28 2553.43 1075.77C2556.21 1080.26 2557.6 1086.67 2557.6 1095.01C2557.6 1103.38 2556.21 1109.82 2553.43 1114.33C2550.65 1118.82 2546.54 1121.07 2541.1 1121.07C2535.69 1121.07 2531.58 1118.82 2528.77 1114.33C2525.99 1109.82 2524.6 1103.38 2524.6 1095.01C2524.6 1086.67 2525.99 1080.26 2528.77 1075.77C2531.58 1071.28 2535.69 1069.03 2541.1 1069.03ZM2541.1 1073.97C2538 1073.97 2535.56 1075.62 2533.78 1078.91C2532 1082.18 2531.11 1087.55 2531.11 1095.01C2531.11 1098.79 2531.31 1102.03 2531.7 1104.71C2532.09 1107.39 2532.69 1109.58 2533.49 1111.26C2534.32 1112.92 2535.36 1114.14 2536.6 1114.92C2537.87 1115.7 2539.37 1116.09 2541.1 1116.09C2543.2 1116.09 2544.99 1115.37 2546.48 1113.93C2547.99 1112.49 2549.14 1110.22 2549.92 1107.13C2550.72 1104 2551.13 1099.97 2551.13 1095.01C2551.13 1089.99 2550.77 1085.93 2550.07 1082.83C2549.38 1079.73 2548.3 1077.49 2546.81 1076.1C2545.35 1074.68 2543.44 1073.97 2541.1 1073.97ZM2548.53 1075.77L2550.14 1081.15L2534.11 1113.6L2531.84 1109.32L2548.53 1075.77ZM2584.98 1069.03C2590.42 1069.03 2594.53 1071.28 2597.31 1075.77C2600.09 1080.26 2601.48 1086.67 2601.48 1095.01C2601.48 1103.38 2600.09 1109.82 2597.31 1114.33C2594.53 1118.82 2590.42 1121.07 2584.98 1121.07C2579.57 1121.07 2575.46 1118.82 2572.65 1114.33C2569.87 1109.82 2568.48 1103.38 2568.48 1095.01C2568.48 1086.67 2569.87 1080.26 2572.65 1075.77C2575.46 1071.28 2579.57 1069.03 2584.98 1069.03ZM2584.98 1073.97C2581.88 1073.97 2579.44 1075.62 2577.66 1078.91C2575.88 1082.18 2574.99 1087.55 2574.99 1095.01C2574.99 1098.79 2575.19 1102.03 2575.58 1104.71C2575.97 1107.39 2576.57 1109.58 2577.37 1111.26C2578.2 1112.92 2579.24 1114.14 2580.48 1114.92C2581.75 1115.7 2583.25 1116.09 2584.98 1116.09C2587.08 1116.09 2588.87 1115.37 2590.36 1113.93C2591.87 1112.49 2593.02 1110.22 2593.8 1107.13C2594.6 1104 2595.01 1099.97 2595.01 1095.01C2595.01 1089.99 2594.65 1085.93 2593.95 1082.83C2593.26 1079.73 2592.18 1077.49 2590.69 1076.1C2589.23 1074.68 2587.32 1073.97 2584.98 1073.97ZM2592.41 1075.77L2594.02 1081.15L2577.99 1113.6L2575.72 1109.32L2592.41 1075.77ZM2634.24 1069.84V1118.76H2628.09V1076.5L2616.53 1083.52L2613.86 1079.13L2628.86 1069.84H2634.24ZM2644.78 1115.21V1120.22H2615.69V1115.21H2644.78ZM2678.12 1069.84V1118.76H2671.97V1076.5L2660.41 1083.52L2657.74 1079.13L2672.74 1069.84H2678.12ZM2688.66 1115.21V1120.22H2659.57V1115.21H2688.66ZM2716.62 1069.03C2722.06 1069.03 2726.17 1071.28 2728.95 1075.77C2731.73 1080.26 2733.12 1086.67 2733.12 1095.01C2733.12 1103.38 2731.73 1109.82 2728.95 1114.33C2726.17 1118.82 2722.06 1121.07 2716.62 1121.07C2711.2 1121.07 2707.09 1118.82 2704.29 1114.33C2701.51 1109.82 2700.12 1103.38 2700.12 1095.01C2700.12 1086.67 2701.51 1080.26 2704.29 1075.77C2707.09 1071.28 2711.2 1069.03 2716.62 1069.03ZM2716.62 1073.97C2713.52 1073.97 2711.08 1075.62 2709.3 1078.91C2707.52 1082.18 2706.63 1087.55 2706.63 1095.01C2706.63 1098.79 2706.83 1102.03 2707.22 1104.71C2707.61 1107.39 2708.2 1109.58 2709.01 1111.26C2709.84 1112.92 2710.88 1114.14 2712.12 1114.92C2713.39 1115.7 2714.89 1116.09 2716.62 1116.09C2718.72 1116.09 2720.51 1115.37 2722 1113.93C2723.51 1112.49 2724.66 1110.22 2725.44 1107.13C2726.24 1104 2726.65 1099.97 2726.65 1095.01C2726.65 1089.99 2726.29 1085.93 2725.58 1082.83C2724.9 1079.73 2723.82 1077.49 2722.33 1076.1C2720.86 1074.68 2718.96 1073.97 2716.62 1073.97ZM2724.05 1075.77L2725.66 1081.15L2709.63 1113.6L2707.36 1109.32L2724.05 1075.77ZM2765.88 1069.84V1118.76H2759.73V1076.5L2748.17 1083.52L2745.5 1079.13L2760.5 1069.84H2765.88ZM2776.42 1115.21V1120.22H2747.33V1115.21H2776.42ZM2804.38 1069.03C2809.82 1069.03 2813.93 1071.28 2816.71 1075.77C2819.49 1080.26 2820.88 1086.67 2820.88 1095.01C2820.88 1103.38 2819.49 1109.82 2816.71 1114.33C2813.93 1118.82 2809.82 1121.07 2804.38 1121.07C2798.96 1121.07 2794.85 1118.82 2792.05 1114.33C2789.27 1109.82 2787.88 1103.38 2787.88 1095.01C2787.88 1086.67 2789.27 1080.26 2792.05 1075.77C2794.85 1071.28 2798.96 1069.03 2804.38 1069.03ZM2804.38 1073.97C2801.28 1073.97 2798.84 1075.62 2797.06 1078.91C2795.28 1082.18 2794.39 1087.55 2794.39 1095.01C2794.39 1098.79 2794.59 1102.03 2794.98 1104.71C2795.37 1107.39 2795.96 1109.58 2796.77 1111.26C2797.6 1112.92 2798.63 1114.14 2799.88 1114.92C2801.15 1115.7 2802.65 1116.09 2804.38 1116.09C2806.48 1116.09 2808.27 1115.37 2809.76 1113.93C2811.27 1112.49 2812.42 1110.22 2813.2 1107.13C2814 1104 2814.4 1099.97 2814.4 1095.01C2814.4 1089.99 2814.05 1085.93 2813.34 1082.83C2812.66 1079.73 2811.58 1077.49 2810.09 1076.1C2808.62 1074.68 2806.72 1073.97 2804.38 1073.97ZM2811.81 1075.77L2813.42 1081.15L2797.39 1113.6L2795.12 1109.32L2811.81 1075.77Z" fill="white"/>
</svg>
