<svg width="1400" height="1400" viewBox="0 0 1400 1400" fill="none" xmlns="http://www.w3.org/2000/svg">
<rect width="1400" height="1400" rx="200" fill="white"/>
<g clip-path="url(#clip0_463_111)">
<rect x="117" y="118" width="1165" height="1165" rx="200" fill="white"/>
<rect x="230" y="644.513" width="20" height="102.678" fill="black"/>
<rect x="341" y="419.411" width="20" height="327.78" fill="black"/>
<rect x="461" y="311.796" width="20" height="435.394" fill="black"/>
<rect x="579" y="413.487" width="20" height="327.78" fill="black"/>
<rect x="683" y="631.678" width="20" height="115.513" fill="black"/>
<rect x="812" y="883.437" width="20" height="143.157" transform="rotate(-180 812 883.437)" fill="black"/>
<rect x="864" y="972.292" width="20" height="232.013" transform="rotate(-180 864 972.292)" fill="black"/>
<rect x="1161" y="859.742" width="20" height="119.462" transform="rotate(-180 1161 859.742)" fill="black"/>
<rect x="1102" y="966.369" width="20" height="226.089" transform="rotate(-180 1102 966.369)" fill="black"/>
<rect x="982" y="1073.98" width="20" height="332.716" transform="rotate(-180 982 1073.98)" fill="black"/>
<path d="M189 732H1231V762H189V732Z" fill="black"/>
<path d="M174 760.351L175 758.076L176 755.799L177 753.52L178 751.239L179 748.956L180 746.67L181 744.382L182 742.093L183 739.802L184 737.509L185 735.214L186 732.918L187 730.621L188 728.322L189 726.021L190 723.72L191 721.417L192 719.114L193 716.809L194 714.503L195 712.197L196 709.89L197 707.582L198 705.274L199 702.965L200 700.656L201 698.347L202 696.038L203 693.728L204 691.418L205 689.109L206 686.799L207 684.49L208 682.181L209 679.873L210 677.565L211 675.257L212 672.95L213 670.644L214 668.339L215 666.034L216 663.731L217 661.429L218 659.128L219 656.828L220 654.529L221 652.232L222 649.936L223 647.642L224 645.349L225 643.059L226 640.77L227 638.483L228 636.198L229 633.915L230 631.634L231 629.356L232 627.08L233 624.806L234 622.535L235 620.266L236 618L237 615.737L238 613.476L239 611.219L240 608.964L241 606.713L242 604.465L243 602.22L244 599.978L245 597.74L246 595.505L247 593.274L248 591.046L249 588.823L250 586.603L251 584.387L252 582.175L253 579.967L254 577.763L255 575.563L256 573.368L257 571.177L258 568.991L259 566.809L260 564.631L261 562.459L262 560.291L263 558.128L264 555.97L265 553.817L266 551.67L267 549.527L268 547.39L269 545.258L270 543.131L271 541.01L272 538.894L273 536.785L274 534.68L275 532.582L276 530.49L277 528.403L278 526.323L279 524.249L280 522.18L281 520.119L282 518.063L283 516.014L284 513.972L285 511.936L286 509.906L287 507.884L288 505.868L289 503.859L290 501.857L291 499.862L292 497.874L293 495.893L294 493.92L295 491.953L296 489.995L297 488.043L298 486.099L299 484.163L300 482.235L301 480.314L302 478.401L303 476.496L304 474.598L305 472.709L306 470.828L307 468.955L308 467.09L309 465.234L310 463.386L311 461.546L312 459.715L313 457.893L314 456.079L315 454.273L316 452.477L317 450.689L318 448.911L319 447.141L320 445.38L321 443.628L322 441.886L323 440.153L324 438.429L325 436.714L326 435.009L327 433.313L328 431.627L329 429.95L330 428.283L331 426.626L332 424.978L333 423.341L334 421.713L335 420.095L336 418.487L337 416.89L338 415.302L339 413.725L340 412.158L341 410.601L342 409.054L343 407.518L344 405.993L345 404.478L346 402.973L347 401.48L348 399.997L349 398.524L350 397.063L351 395.612L352 394.173L353 392.744L354 391.326L355 389.92L356 388.524L357 387.14L358 385.767L359 384.405L360 383.055L361 381.716L362 380.388L363 379.072L364 377.767L365 376.474L366 375.193L367 373.923L368 372.665L369 371.418L370 370.184L371 368.961L372 367.751L373 366.552L374 365.365L375 364.19L376 363.027L377 361.877L378 360.738L379 359.612L380 358.498L381 357.397L382 356.307L383 355.23L384 354.166L385 353.113L386 352.074L387 351.047L388 350.032L389 349.03L390 348.04L391 347.064L392 346.1L393 345.148L394 344.21L395 343.284L396 342.371L397 341.471L398 340.584L399 339.71L400 338.849L401 338.001L402 337.166L403 336.344L404 335.535L405 334.739L406 333.956L407 333.187L408 332.43L409 331.687L410 330.957L411 330.241L412 329.538L413 328.848L414 328.172L415 327.509L416 326.859L417 326.223L418 325.6L419 324.991L420 324.395L421 323.813L422 323.244L423 322.689L424 322.148L425 321.62L426 321.106L427 320.605L428 320.118L429 319.645L430 319.186L431 318.74L432 318.308L433 317.89L434 317.485L435 317.095L436 316.718L437 316.355L438 316.005L439 315.67L440 315.349L441 315.041L442 314.747L443 314.467L444 314.201L445 313.949L446 313.711L447 313.487L448 313.276L449 313.08L450 312.898L451 312.729L452 312.575L453 312.434L454 312.308L455 312.195L456 312.097L457 312.012L458 311.941L459 311.885L460 311.842L461 311.814L462 311.799L463 311.798L464 311.812L465 311.839L466 311.88L467 311.936L468 312.005L469 312.089L470 312.186L471 312.297L472 312.423L473 312.562L474 312.715L475 312.882L476 313.063L477 313.259L478 313.468L479 313.691L480 313.928L481 314.178L482 314.443L483 314.722L484 315.014L485 315.321L486 315.641L487 315.975L488 316.323L489 316.685L490 317.061L491 317.45L492 317.853L493 318.27L494 318.701L495 319.146L496 319.604L497 320.076L498 320.562L499 321.061L500 321.574L501 322.101L502 322.641L503 323.195L504 323.762L505 324.343L506 324.938L507 325.546L508 326.167L509 326.802L510 327.451L511 328.112L512 328.788L513 329.476L514 330.178L515 330.894L516 331.622L517 332.364L518 333.119L519 333.888L520 334.669L521 335.464L522 336.272L523 337.093L524 337.926L525 338.774L526 339.634L527 340.507L528 341.392L529 342.291L530 343.203L531 344.128L532 345.065L533 346.015L534 346.978L535 347.954L536 348.942L537 349.943L538 350.956L539 351.982L540 353.021L541 354.072L542 355.136L543 356.212L544 357.3L545 358.4L546 359.513L547 360.638L548 361.776L549 362.925L550 364.087L551 365.261L552 366.446L553 367.644L554 368.854L555 370.075L556 371.309L557 372.554L558 373.811L559 375.08L560 376.36L561 377.652L562 378.956L563 380.271L564 381.598L565 382.936L566 384.285L567 385.646L568 387.018L569 388.401L570 389.796L571 391.202L572 392.618L573 394.046L574 395.485L575 396.934L576 398.395L577 399.866L578 401.348L579 402.841L580 404.344L581 405.858L582 407.383L583 408.918L584 410.464L585 412.02L586 413.586L587 415.162L588 416.749L589 418.346L590 419.953L591 421.569L592 423.196L593 424.833L594 426.48L595 428.136L596 429.802L597 431.478L598 433.163L599 434.858L600 436.563L601 438.277L602 440L603 441.732L604 443.474L605 445.225L606 446.985L607 448.754L608 450.532L609 452.319L610 454.114L611 455.919L612 457.732L613 459.554L614 461.384L615 463.223L616 465.07L617 466.926L618 468.79L619 470.662L620 472.543L621 474.431L622 476.328L623 478.232L624 480.144L625 482.065L626 483.992L627 485.928L628 487.871L629 489.822L630 491.78L631 493.746L632 495.719L633 497.699L634 499.686L635 501.68L636 503.682L637 505.69L638 507.705L639 509.727L640 511.756L641 513.791L642 515.833L643 517.882L644 519.937L645 521.998L646 524.066L647 526.139L648 528.219L649 530.305L650 532.397L651 534.495L652 536.598L653 538.708L654 540.823L655 542.943L656 545.069L657 547.201L658 549.338L659 551.48L660 553.627L661 555.78L662 557.937L663 560.1L664 562.267L665 564.439L666 566.616L667 568.798L668 570.984L669 573.174L670 575.369L671 577.568L672 579.772L673 581.979L674 584.191L675 586.407L676 588.626L677 590.85L678 593.077L679 595.308L680 597.542L681 599.78L682 602.022L683 604.266L684 606.514L685 608.765L686 611.02L687 613.277L688 615.537L689 617.8L690 620.066L691 622.334L692 624.605L693 626.879L694 629.154L695 631.433L696 633.713L697 635.996L698 638.281L699 640.568L700 642.856L701 645.147L702 647.439L703 649.733L704 652.029L705 654.326L706 656.624L707 658.924L708 661.225L709 663.528L710 665.831L711 668.135L712 670.44L713 672.746L714 675.053L715 677.361L716 679.669L717 681.977L718 684.286L719 686.595L720 688.905L721 691.214L722 693.524L723 695.834L724 698.143L725 700.452L726 702.761L727 705.07L728 707.378L729 709.686L730 711.993L731 714.3L732 716.605L733 718.91L734 721.214L735 723.516L736 725.818L737 728.118L738 730.418L739 732.715L740 735.011L741 737.306L742 739.599L743 741.891L744 744.18L745 746.468L746 748.754L747 751.037L748 753.319L749 755.598L750 757.875L751 760.15L752 762.422L753 764.692L754 766.958L755 769.223L756 771.484L757 773.743L758 775.998L759 778.251L760 780.5L761 782.746L762 784.989L763 787.229L764 789.465L765 791.697L766 793.926L767 796.151L768 798.373L769 800.59L770 802.804L771 805.013L772 807.218L773 809.42L774 811.616L775 813.809L776 815.997L777 818.181L778 820.36L779 822.534L780 824.703L781 826.868L782 829.028L783 831.182L784 833.332L785 835.477L786 837.616L787 839.75L788 841.878L789 844.001L790 846.119L791 848.231L792 850.337L793 852.438L794 854.532L795 856.621L796 858.703L797 860.78L798 862.85L799 864.914L800 866.972L801 869.023L802 871.068L803 873.107L804 875.139L805 877.164L806 879.182L807 881.193L808 883.198L809 885.195L810 887.186L811 889.169L812 891.145L813 893.114L814 895.076L815 897.03L816 898.976L817 900.915L818 902.847L819 904.77L820 906.686L821 908.594L822 910.494L823 912.387L824 914.271L825 916.146L826 918.014L827 919.874L828 921.725L829 923.567L830 925.402L831 927.227L832 929.044L833 930.853L834 932.653L835 934.443L836 936.225L837 937.998L838 939.762L839 941.517L840 943.263L841 945L842 946.727L843 948.445L844 950.154L845 951.853L846 953.543L847 955.223L848 956.894L849 958.554L850 960.205L851 961.847L852 963.478L853 965.099L854 966.711L855 968.312L856 969.903L857 971.485L858 973.055L859 974.616L860 976.166L861 977.706L862 979.235L863 980.754L864 982.262L865 983.76L866 985.247L867 986.723L868 988.188L869 989.643L870 991.087L871 992.519L872 993.941L873 995.352L874 996.751L875 998.139L876 999.517L877 1000.88L878 1002.24L879 1003.58L880 1004.91L881 1006.23L882 1007.54L883 1008.84L884 1010.12L885 1011.4L886 1012.66L887 1013.91L888 1015.15L889 1016.38L890 1017.59L891 1018.79L892 1019.99L893 1021.17L894 1022.33L895 1023.49L896 1024.63L897 1025.76L898 1026.88L899 1027.99L900 1029.08L901 1030.16L902 1031.23L903 1032.29L904 1033.33L905 1034.36L906 1035.38L907 1036.39L908 1037.38L909 1038.36L910 1039.33L911 1040.29L912 1041.23L913 1042.16L914 1043.08L915 1043.98L916 1044.88L917 1045.75L918 1046.62L919 1047.47L920 1048.31L921 1049.14L922 1049.95L923 1050.75L924 1051.54L925 1052.32L926 1053.08L927 1053.82L928 1054.56L929 1055.28L930 1055.99L931 1056.68L932 1057.36L933 1058.03L934 1058.69L935 1059.33L936 1059.96L937 1060.57L938 1061.17L939 1061.76L940 1062.33L941 1062.89L942 1063.44L943 1063.97L944 1064.49L945 1065L946 1065.49L947 1065.97L948 1066.43L949 1066.88L950 1067.32L951 1067.74L952 1068.15L953 1068.55L954 1068.93L955 1069.3L956 1069.65L957 1069.99L958 1070.32L959 1070.63L960 1070.93L961 1071.21L962 1071.48L963 1071.74L964 1071.98L965 1072.21L966 1072.43L967 1072.63L968 1072.82L969 1072.99L970 1073.15L971 1073.3L972 1073.43L973 1073.55L974 1073.65L975 1073.74L976 1073.81L977 1073.88L978 1073.92L979 1073.96L980 1073.98L981 1073.98L982 1073.97L983 1073.95L984 1073.92L985 1073.87L986 1073.8L987 1073.72L988 1073.63L989 1073.52L990 1073.4L991 1073.27L992 1073.12L993 1072.96L994 1072.78L995 1072.59L996 1072.39L997 1072.17L998 1071.94L999 1071.69L1000 1071.43L1001 1071.16L1002 1070.87L1003 1070.57L1004 1070.26L1005 1069.93L1006 1069.58L1007 1069.23L1008 1068.86L1009 1068.47L1010 1068.07L1011 1067.66L1012 1067.24L1013 1066.8L1014 1066.34L1015 1065.88L1016 1065.4L1017 1064.9L1018 1064.39L1019 1063.87L1020 1063.34L1021 1062.79L1022 1062.23L1023 1061.65L1024 1061.06L1025 1060.46L1026 1059.84L1027 1059.21L1028 1058.57L1029 1057.91L1030 1057.24L1031 1056.56L1032 1055.86L1033 1055.15L1034 1054.42L1035 1053.69L1036 1052.94L1037 1052.17L1038 1051.4L1039 1050.61L1040 1049.8L1041 1048.99L1042 1048.16L1043 1047.32L1044 1046.46L1045 1045.59L1046 1044.71L1047 1043.82L1048 1042.91L1049 1041.99L1050 1041.06L1051 1040.11L1052 1039.15L1053 1038.18L1054 1037.2L1055 1036.2L1056 1035.19L1057 1034.17L1058 1033.14L1059 1032.09L1060 1031.03L1061 1029.96L1062 1028.88L1063 1027.78L1064 1026.67L1065 1025.55L1066 1024.42L1067 1023.27L1068 1022.12L1069 1020.95L1070 1019.77L1071 1018.57L1072 1017.37L1073 1016.15L1074 1014.92L1075 1013.68L1076 1012.43L1077 1011.16L1078 1009.89L1079 1008.6L1080 1007.3L1081 1005.99L1082 1004.67L1083 1003.33L1084 1001.99L1085 1000.63L1086 999.261L1087 997.882L1088 996.492L1089 995.09L1090 993.677L1091 992.253L1092 990.819L1093 989.373L1094 987.916L1095 986.449L1096 984.971L1097 983.482L1098 981.982L1099 980.472L1100 978.951L1101 977.42L1102 975.878L1103 974.326L1104 972.764L1105 971.191L1106 969.608L1107 968.015L1108 966.412L1109 964.798L1110 963.175L1111 961.542L1112 959.899L1113 958.246L1114 956.584L1115 954.911L1116 953.229L1117 951.538L1118 949.837L1119 948.126L1120 946.407L1121 944.677L1122 942.939L1123 941.192L1124 939.435L1125 937.669L1126 935.894L1127 934.111L1128 932.318L1129 930.517L1130 928.707L1131 926.888L1132 925.061L1133 923.225L1134 921.381L1135 919.528L1136 917.667L1137 915.798L1138 913.921L1139 912.035L1140 910.142L1141 908.24L1142 906.33L1143 904.413L1144 902.488L1145 900.555L1146 898.615L1147 896.667L1148 894.711L1149 892.749L1150 890.778L1151 888.801L1152 886.816L1153 884.824L1154 882.825L1155 880.82L1156 878.807L1157 876.787L1158 874.761L1159 872.728L1160 870.688L1161 868.642L1162 866.59L1163 864.531L1164 862.465L1165 860.394L1166 858.316L1167 856.233L1168 854.143L1169 852.047L1170 849.946L1171 847.838L1172 845.725L1173 843.607L1174 841.483L1175 839.353L1176 837.218L1177 835.078L1178 832.933L1179 830.782L1180 828.626L1181 826.466L1182 824.3L1183 822.13L1184 819.954L1185 817.775L1186 815.59L1187 813.401L1188 811.208L1189 809.01L1190 806.808L1191 804.602L1192 802.392L1193 800.178L1194 797.96L1195 795.737L1196 793.512L1197 791.282L1198 789.049L1199 786.812L1200 784.572L1201 782.329L1202 780.082L1203 777.832L1204 775.579L1205 773.323L1206 771.064L1207 768.802L1208 766.537L1209 764.269L1210 761.999L1211 759.727L1212 757.452L1213 755.174L1214 752.894L1215 750.613L1216 748.329L1217 746.042L1218 743.754L1219 741.464L1220 739.173L1221 736.879L1222 734.584L1223 732.288L1224 729.99" stroke="black" stroke-width="50" stroke-miterlimit="10" stroke-linecap="round" stroke-linejoin="round"/>
</g>
<defs>
<clipPath id="clip0_463_111">
<rect x="117" y="118" width="1165" height="1165" rx="200" fill="white"/>
</clipPath>
</defs>
</svg>
